<ttFont>
          <CharString index="0">
            497 52 rmoveto
            -182 572 rlineto
            9 -3 -13 5 -11 hhcurveto
            -103 hlineto
            -15 -8 -11 -16 -50 callsubr
            15 hvcurveto
            40 hlineto
            -166 -533 rlineto
            -25 hlineto
            -17 -28 callgsubr
            -12 17 hvcurveto
            101 hlineto
            16 -19 callsubr
            50 callgsubr
            -24 hlineto
            28 91 rlineto
            267 hlineto
            29 -91 rlineto
            -23 hlineto
            -16 -8 -11 -15 -38 callgsubr
            110 hlineto
            16 7 12 14 15 -7 11 -16 hvcurveto
            -370 139 rmoveto
            120 390 122 -390 rlineto
            return
          </CharString>
          <CharString index="1">
            17 -15 13 -17 -12 -13 -6 -16 -9 vhcurveto
            -63 -108 rlineto
            -1 -2 -1 -2 -2 vvcurveto
            -7 6 -6 7 vhcurveto
            endchar
          </CharString>
          <CharString index="2">
            13 -11 9 -13 -6 -7 -2 -4 -6 vhcurveto
            -89 -65 -88 65 rlineto
            4 -5 -7 2 -6 hhcurveto
            -13 -11 -9 -15 callgsubr
            6 -4 hvcurveto
            122 -90 rlineto
            return
          </CharString>
          <CharString index="3">
            357 428 rmoveto
            -204 vlineto
            -111 -72 -73 -71 -68 -25 66 50 vhcurveto
            272 24 vlineto
            16 9 14 12 13 -9 13 -16 hvcurveto
            -102 hlineto
            -15 -8 -13 -13 -12 8 -14 15 hvcurveto
            22 -271 hlineto
            -74 36 -90 107 76 46 47 46 28 vhcurveto
            return
          </CharString>
          <CharString index="4">
            242 488 rmoveto
            -142 -85 -107 -140 -137 80 -110 146 147 82 111 137 140 -85 106 -143 hvcurveto
            -447 vmoveto
            -97 -74 88 113 114 75 85 96 96 76 -87 -113 -113 -75 -87 -97 hvcurveto
            return
          </CharString>
          <CharString index="5">
            61 428 rmoveto
            161 -377 -19 -47 -19 -44 -30 -47 -32 -2 rlinecurve
            22 -2 -17 38 -37 hhcurveto
            -22 -11 -15 -18 -28 26 -37 56 76 32 69 60 27 hvcurveto
            190 426 rlineto
            24 hlineto
            13 10 14 12 13 -10 13 -13 hvcurveto
            -100 hlineto
            -13 -10 -13 -13 -12 10 -14 13 hvcurveto
            24 hlineto
            -137 -311 -134 310 28 1 rlineto
            11 10 14 12 13 -10 13 -11 hvcurveto
            -119 hlineto
            -11 -10 -13 -13 -12 10 -14 11 hvcurveto
            return
          </CharString>
          <CharString index="6">
            -16 -8 -10 -15 -16 -65 callgsubr
            337 hlineto
            13 9 5 8 5 hvcurveto
            72 112 rlineto
            3 5 3 7 4 vvcurveto
            14 -12 4 -6 -8 -7 -4 -3 -3 vhcurveto
            -103 -100 rlineto
            return
          </CharString>
          <CharString index="7">
            -32 -16 -25 -46 -59 hhcurveto
            -82 -63 87 123 15 0 9 2 13 hvcurveto
            280 hlineto
            34 callsubr
            -115 -76 -103 -144 -147 79 -106 122 hvcurveto
            return
          </CharString>
          <CharString index="8">
            rmoveto
            1 -3 0 -3 -3 vvcurveto
            -22 -24 -19 -8 -8 vhcurveto
            -11 callgsubr
            -2 vvcurveto
            -4 6 0 3 return
          </CharString>
          <CharString index="9">
            17 -16 12 -16 -14 -14 -8 -19 -6 vhcurveto
            -35 -104 rlineto
            -1 -2 0 -3 -1 vvcurveto
            -7 7 -5 8 vhcurveto
            108 hmoveto
            2 5 3 4 3 hvcurveto
            73 -31 callgsubr
            -13 -8 -19 -7 vhcurveto
            -42 -104 rlineto
            -1 -2 0 -3 -1 vvcurveto
            -7 7 -5 8 vhcurveto
            endchar
          </CharString>
          <CharString index="10">
            -27 -13 -19 -17 -21 19 -18 17 hvcurveto
            -17 -6 -15 -20 vhcurveto
            -43 -39 71 -99 hhcurveto
            -54 -48 -23 -23 -34 hvcurveto
            182 277 rlineto
            -9 19 29 -10 19 hhcurveto
            24 30 16 24 15 -12 16 -16 hvcurveto
            -21 0 -28 -18 hhcurveto
            -7 -12 4 7 -12 hvcurveto
            129 196 rlineto
            17 26 18 4 19 vvcurveto
            16 -17 16 -18 -9 -12 -5 -10 -7 vhcurveto
            -21 -16 -24 -24 -38 hhcurveto
            return
          </CharString>
          <CharString index="11">
            -26 28 -28 32 22 16 14 25 50 -62 39 -68 -82 -65 -55 -83 -71 48 -47 65 -42 vhcurveto
            51 -33 rlineto
            52 -33 65 -42 -74 vvcurveto
            -63 -47 -73 -88 -49 -57 22 62 -16 vhcurveto
            16 13 11 26 20 vvcurveto
            return
          </CharString>
          <CharString index="12">
            -29 533 29 hlineto
            2 callsubr
            16 -8 11 -17 hvcurveto
            -115 hlineto
            -15 -9 -11 -68 callsubr
            return
          </CharString>
          <CharString index="13">
            -57 callgsubr
            hintmask 11101000
            -14 -11 -14 -12 -14 11 -12 14 hvcurveto
            106 hlineto
            17 -19 callsubr
            12 -8 14 -17 hvcurveto
            hintmask 11110000
            -88 callsubr
            return
          </CharString>
          <CharString index="14">
            -34 -3 -52 -6 -42 hhcurveto
            -42 -53 6 34 -3 hvcurveto
            11 6 9 17 7 vvcurveto
            return
          </CharString>
          <CharString index="15">
            rmoveto
            7 6 6 7 2 -1 2 -1 2 hvcurveto
            -63 108 rlineto
            return
          </CharString>
          <CharString index="16">
            29 -411 hlineto
            -19 10 -8 23 64 98 61 84 35 vhcurveto
            -116 vlineto
            -20 12 -9 20 151 127 225 167 99 -45 35 -41 -31 -10 -21 -18 -27 24 -30 27 6 9 2 1 4 vhcurveto
            return
          </CharString>
          <CharString index="17">
            -20 -7 callgsubr
            50 hintmask 0111001010000000
            494 -10 rmoveto
            110 52 85 35 21 -18 6 -12 -17 -10 -14 -10 -5 hvcurveto
            hintmask 1011001010000000
            -32 -16 -25 -46 -59 hhcurveto
            -81 -48 85 121 -1 hvcurveto
            39 267 vlineto
            34 callsubr
            -66 -46 -34 -57 -27 hvcurveto
            hintmask 1010010110000000
            56 -28 -53 39 -76 hhcurveto
            -83 -61 -50 -55 hvcurveto
            hintmask 1011000110000000
            -24 12 -26 26 24 17 27 24 8 -6 15 -3 7 vhcurveto
            hintmask 0110101010000000
            17 8 23 17 42 hhcurveto
            97 30 -84 -81 hvcurveto
            35 -36 -51 14 -38 hhcurveto
            -99 -75 -80 -99 -94 68 -73 103 71 51 33 61 38 hvcurveto
            -58 28 49 -36 71 hhcurveto
            -298 44 rmoveto
            -69 -57 55 75 72 53 53 69 70 55 -52 -72 hvcurveto
            -9 vlineto
            -68 -52 -54 -69 vhcurveto
            172 296 rmoveto
            48 13 33 66 69 hhcurveto
            71 40 -70 -44 5 hvcurveto
            return
          </CharString>
          <CharString index="18">
            10 143 rmoveto
            -77 85 -77 104 101 93 66 121 109 -77 50 -62 42 vhcurveto
            -51 34 rlineto
            -44 29 -50 38 47 vvcurveto
            41 37 43 51 18 14 -5 -12 6 vhcurveto
            -2 -6 -1 -6 -5 vvcurveto
            return
          </CharString>
          <CharString index="19">
            -25 401 hlineto
            19 -1 -9 8 -22 hhcurveto
            -50 hlineto
            -17 -9 -11 -15 -13 9 -12 17 hvcurveto
            return
          </CharString>
          <CharString index="20">
            rmoveto
            26 -20 19 -27 -26 -20 -19 -26 -24 20 -20 26 27 20 20 24 vhcurveto
            endchar
          </CharString>
          <CharString index="21">
            7 -23 -28 3 -24 hhcurveto
            -121 -96 -81 -104 -72 44 -64 59 -29 hvcurveto
            -61 -103 rlineto
            -3 -5 -2 -5 -5 vvcurveto
            -11 9 -11 23 vhcurveto
            75 hlineto
            -57 3 61 -56 69 hhcurveto
            59 45 39 49 return
          </CharString>
          <CharString index="22">
            8 22 9 32 23 vvcurveto
            45 -33 44 -52 -40 -29 -19 -34 -20 19 -16 25 14 22 8 13 11 vhcurveto
            10 -3 5 -15 -12 vvcurveto
            -12 -6 -22 -7 -20 vhcurveto
            -151 -433 rlineto
            return
          </CharString>
          <CharString index="23">
            15 315 rmoveto
            -208 115 -117 136 91 58 52 50 20 vhcurveto
            -33 16 19 -21 18 hhcurveto
            13 17 12 18 11 -7 9 -13 13 hvcurveto
            -17 20 -15 43 51 vvcurveto
            return
          </CharString>
          <CharString index="24">
            hstemhm
            17 100 150 87 hintmask 0011100110000000
            -39 callgsubr
            hintmask 0100100110000000
            -69 callgsubr
            hintmask 1000100110000000
            -79 callgsubr
            hintmask 0011010110000000
            -54 callsubr
            return
          </CharString>
          <CharString index="25">
            -13 8 -12 15 vhcurveto
            41 -376 -32 hlineto
            -16 -8 -14 -12 -13 8 -13 44 callgsubr
            15 10 13 14 11 -10 14 -15 hvcurveto
            return
          </CharString>
          <CharString index="26">
            26 -14 38 -41 -24 -22 -24 -25 -25 22 -18 24 -1 return
          </CharString>
          <CharString index="27">
            -17 -7 -14 -12 -13 7 -13 17 hvcurveto
            116 hlineto
            15 10 13 13 12 -10 14 -15 hvcurveto
            -29 210 hlineto
            81 69 96 75 61 14 -62 -36 vhcurveto
            -289 -25 vlineto
            -19 -7 -14 -12 -13 7 -13 19 hvcurveto
            110 hlineto
            15 8 13 13 12 -8 14 -15 hvcurveto
            -29 286 hlineto
            69 -34 79 -91 -77 -53 -55 -39 -20 vhcurveto
            return
          </CharString>
          <CharString index="28">
            -26 28 -30 32 28 10 21 19 63 -72 25 -63 -126 -130 -110 -221 -221 123 -106 142 116 90 91 60 15 -13 15 -15 vhcurveto
            return
          </CharString>
          <CharString index="29">
            520 638 rmoveto
            -95 hlineto
            -15 -8 -12 -15 -15 8 -10 callgsubr
            return
          </CharString>
          <CharString index="30">
            -3 -9 rlineto
            -321 hlineto
            4 7 rlineto
            2 4 1 4 4 vvcurveto
            12 -11 12 -17 -5 -16 -3 -22 -7 vhcurveto
            -24 -71 rlineto
            -2 -5 -1 -5 -5 vvcurveto
            -10 9 -8 10 4 8 0 12 8 vhcurveto
            return
          </CharString>
          <CharString index="31">
            16 -37 callsubr
            16 -8 19 callgsubr
            return
          </CharString>
          <CharString index="32">
            348 137 rmoveto
            -17 -9 -13 -11 -5 hvcurveto
            -28 -13 -26 -49 -58 hhcurveto
            -81 -63 86 122 120 61 81 72 8 11 -3 -4 9 hvcurveto
            return
          </CharString>
          <CharString index="33">
            -27 -22 -19 -30 -28 22 -19 27 29 22 19 28 30 -22 19 -29 hvcurveto
            return
          </CharString>
          <CharString index="34">
            17 callsubr
            hintmask 1001010100000000
            -58 callgsubr
            hintmask 1010001100000000
            -71 callgsubr
            hintmask 1010010010000000
            -68 callgsubr
            hintmask 0100110010000000
            -72 callsubr
            return
          </CharString>
          <CharString index="35">
            24 -14 17 -20 -28 -25 -33 -40 -66 64 -46 79 105 40 83 64 79 -59 43 -39 28 vhcurveto
            -33 25 rlineto
            -34 25 -38 31 33 vvcurveto
            return
          </CharString>
          <CharString index="36">
            -15 -65 callgsubr
            return
          </CharString>
          <CharString index="37">
            119 -59 hlineto
            -73 -38 -97 -102 -125 -71 146 137 157 92 120 110 10 17 -1 -7 16 vhcurveto
            return
          </CharString>
          <CharString index="38">
            -3 -6 -2 -6 -7 vvcurveto
            -27 29 -27 31 26 13 19 24 58 -73 28 -65 -130 -129 -115 -218 vhcurveto
            return
          </CharString>
          <CharString index="39">
            -16 -71 callsubr
            return
          </CharString>
          <CharString index="40">
            16 9 12 15 14 -9 12 -16 hvcurveto
            return
          </CharString>
          <CharString index="41">
            -83 callgsubr
            -6 callsubr
            return
          </CharString>
          <CharString index="42">
            18 -35 -39 10 -40 hhcurveto
            -139 -121 -111 -215 -123 39 -92 60 -55 hvcurveto
            -10 -22 -8 callgsubr
            145 610 rmoveto
            34 30 -11 -18 26 hvcurveto
            -223 -462 rlineto
            -45 59 -24 84 74 vvcurveto
            134 70 140 132 vhcurveto
            201 -284 rmoveto
            -131 -70 -147 -131 -34 -30 11 19 -26 vhcurveto
            222 463 rlineto
            45 -56 24 -83 -76 vvcurveto
            return
          </CharString>
          <CharString index="43">
            -174 hlineto
            39 70 rlineto
            -7 23 23 -3 23 hhcurveto
            120 96 79 108 72 -44 58 -59 34 hvcurveto
            return
          </CharString>
          <CharString index="44">
            rmoveto
            9 -7 -7 2 -6 hhcurveto
            -12 -14 -11 -13 -8 2 -6 6 -8 hvcurveto
            103 -122 -103 -122 rlineto
            -6 -8 -2 -6 -7 vvcurveto
            -14 14 -11 13 5 8 4 7 6 vhcurveto
            131 157 rlineto
            return
          </CharString>
          <CharString index="45">
            204 hlineto
            76 57 145 -261 rlineto
            -22 hlineto
            -18 -7 -13 -13 -17 7 -9 18 hvcurveto
            114 hlineto
            14 7 11 16 13 -7 12 -14 hvcurveto
            -29 hlineto
            -165 295 102 82 rlineto
            30 hlineto
            return
          </CharString>
          <CharString index="46">
            17 7 13 13 13 -7 13 -17 hvcurveto
            -101 hlineto
            return
          </CharString>
          <CharString index="47">
            120 10 83 97 124 vvcurveto
            152 -131 78 -176 vhcurveto
            -103 hlineto
            -15 -9 -11 -68 callsubr
            return
          </CharString>
          <CharString index="48">
            24 -5 callgsubr
            hlineto
            return
          </CharString>
          <CharString index="49">
            14 -8 12 -15 vhcurveto
            -37 376 22 hlineto
            return
          </CharString>
          <CharString index="50">
            22 -9 6 -22 vhcurveto
            -57 hlineto
            -16 -10 -11 -14 -15 10 -12 16 hvcurveto
            return
          </CharString>
          <CharString index="51">
            -15 -8 -25 callgsubr
            15 hvcurveto
            return
          </CharString>
          <CharString index="52">
            14 8 10 14 13 -6 12 -9 6 return
          </CharString>
          <CharString index="53">
            12 2 15 9 19 hhcurveto
            167 hlineto
            -244 -391 rlineto
            -2 -3 -4 -10 -5 vvcurveto
            -14 11 -12 20 vhcurveto
            return
          </CharString>
          <CharString index="54">
            307 428 rmoveto
            -147 vlineto
            -114 -107 -119 -68 vhcurveto
            380 18 vlineto
            return
          </CharString>
          <CharString index="55">
            -20 49 callgsubr
            hintmask 11100100
            5 callsubr
            hintmask 11101000
            58 callsubr
            17 -19 callsubr
            12 -8 14 -17 hvcurveto
            hintmask 11110000
            -24 callsubr
            hintmask 11100100
            return
          </CharString>
          <CharString index="56">
            -15 -11 -13 -13 -13 11 -13 15 hvcurveto
            return
          </CharString>
          <CharString index="57">
            -14 8 -12 return
          </CharString>
          <CharString index="58">
            6 -1 4 -12 -27 vvcurveto
            -140 -106 -195 -103 vhcurveto
            380 20 vlineto
            return
          </CharString>
          <CharString index="59">
            34 45 50 45 -81 callsubr
            return
          </CharString>
          <CharString index="60">
            rmoveto
            -12 8 -6 9 6 7 3 7 3 vhcurveto
            38 82 rlineto
            6 13 3 9 12 vvcurveto
            20 -15 10 -18 -22 -13 -21 -24 -2 vhcurveto
            return
          </CharString>
          <CharString index="61">
            480 638 rmoveto
            -105 hlineto
            -15 -9 -11 -16 -16 9 -10 15 hvcurveto
            return
          </CharString>
          <CharString index="62">
            130 -10 39 callsubr
            6 13 rlineto
            -18 35 38 -10 41 hhcurveto
            140 120 116 212 124 -40 91 -61 54 hvcurveto
            12 24 rlineto
            2 4 1 5 4 vvcurveto
            14 -13 12 -15 -11 -10 -6 -9 -4 vhcurveto
            -7 -15 rlineto
            return
          </CharString>
          <CharString index="63">
            15 -4 4 -15 vhcurveto
            -77 hlineto
            -9 -14 -7 -20 return
          </CharString>
          <CharString index="64">
            152 153 105 -113 -169 -164 -97 -139 -155 hvcurveto
            -5 624 rmoveto
            -199 -111 -139 -186 -191 116 -148 194 200 107 159 184 188 -111 133 -196 hvcurveto
            endchar
          </CharString>
          <CharString index="65">
            -34 2 21 -35 26 hhcurveto
            20 16 21 22 50 -58 28 -56 -107 -70 -108 -119 -116 67 -125 129 -1 hvcurveto
            48 47 29 36 35 hvcurveto
            -43 vlineto
            -17 5 -5 17 vhcurveto
            63 hlineto
            13 12 13 13 12 -12 14 -13 hvcurveto
            -29 return
          </CharString>
          <CharString index="66">
            hlineto
            46 -25 -52 31 -61 hhcurveto
            -114 -67 -109 -139 -139 67 -100 113 60 51 35 45 28 hvcurveto
            -57 vlineto
            return
          </CharString>
          <CharString index="67">
            17 -9 15 -15 1 vhcurveto
            -22 -6 -20 -13 -27 27 -23 36 45 33 36 43 hvcurveto
            return
          </CharString>
          <CharString index="68">
            -12 10 -7 9 10 5 6 11 6 vhcurveto
            37 69 rlineto
            3 6 2 7 6 vvcurveto
            return
          </CharString>
          <CharString index="69">
            -28 -10 44 255 47 1 155 return
          </CharString>
          <CharString index="70">
            8 11 15 return
          </CharString>
          <CharString index="71">
            -16 callsubr
            233 96 -51 51 -51 96 return
          </CharString>
          <CharString index="72">
            0 52 533 53 return
          </CharString>
          <CharString index="73">
            -98 -10 101 -101 149 -118 -21 42 49 242 147 -45 45 return
          </CharString>
          <CharString index="74">
            -16 -8 -11 -15 -71 callsubr
            99 hlineto
            return
          </CharString>
          <CharString index="75">
            -16 -8 -11 -15 -38 callgsubr
            333 hlineto
            13 9 5 8 5 hvcurveto
            72 112 rlineto
            3 5 3 7 4 vvcurveto
            14 -12 4 -6 -8 -7 -4 -3 -3 vhcurveto
            -103 -100 rlineto
            -495 139 rmoveto
            return
          </CharString>
          <CharString index="76">
            20 -113 41 76 48 -31 -21 112 43 293 42 -2 100 return
          </CharString>
          <CharString index="77">
            -18 -2 -5 -22 vhcurveto
            -24 hlineto
            -15 -11 -13 -14 -12 11 -13 15 hvcurveto
            return
          </CharString>
          <CharString index="78">
            93 0 52 91 48 394 53 return
          </CharString>
          <CharString index="79">
            -35 callsubr
            62 callgsubr
            return
          </CharString>
          <CharString index="80">
            17 4 12 15 14 -4 11 -17 hvcurveto
            -228 hlineto
            return
          </CharString>
          <CharString index="81">
            -17 31 37 -9 43 hhcurveto
            147 82 111 137 80 -28 68 -50 45 hvcurveto
            18 28 rlineto
            2 3 1 5 3 vvcurveto
            13 -11 11 -14 -10 -7 -5 -9 -6 vhcurveto
            -14 -21 rlineto
            return
          </CharString>
          <CharString index="82">
            -16 -8 -10 -68 callsubr
            107 hlineto
            -18 callsubr
            -24 378 240 -378 -24 hlineto
            -14 -10 62 callsubr
            107 hlineto
            return
          </CharString>
          <CharString index="83">
            -25 557 hlineto
            -57 callsubr
            return
          </CharString>
          <CharString index="84">
            70 24 -67 96 hhcurveto
            63 28 55 36 34 -24 28 -32 hvcurveto
            return
          </CharString>
          <CharString index="85">
            13 10 12 14 14 -10 12 -13 hvcurveto
            -96 hlineto
            return
          </CharString>
          <CharString index="86">
            -8 -11 -16 -15 8 -11 17 hvcurveto
            return
          </CharString>
          <CharString index="87">
            -179 -21 159 return
          </CharString>
          <CharString index="88">
            8 12 14 return
          </CharString>
          <CharString index="89">
            15 9 11 15 16 -9 10 -15 hvcurveto
            return
          </CharString>
          <CharString index="90">
            14 11 8 18 18 -11 9 -14 hvcurveto
            return
          </CharString>
          <CharString index="91">
            42 callsubr
            -58 104 return
          </CharString>
          <CharString index="92">
            340 585 rmoveto
            -443 vlineto
            -31 -13 -51 -65 -66 hhcurveto
            -88 -52 75 123 120 49 60 73 6 10 -3 -3 8 hvcurveto
            1 2 -1 1 hhcurveto
            return
          </CharString>
          <CharString index="93">
            -24 292 hlineto
            98 77 165 -369 rlineto
            -21 hlineto
            -16 -8 -12 -14 -14 8 -12 16 hvcurveto
            117 35 callsubr
            return
          </CharString>
          <CharString index="94">
            0 38 56 callgsubr
            return
          </CharString>
          <CharString index="95">
            106 -106 156 -106 56 return
          </CharString>
          <CharString index="96">
            -8 3 callgsubr
            return
          </CharString>
          <CharString index="97">
            rmoveto
            14 5 12 9 1 hvcurveto
            26 454 rlineto
            19 -16 23 -31 -29 -13 -23 -17 -1 vhcurveto
            23 -456 rlineto
            -10 7 -11 14 vhcurveto
            -41 vmoveto
            return
          </CharString>
          <CharString index="98">
            136 hlineto
            -5 -17 rlineto
            -1 -2 -1 -6 -2 vvcurveto
            return
          </CharString>
          <CharString index="99">
            -17 -7 -12 -14 32 callgsubr
            return
          </CharString>
          <CharString index="100">
            -15 -7 -11 -13 return
          </CharString>
          <CharString index="101">
            92 85 rlineto
            return
          </CharString>
          <CharString index="102">
            -18 -16 -10 -23 -34 35 -31 40 117 5 136 116 hvcurveto
            return
          </CharString>
          <CharString index="103">
            -82 -10 46 334 120 -45 45 return
          </CharString>
          <CharString index="104">
            16 8 13 15 14 13 callsubr
            return
          </CharString>
          <CharString index="105">
            -23 476 hlineto
            268 -513 rlineto
            return
          </CharString>
          <CharString index="106">
            -38 20 41 -54 60 hhcurveto
            48 34 35 36 hvcurveto
            return
          </CharString>
          <CharString index="107">
            8 -3 4 -9 -32 -8 -19 -20 vhcurveto
            -54 vlineto
            return
          </CharString>
          <CharString index="108">
            22 callsubr
            79 return
          </CharString>
          <CharString index="109">
            17 -37 callsubr
            return
          </CharString>
          <CharString index="110">
            15 -14 11 -14 -12 -12 -9 -19 -6 vhcurveto
            return
          </CharString>
          <CharString index="111">
            297 -72 rmoveto
            -41 -28 28 44 -3 hvcurveto
            return
          </CharString>
          <CharString index="112">
            86 585 rmoveto
            -533 -25 vlineto
            return
          </CharString>
          <CharString index="113">
            hstemhm
            43 callsubr
            return
          </CharString>
          <CharString index="114">
            13 callgsubr
            51 return
          </CharString>
          <CharString index="115">
            14 13 10 14 hvcurveto
            311 vlineto
            14 -13 10 -14 -14 -13 -10 -14 vhcurveto
            -311 vlineto
            -14 13 -10 14 vhcurveto
            return
          </CharString>
          <CharString index="116">
            52 377 return
          </CharString>
          <CharString index="117">
            -3 5 -1 3 37 47 53 50 29 -19 38 -41 -25 -21 -24 -26 -27 25 -18 25 -3 vhcurveto
            endchar
          </CharString>
          <CharString index="118">
            -21 -15 -8 -16 -24 -7 22 25 vhcurveto
            345 44 vlineto
            return
          </CharString>
          <CharString index="119">
            -144 -10 42 -42 185 186 127 -38 38 return
          </CharString>
          <CharString index="120">
            -8 11 -16 hvcurveto
            return
          </CharString>
          <CharString index="121">
            -16 23 38 -46 70 hhcurveto
            54 30 43 38 34 -20 29 -31 -22 -11 -23 -17 -17 15 -20 17 hvcurveto
            return
          </CharString>
          <CharString index="122">
            -44 callgsubr
            39 -1 -20 return
          </CharString>
          <CharString index="123">
            21 -12 14 -19 -27 -25 -31 -34 vhcurveto
            return
          </CharString>
          <CharString index="124">
            hstemhm
            15 87 -57 57 81 80 -11 51 return
          </CharString>
          <CharString index="125">
            17 -19 callsubr
            13 -8 13 -17 hvcurveto
            return
          </CharString>
          <CharString index="126">
            3 -5 1 -4 -37 -46 -53 -50 -29 19 -38 40 25 22 24 26 27 -25 18 -25 3 vhcurveto
            return
          </CharString>
          <CharString index="127">
            -59 -11 44 -44 231 301 128 -40 40 return
          </CharString>
          <CharString index="128">
            52 376 59 -47 47 return
          </CharString>
          <CharString index="129">
            hstemhm
            15 55 -26 return
          </CharString>
          <CharString index="130">
            71 585 rmoveto
            7 0 6 1 3 vhcurveto
            23 7 18 23 8 hhcurveto
            2 0 1 1 hvcurveto
            return
          </CharString>
          <CharString index="131">
            -18 -8 -13 -12 -14 8 -13 18 hvcurveto
            116 hlineto
            13 10 13 14 12 -10 13 -13 hvcurveto
            return
          </CharString>
          <CharString index="132">
            487 29 callgsubr
            return
          </CharString>
          <CharString index="133">
            65 54 vvcurveto
            75 57 43 41 30 26 -22 -18 9 vhcurveto
            -19 -7 -15 -23 -25 vvcurveto
            return
          </CharString>
          <CharString index="134">
            16 -37 callsubr
            16 -9 3 callgsubr
            -107 hlineto
            return
          </CharString>
          <CharString index="135">
            -9 rmoveto
            -99 -35 105 88 85 32 118 102 return
          </CharString>
          <CharString index="136">
            395 52 rmoveto
            560 vlineto
            20 -7 6 -19 vhcurveto
            -77 hlineto
            -15 -9 -8 -16 return
          </CharString>
          <CharString index="137">
            57 0 21 callsubr
            return
          </CharString>
          <CharString index="138">
            68 0 52 -35 -21 589 53 return
          </CharString>
          <CharString index="139">
            hlineto
            hintmask 1111110000100000
            -14 -7 -11 -12 -13 7 -11 14 hvcurveto
            hintmask 1111100100100000
            55 return
          </CharString>
          <CharString index="140">
            311 638 rmoveto
            -119 hlineto
            -17 -7 -12 -15 -14 7 -12 17 hvcurveto
            return
          </CharString>
          <CharString index="141">
            8 callgsubr
            59 -49 121 -124 return
          </CharString>
          <CharString index="142">
            hlineto
            -76 callsubr
            return
          </CharString>
          <CharString index="143">
            15 -2 3 -16 vhcurveto
            -74 hlineto
            -12 -9 -13 -13 -13 9 -13 12 hvcurveto
            return
          </CharString>
          <CharString index="144">
            -15 -9 62 callsubr
            105 hlineto
            16 8 11 16 return
          </CharString>
          <CharString index="145">
            46 -46 104 334 52 -52 168 return
          </CharString>
          <CharString index="146">
            rmoveto
            8 12 7 8 5 hvcurveto
            return
          </CharString>
          <CharString index="147">
            95 0 53 532 53 return
          </CharString>
          <CharString index="148">
            141 -123 123 return
          </CharString>
          <CharString index="149">
            hstemhm
            20 103 -58 58 return
          </CharString>
          <CharString index="150">
            15 56 343 56 return
          </CharString>
          <CharString index="151">
            63 callsubr
            179 102 -52 52 -52 104 return
          </CharString>
          <CharString index="152">
            53 hstemhm
            17 107 -57 57 -57 106 142 106 -57 57 -57 return
          </CharString>
          <CharString index="153">
            hstemhm
            10 166 29 106 -58 58 -58 106 36 152 return
          </CharString>
          <CharString index="154">
            -114 -117 42 -42 83 699 84 -42 42 hstemhm
            return
          </CharString>
          <CharString index="155">
            rlineto
            1 3 0 4 2 vvcurveto
            10 return
          </CharString>
          <CharString index="156">
            130 52 rmoveto
            533 24 vlineto
            return
          </CharString>
          <CharString index="157">
            35 32 54 30 hstemhm
            return
          </CharString>
          <CharString index="158">
            362 0 52 91 48 238 48 113 48 return
          </CharString>
          <CharString index="159">
            98 -10 rmoveto
            7 11 6 8 4 hvcurveto
            10 16 rlineto
            return
          </CharString>
          <CharString index="160">
            hstemhm
            20 55 193 127 -52 52 -52 120 return
          </CharString>
          <CharString index="161">
            52 -40 26 -37 1 vhcurveto
            return
          </CharString>
          <CharString index="162">
            hhcurveto
            -2 0 -1 -1 hvcurveto
            return
          </CharString>
          <CharString index="163">
            -21 22 -21 334 -20 21 -20 hstemhm
            hintmask 10010000
            return
          </CharString>
          <CharString index="164">
            17 8 9 17 17 -8 10 -17 hvcurveto
            -105 hlineto
            return
          </CharString>
          <CharString index="165">
            -15 -10 -14 -12 -14 10 -12 15 hvcurveto
            106 hlineto
            return
          </CharString>
          <CharString index="166">
            -1 1 -1 1 34 41 47 60 vhcurveto
            endchar
          </CharString>
          <CharString index="167">
            16 17 13 20 30 -24 35 -61 hvcurveto
            endchar
          </CharString>
          <CharString index="168">
            531 -21 149 -20 hstem
            return
          </CharString>
          <CharString index="169">
            9 callgsubr
            10 -11 14 hvcurveto
            return
          </CharString>
          <CharString index="170">
            64 callgsubr
            -52 99 return
          </CharString>
          <CharString index="171">
            hvcurveto
            117 hlineto
            return
          </CharString>
          <CharString index="172">
            rmoveto
            -16 13 -11 16 15 13 11 16 vhcurveto
            return
          </CharString>
          <CharString index="173">
            hlineto
            -7 callsubr
            -13 7 -10 callgsubr
            return
          </CharString>
          <CharString index="174">
            rmoveto
            15 8 11 14 13 -11 callsubr
            return
          </CharString>
          <CharString index="175">
            hlineto
            -14 -7 -10 -13 -13 7 -10 14 hvcurveto
            return
          </CharString>
          <CharString index="176">
            hlineto
            -14 13 -10 14 14 13 10 14 vhcurveto
            return
          </CharString>
          <CharString index="177">
            119 120 51 74 87 hvcurveto
            endchar
          </CharString>
        <CharString name=".notdef">
          -212 endchar
        </CharString>
        <CharString name="A">
          -29 callsubr
          hstem
          10 149 229 157 vstem
          -107 callsubr
          endchar
        </CharString>
        <CharString name="AE">
          51 callsubr
          54 callgsubr
          hintmask 11111100
          458 -107 callgsubr
          -297 hlineto
          -15 -8 -11 -16 -50 callsubr
          15 hvcurveto
          hintmask 11111010
          -13 callgsubr
          hintmask 11111001
          246 -91 -23 hlineto
          hintmask 11111010
          -32 callsubr
          hintmask 11111001
          219 389 rlineto
          -389 vlineto
          endchar
        </CharString>
        <CharString name="AEacute">
          51 callsubr
          -48 227 54 callgsubr
          hintmask 1111011000000000
          458 -107 callgsubr
          -297 hlineto
          -15 -8 -11 -16 -50 callsubr
          15 hvcurveto
          hintmask 1111010100000000
          -13 callgsubr
          hintmask 1111010010000000
          246 -91 -23 hlineto
          hintmask 1111010100000000
          -32 callsubr
          hintmask 1110110010000000
          219 389 rlineto
          -389 vlineto
          35 477 -84 callgsubr
          -106 callsubr
        </CharString>
        <CharString name="Aacute">
          -29 callsubr
          179 -20 hstem
          10 149 229 157 vstem
          -107 callsubr
          -201 477 -84 callgsubr
          -106 callsubr
        </CharString>
        <CharString name="Abreve">
          -29 callsubr
          55 callgsubr
          10 149 229 157 hintmask 11101110
          -107 callsubr
          -141 481 rmoveto
          -93 callgsubr
          hintmask 11110110
          -93 callsubr
          hintmask 11101110
          -81 callgsubr
        </CharString>
        <CharString name="Acircumflex">
          93 0 52 0 91 0 48 394 53 168 -20 hstem
          10 149 229 157 vstem
          -107 callsubr
          -144 615 -94 callgsubr
          -106 callgsubr
        </CharString>
        <CharString name="Adieresis">
          -29 callsubr
          45 82 hstemhm
          10 149 -39 86 105 86 -9 157 hintmask 11111001
          -107 callsubr
          hintmask 11110110
          -188 532 rmoveto
          -102 callgsubr
          191 hmoveto
          -102 callgsubr
          endchar
        </CharString>
        <CharString name="Agrave">
          -29 callsubr
          179 -20 hstem
          10 149 229 157 vstem
          -107 callsubr
          -97 477 -92 callsubr
          -101 callgsubr
        </CharString>
        <CharString name="Amacron">
          -29 callsubr
          61 49 hstem
          10 149 229 157 vstem
          -107 callsubr
          -55 508 rmoveto
          -91 callgsubr
        </CharString>
        <CharString name="Aogonek">
          93 -172 34 -34 85 87 52 91 48 394 53 hstemhm
          10 149 228 43 -43 138 -138 158 hintmask 0111110100000000
          497 52 rmoveto
          -182 572 rlineto
          9 -3 -13 5 -11 hhcurveto
          -103 hlineto
          -15 -8 -11 -16 -50 callsubr
          15 hvcurveto
          40 hlineto
          -166 -533 rlineto
          -25 hlineto
          -17 -28 callgsubr
          -12 17 hvcurveto
          101 hlineto
          16 -19 callsubr
          50 callgsubr
          -24 hlineto
          28 91 rlineto
          267 hlineto
          29 -91 rlineto
          -23 hlineto
          -16 -8 -11 -15 -38 callgsubr
          39 hlineto
          -31 -19 -33 -33 -44 -76 callgsubr
          hintmask 1011111000000000
          -35 callgsubr
          41 41 32 35 22 hvcurveto
          16 hlineto
          hintmask 1011110010000000
          16 7 12 14 15 -7 11 -16 hvcurveto
          -370 139 rmoveto
          120 390 122 -390 rlineto
          endchar
        </CharString>
        <CharString name="Aring">
          -29 callsubr
          30 30 106 30 hstem
          10 149 3 53 81 45 47 157 vstem
          -107 callsubr
          -224 559 rmoveto
          -82 callgsubr
        </CharString>
        <CharString name="Atilde">
          -29 callsubr
          50 callsubr
          10 149 -52 52 229 157 hintmask 11111101
          -107 callsubr
          hintmask 11111011
          -287 537 rmoveto
          -103 callgsubr
        </CharString>
        <CharString name="B">
          -21 0 45 367 49 133 44 -47 callgsubr
          182 51 6 57 hintmask 11101110
          73 585 rmoveto
          -5 callgsubr
          vlineto
          hintmask 11110110
          -15 -9 -11 -15 -15 10 -11 14 hvcurveto
          132 hlineto
          73 67 13 53 47 hvcurveto
          37 42 21 61 63 vvcurveto
          99 -54 91 -69 16 vhcurveto
          37 10 23 36 45 vvcurveto
          97 -123 12 -74 vhcurveto
          -117 hlineto
          -15 -9 -11 -15 -16 -65 callgsubr
          hintmask 11101110
          81 -124 rmoveto
          125 vlineto
          8 53 0 0 96 33 -26 -44 -52 -47 -11 -62 vhcurveto
          -73 -49 rmoveto
          70 hlineto
          90 79 -50 -126 -61 -17 -53 -31 -31 hvcurveto
          -30 -30 -49 -16 -64 hhcurveto
          -24 -24 2 6 hvcurveto
          endchar
        </CharString>
        <CharString name="C">
          -3 callgsubr
          hstemhm
          15 59 234 98 hintmask 10111000
          -85 callgsubr
          hintmask 11011000
          -79 callsubr
          endchar
        </CharString>
        <CharString name="C_H">
          405 -7 47 -47 60 -32 -21 428 50 38 121 -53 53 -41 41 6 -20 hstemhm
          10 60 319 108 -60 60 -60 107 143 107 -61 61 -61 109 hintmask 0011100010011000
          519 hmoveto
          2 callsubr
          hvcurveto
          hintmask 0101100011000100
          15 -8 12 -17 vhcurveto
          -22 375 236 -375 -22 hlineto
          hintmask 0011100011001000
          -13 -11 -12 -15 -15 11 -11 13 hvcurveto
          106 hlineto
          hintmask 0101100011000010
          15 10 11 15 15 -10 12 -15 hvcurveto
          hintmask 0101010011001000
          -23 531 22 hlineto
          hintmask 1001100011000010
          18 8 12 15 14 -8 12 -18 hvcurveto
          -105 hlineto
          -17 -8 -12 -14 hvcurveto
          hintmask 1001010011000100
          -15 8 -12 17 vhcurveto
          22 -106 -236 106 23 hlineto
          17 8 12 13 16 -10 12 -15 hvcurveto
          -106 hlineto
          -17 -8 -12 14 callgsubr
          -12 17 hvcurveto
          hintmask 1001010010101000
          23 -404 hlineto
          -85 -84 -55 -73 -112 -98 127 172 vhcurveto
          hintmask 1001001011001000
          139 64 118 100 13 17 -2 -5 15 vhcurveto
          -2 -1 3 -1 -2 vhcurveto
          -4 -16 rlineto
          hintmask 1001100011001000
          -22 24 -34 36 27 12 19 24 vhcurveto
          hintmask 1001000111001000
          58 -72 26 -62 -125 -103 -106 -201 -232 137 -111 131 66 59 28 44 38 vhcurveto
          -43 vlineto
          hintmask 0011100011001000
          -17 6 -5 16 vhcurveto
          endchar
        </CharString>
        <CharString name="Cacute">
          -3 callgsubr
          -48 217 hstemhm
          15 59 234 98 hintmask 10101100
          -85 callgsubr
          hintmask 11001100
          -79 callsubr
          -244 497 -84 callgsubr
          hintmask 10011100
          -106 callsubr
        </CharString>
        <CharString name="Ccaron">
          -3 callgsubr
          -48 209 hstemhm
          15 59 234 98 hintmask 10101100
          -85 callgsubr
          hintmask 11001100
          -79 callsubr
          -61 598 -62 callgsubr
          hintmask 10011100
          -105 callsubr
          endchar
        </CharString>
        <CharString name="Ccedilla">
          29 30 callgsubr
          33 49 -49 180 349 128 -48 48 hstemhm
          15 59 158 41 callsubr
          -65 98 -73 40 hintmask 1001010101000000
          250 -27 callgsubr
          hintmask 1001010100010000
          -60 callgsubr
          hintmask 0101010110000000
          -40 callsubr
          hintmask 0010110110000000
          54 callsubr
          33 vlineto
          108 8 82 85 57 vvcurveto
          15 -13 15 -15 -14 -15 -12 -13 -4 vhcurveto
          hintmask 1001001100100000
          -60 -18 -63 -46 -67 hhcurveto
          -130 -73 157 128 160 93 115 100 17 15 -1 -6 14 hvcurveto
          -2 -5 -3 -10 -2 vvcurveto
          hintmask 1001010100100000
          -26 28 -30 32 28 10 21 19 63 -72 25 -63 -126 -130 -110 -221 vhcurveto
          hintmask 1001010101000000
          -205 106 -106 129 -14 vhcurveto
          endchar
        </CharString>
        <CharString name="Ccircumflex">
          -3 callgsubr
          0 28 56 callgsubr
          15 59 234 98 hintmask 10101110
          -85 callgsubr
          hintmask 11001110
          -79 callsubr
          -196 635 -94 callgsubr
          hintmask 10011110
          -106 callgsubr
        </CharString>
        <CharString name="Cdotaccent">
          -3 callgsubr
          56 89 hstemhm
          15 59 143 93 -2 98 hintmask 10111010
          -85 callgsubr
          hintmask 11011010
          -79 callsubr
          hintmask 11011100
          -148 577 -87 callsubr
        </CharString>
        <CharString name="D">
          89 0 45 547 46 -47 callgsubr
          351 55 hintmask 11101000
          130 580 rmoveto
          -54 callgsubr
          hintmask 11011000
          -57 528 rmoveto
          -5 callgsubr
          vlineto
          hintmask 11101000
          -72 callgsubr
          endchar
        </CharString>
        <CharString name="Dcaron">
          89 0 45 547 46 -46 217 -47 callgsubr
          351 55 hintmask 11010100
          130 580 rmoveto
          -54 callgsubr
          hintmask 11001100
          -57 528 rmoveto
          -5 callgsubr
          vlineto
          hintmask 11010100
          -72 callgsubr
          hintmask 10101100
          243 184 -62 callgsubr
          -105 callsubr
          endchar
        </CharString>
        <CharString name="Dcroat">
          89 0 45 238 49 260 46 hstemhm
          13 117 -105 105 -57 57 -57 159 249 55 hintmask 11100101
          73 585 rmoveto
          -253 -38 vlineto
          hintmask 11110001
          -7 callsubr
          -14 7 -10 callgsubr
          hintmask 11100101
          38 -231 -24 hlineto
          hintmask 11101001
          -72 callgsubr
          hintmask 11100101
          159 -302 rmoveto
          hintmask 11100011
          15 8 11 14 13 -11 callsubr
          hintmask 11110001
          -79 248 hlineto
          -54 callgsubr
          226 vlineto
          endchar
        </CharString>
        <CharString name="E">
          -45 callgsubr
          -47 callgsubr
          hintmask 11110000
          130 -107 callgsubr
          -237 hlineto
          -16 -8 -11 -16 -38 callgsubr
          hintmask 11101000
          -59 callsubr
          hintmask 11110000
          -101 callsubr
          endchar
        </CharString>
        <CharString name="Eacute">
          -45 callgsubr
          -48 227 -47 callgsubr
          hintmask 11101000
          130 -107 callgsubr
          -237 hlineto
          -16 -8 -11 -16 -38 callgsubr
          hintmask 11100100
          -59 callsubr
          hintmask 11011000
          -101 callsubr
          -220 616 -84 callgsubr
          -106 callsubr
        </CharString>
        <CharString name="Ebreve">
          -45 callgsubr
          55 callgsubr
          25 105 -57 57 hintmask 11110100
          130 -107 callgsubr
          -237 hlineto
          -16 -8 -11 -16 -38 callgsubr
          hintmask 11110010
          -59 callsubr
          hintmask 11101100
          -101 callsubr
          -163 620 rmoveto
          -93 callgsubr
          hintmask 11110100
          -93 callsubr
          hintmask 11101100
          -81 callgsubr
        </CharString>
        <CharString name="Ecaron">
          -45 callgsubr
          -48 219 -47 callgsubr
          hintmask 11101000
          130 -107 callgsubr
          -237 hlineto
          -16 -8 -11 -16 -38 callgsubr
          hintmask 11100100
          -59 callsubr
          hintmask 11011000
          -101 callsubr
          -56 717 -62 callgsubr
          -105 callsubr
          endchar
        </CharString>
        <CharString name="Ecircumflex">
          -45 callgsubr
          -13 callsubr
          25 105 -57 57 hintmask 11101100
          130 -107 callgsubr
          -237 hlineto
          -16 -8 -11 -16 -38 callgsubr
          hintmask 11101010
          -59 callsubr
          hintmask 11011100
          -101 callsubr
          -174 754 -94 callgsubr
          -106 callgsubr
        </CharString>
        <CharString name="Edieresis">
          -45 callgsubr
          45 82 hstemhm
          25 105 -91 91 -57 57 100 94 hintmask 11111001
          130 -107 callgsubr
          -237 hlineto
          -16 -8 -11 -16 -38 callgsubr
          hintmask 11110011
          -59 callsubr
          hintmask 11111001
          -101 callsubr
          -227 671 rmoveto
          25 -19 17 -25 vhcurveto
          hintmask 11110101
          -24 -18 -17 -25 -21 18 -19 24 25 19 19 21 hvcurveto
          191 hmoveto
          -102 callgsubr
          endchar
        </CharString>
        <CharString name="Edotaccent">
          -45 callgsubr
          66 89 -47 callgsubr
          6 93 hintmask 11111010
          130 -107 callgsubr
          -237 hlineto
          -16 -8 -11 -16 -38 callgsubr
          hintmask 11110110
          -59 callsubr
          hintmask 11111010
          -101 callsubr
          -123 696 -87 callsubr
        </CharString>
        <CharString name="Egrave">
          -45 callgsubr
          -48 227 -47 callgsubr
          hintmask 11101000
          130 -107 callgsubr
          -237 hlineto
          -16 -8 -11 -16 -38 callgsubr
          hintmask 11100100
          -59 callsubr
          hintmask 11011000
          -101 callsubr
          -130 616 -92 callsubr
          -101 callgsubr
        </CharString>
        <CharString name="Emacron">
          -45 callgsubr
          61 49 -1 callgsubr
          219 hintmask 11111000
          130 -107 callgsubr
          -237 hlineto
          -16 -8 -11 -16 -38 callgsubr
          hintmask 11110100
          -59 callsubr
          hintmask 11111000
          -101 callsubr
          -83 647 rmoveto
          hintmask 11110010
          -91 callgsubr
        </CharString>
        <CharString name="Eng">
          68 -127 98 29 52 533 53 63 callsubr
          89 192 -102 102 -52 52 -52 104 hintmask 1111000010000000
          401 585 rmoveto
          -427 vlineto
          -262 464 rlineto
          12 -7 -2 4 -14 hhcurveto
          -67 hlineto
          -16 -8 -13 -14 -71 callsubr
          hintmask 1110101000000000
          -59 callsubr
          hintmask 1111001000000000
          -33 callsubr
          hintmask 1110011000000000
          -18 callgsubr
          hintmask 1111000010000000
          -23 476 hlineto
          276 -477 rlineto
          hintmask 1111000100000000
          -2 -90 -12 -35 -36 -13 rrcurveto
          19 -2 -15 39 -39 hhcurveto
          hintmask 1111001000000000
          -18 -16 -10 -23 -34 35 -31 40 117 0 133 119 hvcurveto
          460 27 vlineto
          hintmask 1111000001000000
          -17 callsubr
          -105 hlineto
          hintmask 1111000100000000
          -15 -9 -11 -16 -16 9 -10 15 hvcurveto
          endchar
        </CharString>
        <CharString name="Eogonek">
          34 -173 34 -34 85 88 9 callsubr
          48 113 48 -47 callgsubr
          126 43 -43 138 hintmask 1011110100000000
          130 -107 callgsubr
          -237 hlineto
          -16 -8 -11 -16 -38 callgsubr
          hintmask 1011101100000000
          -59 callsubr
          hintmask 0111110010000000
          -16 -8 -10 -15 -16 -65 callgsubr
          273 hlineto
          -32 -18 -34 -34 -45 -76 callgsubr
          hintmask 1011110100000000
          -35 callgsubr
          41 43 33 35 22 hvcurveto
          9 hlineto
          13 9 5 8 5 hvcurveto
          72 112 rlineto
          3 5 3 7 4 vvcurveto
          14 -12 4 -6 -8 -7 -4 -3 -3 vhcurveto
          -103 -100 rlineto
          endchar
        </CharString>
        <CharString name="Eth">
          89 0 45 238 49 260 46 hstemhm
          13 117 -105 105 -57 57 -57 159 249 55 hintmask 11100101
          73 585 rmoveto
          -253 -38 vlineto
          hintmask 11110001
          -7 callsubr
          -14 7 -10 callgsubr
          hintmask 11100101
          38 -231 -24 hlineto
          hintmask 11101001
          -72 callgsubr
          hintmask 11100101
          159 -302 rmoveto
          hintmask 11100011
          15 8 11 14 13 -11 callsubr
          hintmask 11110001
          -79 248 hlineto
          -54 callgsubr
          226 vlineto
          endchar
        </CharString>
        <CharString name="Euro">
          85 -10 46 175 54 73 54 132 124 -44 44 hstemhm
          393 95 hintmask 11101100
          516 169 rmoveto
          -14 -14 -9 -14 -3 hvcurveto
          -65 -17 -48 -45 -71 hhcurveto
          -95 -65 81 94 -29 hvcurveto
          143 hlineto
          16 9 12 15 15 -9 12 -16 hvcurveto
          -155 hlineto
          -3 20 -2 20 20 vvcurveto
          13 211 vlineto
          16 9 12 15 15 -9 12 -16 hvcurveto
          -206 hlineto
          126 22 87 86 88 hhcurveto
          18 19 -1 -9 15 hvcurveto
          -3 -5 -1 -6 -5 vvcurveto
          hintmask 11110100
          -25 28 -29 31 25 11 20 18 61 -76 25 -63 -111 -119 -85 -171 -26 vhcurveto
          -37 hlineto
          -16 -9 -12 -15 -15 9 -12 16 hvcurveto
          32 -21 hlineto
          -18 1 -18 1 -16 vhcurveto
          -50 hlineto
          -16 -9 -12 -15 -15 9 -12 16 hvcurveto
          58 hlineto
          -149 33 104 -72 117 hhcurveto
          115 75 91 60 15 -12 13 -14 hvcurveto
          endchar
        </CharString>
        <CharString name="F">
          5 13 callgsubr
          48 113 48 -1 callgsubr
          112 hintmask 11110000
          130 52 rmoveto
          377 218 vlineto
          12 -15 rlineto
          -7 5 9 -5 8 hhcurveto
          16 5 13 9 3 -2 7 -3 5 hvcurveto
          -44 71 rlineto
          8 -5 -11 3 -8 hhcurveto
          -11 -13 -11 -14 -5 3 -8 4 -6 hvcurveto
          -183 113 221 hlineto
          72 -62 rlineto
          -5 5 8 -3 7 hhcurveto
          13 6 9 9 6 -3 6 -4 5 hvcurveto
          -60 70 rlineto
          10 -8 -9 3 -19 hhcurveto
          -310 hlineto
          -16 -8 -11 -16 -38 callgsubr
          hintmask 11101000
          -59 callsubr
          hintmask 11110000
          -75 callgsubr
          111 hlineto
          hintmask 11100100
          18 7 12 15 14 -7 11 -18 hvcurveto
          endchar
        </CharString>
        <CharString name="G">
          20 callgsubr
          2 callgsubr
          hintmask 1110110000000000
          -84 callsubr
          54 52 vlineto
          hintmask 1110100010000000
          -27 callsubr
          hintmask 1110110000000000
          -17 callgsubr
          hintmask 1101100100000000
          -70 callsubr
          hintmask 1110101000000000
          -69 callsubr
          endchar
        </CharString>
        <CharString name="Gbreve">
          20 callgsubr
          24 46 -46 144 2 callgsubr
          hintmask 1110101100000000
          -84 callsubr
          54 52 vlineto
          hintmask 1110101000100000
          -27 callsubr
          hintmask 1110101100000000
          -17 callgsubr
          hintmask 1101101001000000
          -70 callsubr
          hintmask 1110011010000000
          -69 callsubr
          259 357 rmoveto
          -93 callgsubr
          hintmask 1110101100000000
          -93 callsubr
          hintmask 1110011100000000
          -81 callgsubr
        </CharString>
        <CharString name="Gcircumflex">
          86 -10 50 0 229 0 52 0 198 0 129 -48 48 0 28 130 -20 2 callgsubr
          hintmask 1010100111000000
          -84 callsubr
          54 52 vlineto
          hintmask 1010100110001000
          -27 callsubr
          hintmask 1010100111000000
          -17 callgsubr
          hintmask 0101010110010000
          -70 callsubr
          hintmask 1010100110100000
          -69 callsubr
          258 491 -94 callgsubr
          hintmask 1010001111000000
          -106 callgsubr
        </CharString>
        <CharString name="Gcommaaccent">
          86 -20 callsubr
          31 0 50 0 229 52 198 81 48 hstemhm
          15 58 150 101 -57 57 -11 99 -3 57 -57 130 hintmask 1010111100100000
          -84 callsubr
          hintmask 1101111100100000
          54 52 vlineto
          hintmask 1101111010010000
          -27 callsubr
          -17 callgsubr
          -70 callsubr
          hintmask 1101111001000000
          -69 callsubr
          254 -449 -99 callsubr
          vhcurveto
          hintmask 1101111100100000
          -53 callgsubr
        </CharString>
        <CharString name="Gdotaccent">
          20 callgsubr
          56 89 hstemhm
          15 58 154 93 -53 199 -153 99 -3 57 -57 130 hintmask 1110110100000000
          -84 callsubr
          54 52 vlineto
          hintmask 1110111000100000
          -27 callsubr
          hintmask 1110110100000000
          -17 callgsubr
          hintmask 1101111001000000
          -70 callsubr
          hintmask 1110110010000000
          -69 callsubr
          hintmask 1110111001000000
          305 433 -87 callsubr
        </CharString>
        <CharString name="H">
          38 0 52 378 48 107 45 callsubr
          107 hintmask 1111001000000000
          447 52 rmoveto
          -26 533 25 hlineto
          hintmask 1111000010000000
          57 callgsubr
          hintmask 1111001000000000
          -16 -8 -11 -68 callsubr
          hintmask 1111000100000000
          25 -107 -240 107 25 hlineto
          hintmask 1110011000000000
          27 callsubr
          hintmask 1111001000000000
          -17 -21 callsubr
          hintmask 1110101000000000
          25 -533 -26 hlineto
          hintmask 1111000100000000
          -25 callsubr
          hintmask 1111000010000000
          -18 callsubr
          endchar
        </CharString>
        <CharString name="Hbar">
          38 0 52 236 48 96 47 106 45 callsubr
          110 hintmask 1111100001000000
          452 432 rmoveto
          14 8 11 12 13 -8 11 -14 hvcurveto
          hintmask 1111100100000000
          -31 106 25 hlineto
          57 callgsubr
          -16 -8 -11 -68 callsubr
          hintmask 1111100010000000
          25 -106 -240 106 25 hlineto
          hintmask 1111001100000000
          27 callsubr
          hintmask 1111100100000000
          -17 -21 callsubr
          hintmask 1111010100000000
          25 -106 -28 hlineto
          -14 -7 -11 -13 -12 7 -11 14 hvcurveto
          28 -380 -26 hlineto
          hintmask 1111100010000000
          -16 -8 -10 -68 callsubr
          107 hlineto
          -18 callsubr
          -24 236 240 -236 -24 hlineto
          -14 -10 62 callsubr
          107 hlineto
          -18 callsubr
          -26 380 hlineto
          -297 -96 rmoveto
          96 240 -96 vlineto
          endchar
        </CharString>
        <CharString name="Hcircumflex">
          38 0 52 378 48 0 107 0 53 -13 callsubr
          17 107 -57 57 -57 106 142 106 -57 57 -57 107 hintmask 1101011001000000
          447 52 rmoveto
          -26 533 25 hlineto
          hintmask 1101011000010000
          57 callgsubr
          hintmask 1101011001000000
          -16 -8 -11 -68 callsubr
          hintmask 1010111000100000
          25 -107 -240 107 25 hlineto
          hintmask 1101010011000000
          27 callsubr
          hintmask 1101011001000000
          -17 -21 callsubr
          hintmask 1101010101000000
          25 -533 -26 hlineto
          hintmask 1101011000100000
          -25 callsubr
          hintmask 1100111000010000
          -18 callsubr
          -198 754 -94 callgsubr
          -106 callgsubr
        </CharString>
        <CharString name="I">
          -35 callsubr
          40 callgsubr
          hintmask 11010000
          1 callgsubr
          hintmask 11100000
          -75 callgsubr
          115 hlineto
          hintmask 11010000
          -76 callsubr
          hintmask 11100000
          -95 callsubr
          hintmask 11010000
          29 hlineto
          endchar
        </CharString>
        <CharString name="Iacute">
          -35 callsubr
          -53 232 40 callgsubr
          hintmask 11001000
          1 callgsubr
          hintmask 11010000
          -75 callgsubr
          115 hlineto
          hintmask 11001000
          -76 callsubr
          hintmask 11010000
          -95 callsubr
          hintmask 10101000
          29 hlineto
          -24 83 -84 callgsubr
          -106 callsubr
        </CharString>
        <CharString name="Ibreve">
          -35 callsubr
          34 46 -46 144 40 callgsubr
          hintmask 11100100
          1 callgsubr
          hintmask 11101000
          -75 callgsubr
          115 hlineto
          hintmask 11100100
          -76 callsubr
          hintmask 11101000
          -95 callsubr
          hintmask 11010100
          29 hlineto
          30 87 rmoveto
          -93 callgsubr
          hintmask 11101000
          -93 callsubr
          hintmask 11011000
          -81 callgsubr
        </CharString>
        <CharString name="Icircumflex">
          -35 callsubr
          0 38 130 -20 40 callgsubr
          hintmask 11010100
          1 callgsubr
          hintmask 11011000
          -75 callgsubr
          115 hlineto
          hintmask 11010100
          -76 callsubr
          hintmask 11011000
          -95 callsubr
          hintmask 11010100
          29 hlineto
          28 221 -94 callgsubr
          hintmask 10111000
          -106 callgsubr
        </CharString>
        <CharString name="Idieresis">
          -35 callsubr
          45 82 hstemhm
          -31 86 -30 110 -57 57 -57 110 -28 86 hintmask 11110010
          1 callgsubr
          hintmask 11101001
          -75 callgsubr
          115 hlineto
          hintmask 11110010
          -76 callsubr
          hintmask 11101001
          -95 callsubr
          hintmask 11110010
          29 hlineto
          -23 138 rmoveto
          -102 callgsubr
          hintmask 11110101
          191 hmoveto
          -102 callgsubr
          endchar
        </CharString>
        <CharString name="Idotaccent">
          -35 callsubr
          66 89 hstemhm
          25 110 -75 93 -75 110 hintmask 11100100
          1 callgsubr
          hintmask 11110000
          -75 callgsubr
          115 hlineto
          hintmask 11100100
          -76 callsubr
          hintmask 11110000
          -95 callsubr
          hintmask 11100100
          29 hlineto
          hintmask 11101000
          75 163 -87 callsubr
        </CharString>
        <CharString name="Igrave">
          -35 callsubr
          -53 232 40 callgsubr
          hintmask 11001000
          1 callgsubr
          hintmask 11010000
          -75 callgsubr
          115 hlineto
          hintmask 11001000
          -76 callsubr
          hintmask 11010000
          -95 callsubr
          hintmask 10101000
          29 hlineto
          74 83 -92 callsubr
          -101 callgsubr
        </CharString>
        <CharString name="Imacron">
          -35 callsubr
          61 49 40 callgsubr
          hintmask 11101000
          1 callgsubr
          hintmask 11110000
          -75 callgsubr
          115 hlineto
          hintmask 11101000
          -76 callsubr
          hintmask 11110000
          -95 callsubr
          hintmask 11101000
          29 hlineto
          116 114 rmoveto
          -91 callgsubr
        </CharString>
        <CharString name="Iogonek">
          -168 34 -34 85 83 52 533 53 hstemhm
          35 43 -43 138 -95 110 hintmask 01110100
          1 callgsubr
          -75 callgsubr
          43 hlineto
          -29 -19 -28 -32 -41 -76 callgsubr
          hintmask 10110010
          -35 callgsubr
          38 36 31 34 22 hvcurveto
          16 35 callsubr
          hintmask 10111000
          -95 callsubr
          29 hlineto
          endchar
        </CharString>
        <CharString name="Itilde">
          -35 callsubr
          50 callsubr
          -46 60 11 110 -110 235 -182 110 hintmask 11111001
          1 callgsubr
          hintmask 11111100
          -75 callgsubr
          115 hlineto
          hintmask 11111001
          -76 callsubr
          hintmask 11111100
          -95 callsubr
          hintmask 11111001
          29 hlineto
          -124 143 -50 callgsubr
          hintmask 11111010
          33 44 20 46 30 -22 14 -16 -15 -8 -10 -14 -10 6 -12 9 -6 hvcurveto
          -15 -2 -13 -11 -12 hhcurveto
          -14 -14 13 16 -15 hvcurveto
          24 -25 -32 31 -56 hhcurveto
          -33 -44 -20 -41 hvcurveto
          endchar
        </CharString>
        <CharString name="J">
          -101 -10 46 -46 184 411 53 hstemhm
          5 85 78 113 -57 57 -57 112 hintmask 10111000
          33 callsubr
          hintmask 10110100
          25 callgsubr
          hintmask 01111000
          24 callgsubr
          hintmask 10110010
          -19 callgsubr
          -8 12 -17 hvcurveto
          endchar
        </CharString>
        <CharString name="Jcircumflex">
          -101 -10 46 549 53 -13 callsubr
          5 85 78 113 -57 57 -57 112 hintmask 11011100
          33 callsubr
          hintmask 11011010
          25 callgsubr
          24 callgsubr
          hintmask 10111001
          -19 callgsubr
          -8 12 -17 hvcurveto
          -64 168 -94 callgsubr
          -106 callgsubr
        </CharString>
        <CharString name="K">
          56 -28 callsubr
          147 167 -145 165 hintmask 11100100
          -34 callgsubr
          hintmask 11001100
          57 callsubr
          hintmask 11100100
          -16 -8 -14 -13 -14 9 -12 15 hvcurveto
          hintmask 11010100
          -59 callsubr
          hintmask 11100010
          37 callsubr
          16 -8 9 -16 hvcurveto
          -14 callsubr
          endchar
        </CharString>
        <CharString name="Kcommaaccent">
          56 -20 callsubr
          41 -28 callsubr
          29 101 17 167 -145 165 hintmask 1011100110000000
          -34 callgsubr
          hintmask 1101001110000000
          57 callsubr
          hintmask 1101100110000000
          -16 -8 -14 -13 -14 9 -12 15 hvcurveto
          hintmask 1011010110000000
          -59 callsubr
          hintmask 1101100110000000
          37 callsubr
          hvcurveto
          hintmask 1011100101000000
          16 -8 9 -16 vhcurveto
          -14 callsubr
          -235 -186 -99 callsubr
          34 45 50 45 vhcurveto
          hintmask 1101100110000000
          -81 callsubr
          vhcurveto
          endchar
        </CharString>
        <CharString name="L">
          -38 -28 callsubr
          hintmask 11100000
          49 callsubr
          hintmask 11001000
          -32 callgsubr
          hintmask 11100000
          -16 callgsubr
          hintmask 11010000
          -59 callsubr
          hintmask 11100000
          -90 callgsubr
          -103 -142 rlineto
          endchar
        </CharString>
        <CharString name="Lacute">
          -38 -35 callsubr
          -53 232 62 callgsubr
          hintmask 11010000
          49 callsubr
          hintmask 11000100
          -32 callgsubr
          hintmask 11010000
          -16 callgsubr
          hintmask 10101000
          -59 callsubr
          hintmask 11010000
          -90 callgsubr
          -103 -142 rlineto
          -222 616 -66 callsubr
          hintmask 10100100
          -73 callgsubr
          -106 callsubr
        </CharString>
        <CharString name="Lcaron">
          -38 -35 callsubr
          167 -20 62 callgsubr
          hintmask 11110000
          224 765 -62 callgsubr
          -105 callsubr
          29 -623 rmoveto
          533 24 vlineto
          hintmask 11100100
          -32 callgsubr
          hintmask 11110000
          -16 callgsubr
          hintmask 11101000
          -59 callsubr
          hintmask 11110000
          -90 callgsubr
          -103 -142 rlineto
          endchar
        </CharString>
        <CharString name="Lcommaaccent">
          -38 -20 callsubr
          41 -28 callsubr
          -18 101 hintmask 10111001
          49 callsubr
          hintmask 11010010
          -32 callgsubr
          hintmask 11011001
          -16 callgsubr
          hintmask 10110101
          -59 callsubr
          hintmask 11011001
          -90 callgsubr
          hintmask 10111001
          -103 -142 rlineto
          -76 -186 -99 callsubr
          34 45 50 45 vhcurveto
          hintmask 11011001
          -81 callsubr
          vhcurveto
          endchar
        </CharString>
        <CharString name="Ldot">
          -38 0 52 141 96 296 53 62 callgsubr
          16 100 hintmask 11110010
          49 callsubr
          hintmask 11100110
          -32 callgsubr
          hintmask 11110010
          -16 callgsubr
          hintmask 11101010
          -59 callsubr
          hintmask 11110010
          -90 callgsubr
          -103 -142 rlineto
          -39 237 29 callgsubr
          endchar
        </CharString>
        <CharString name="Lslash">
          -38 -28 callsubr
          hintmask 11100000
          130 52 rmoveto
          144 vlineto
          86 98 rlineto
          4 5 2 6 5 vvcurveto
          14 -15 12 -12 -6 -6 -3 -6 -5 vhcurveto
          -48 -55 rlineto
          313 24 vlineto
          hintmask 11001000
          -32 callgsubr
          hintmask 11100000
          -16 callgsubr
          hintmask 11010000
          24 -378 hlineto
          -62 -71 rlineto
          -4 -5 -2 -6 -5 vvcurveto
          -14 14 -11 13 6 5 2 6 5 vhcurveto
          25 28 rlineto
          -79 -24 vlineto
          hintmask 11100000
          -90 callgsubr
          -103 -142 rlineto
          endchar
        </CharString>
        <CharString name="M">
          257 -35 callsubr
          hstemhm
          25 107 -53 53 -53 100 360 105 -57 57 -57 107 hintmask 11100010
          644 52 rmoveto
          533 25 vlineto
          hintmask 11100001
          16 9 11 15 17 -9 19 callgsubr
          -75 hlineto
          -11 -6 -4 -7 -10 hvcurveto
          -205 -150 -245 150 rlineto
          8 -14 -6 3 -17 hhcurveto
          -31 hlineto
          -14 -10 -11 -16 -16 10 -10 14 hvcurveto
          hintmask 11010100
          30 -533 -25 hlineto
          -16 -8 -12 -14 -38 callgsubr
          101 hlineto
          hintmask 11001100
          17 7 12 14 14 -7 12 -17 hvcurveto
          hintmask 11100010
          -23 499 hlineto
          202 -124 rlineto
          -4 7 7 -3 7 hhcurveto
          7 9 4 4 5 hvcurveto
          211 153 rlineto
          -529 -24 vlineto
          hintmask 11100100
          -15 -9 -11 -15 -14 9 -12 15 hvcurveto
          107 hlineto
          hintmask 11100001
          17 7 12 14 15 -7 11 -17 hvcurveto
          endchar
        </CharString>
        <CharString name="N">
          31 callsubr
          44 callsubr
          hintmask 1011001000000000
          -46 callsubr
          hintmask 1011000100000000
          -66 callgsubr
          hintmask 1010101000000000
          -59 callsubr
          hintmask 1011001000000000
          -33 callsubr
          hintmask 1010011000000000
          -18 callgsubr
          hintmask 1011001000000000
          -2 callsubr
          hintmask 0111001000000000
          -40 callgsubr
          hintmask 1011000010000000
          -17 callsubr
          endchar
        </CharString>
        <CharString name="Nacute">
          31 callsubr
          179 -20 64 callgsubr
          226 102 -52 52 -52 104 hintmask 1011101000000000
          -46 callsubr
          hintmask 1011100100000000
          -66 callgsubr
          hintmask 1011011000000000
          -59 callsubr
          hintmask 1011101000000000
          -33 callsubr
          -18 callgsubr
          -2 callsubr
          hintmask 0111101000000000
          -40 callgsubr
          hintmask 1011100010000000
          -17 callsubr
          -268 30 -84 callgsubr
          -106 callsubr
        </CharString>
        <CharString name="Ncaron">
          31 callsubr
          -53 224 44 callsubr
          hintmask 1010100100000000
          -46 callsubr
          hintmask 1010100010000000
          -66 callgsubr
          hintmask 1010010100000000
          -59 callsubr
          hintmask 1010100100000000
          -33 callsubr
          hintmask 1010001100000000
          -18 callgsubr
          hintmask 1010100100000000
          -2 callsubr
          hintmask 0110100100000000
          -40 callgsubr
          hintmask 1010100001000000
          -17 callsubr
          -93 131 -62 callgsubr
          hintmask 1001100100000000
          -105 callsubr
          endchar
        </CharString>
        <CharString name="Ncommaaccent">
          68 -179 -21 200 52 -35 -21 589 53 63 callsubr
          42 101 36 102 -52 52 -52 104 hintmask 1101100110000000
          -46 callsubr
          hintmask 1101100101000000
          -66 callgsubr
          hintmask 1101010110000000
          -59 callsubr
          hintmask 1101100110000000
          -33 callsubr
          hintmask 1101001110000000
          -18 callgsubr
          hintmask 1101100110000000
          -2 callsubr
          hintmask 1011100110000000
          -40 callgsubr
          hintmask 1101100100100000
          -17 callsubr
          -220 -772 -99 callsubr
          -48 callsubr
          vhcurveto
          endchar
        </CharString>
        <CharString name="Ntilde">
          31 callsubr
          35 32 54 30 64 callgsubr
          -13 60 179 67 -17 52 -52 104 hintmask 1011110010000000
          -46 callsubr
          hintmask 1011110001000000
          -66 callgsubr
          hintmask 1011101010000000
          -59 callsubr
          hintmask 1011110010000000
          -33 callsubr
          hintmask 1011100110000000
          -18 callgsubr
          hintmask 1011110010000000
          -2 callsubr
          hintmask 0111110001000000
          -40 callgsubr
          hintmask 1011100100100000
          -17 callsubr
          -368 90 -50 callgsubr
          hintmask 1011100110000000
          33 44 20 46 30 -22 14 -16 -15 -8 -10 -14 -10 6 -12 9 -6 hvcurveto
          -15 -2 -13 -11 -12 hhcurveto
          -14 -14 13 16 -15 hvcurveto
          24 -25 -32 31 -56 hhcurveto
          -33 -44 -20 -41 hvcurveto
          endchar
        </CharString>
        <CharString name="O">
          -26 callgsubr
          hstem
          43 callgsubr
          vstem
          -104 callgsubr
          endchar
        </CharString>
        <CharString name="OE">
          435 -10 48 -48 61 -30 -21 429 47 124 38 10 -20 hstemhm
          15 59 404 53 hintmask 01010111
          531 51 rmoveto
          378 140 vlineto
          3 -4 6 -6 4 -4 rrcurveto
          -7 5 10 -5 8 hhcurveto
          11 8 10 10 6 -1 4 -4 5 hvcurveto
          -45 72 rlineto
          7 -5 -10 4 -7 hhcurveto
          -12 -12 -11 -13 -4 1 -8 4 -9 hvcurveto
          -104 115 144 hlineto
          72 -62 rlineto
          -4 5 9 -5 6 hhcurveto
          10 9 9 10 5 -2 4 -5 6 hvcurveto
          -62 74 rlineto
          hintmask 10011011
          6 -6 -13 4 -12 hhcurveto
          -184 hlineto
          -19 -5 -5 -19 hvcurveto
          -95 vlineto
          hintmask 01010111
          82 -45 -75 47 -84 hhcurveto
          -137 -122 -111 -215 -213 119 -119 140 85 75 46 81 44 hvcurveto
          -98 vlineto
          hintmask 00111011
          -16 3 -3 16 vhcurveto
          290 hlineto
          11 10 6 8 6 hvcurveto
          71 111 rlineto
          3 4 4 8 3 vvcurveto
          14 -12 4 -6 -7 -8 -4 -3 -3 vhcurveto
          hintmask 01011011
          -103 -100 rlineto
          -475 549 rmoveto
          129 75 -147 -127 hvcurveto
          -10 vlineto
          hintmask 10011011
          -129 -71 -149 -133 -131 -73 154 134 139 73 135 131 vhcurveto
          endchar
        </CharString>
        <CharString name="Oacute">
          -26 callgsubr
          -48 217 7 callgsubr
          hintmask 11011000
          -104 callgsubr
          -53 68 -84 callgsubr
          hintmask 10111000
          -106 callsubr
        </CharString>
        <CharString name="Obreve">
          -26 callgsubr
          24 46 -46 144 7 callgsubr
          hintmask 11011100
          -104 callgsubr
          72 vmoveto
          -93 callgsubr
          hintmask 11101100
          -93 callsubr
          hintmask 11011100
          -81 callgsubr
        </CharString>
        <CharString name="Ocircumflex">
          -26 callgsubr
          0 28 130 -20 7 callgsubr
          hintmask 11011100
          -104 callgsubr
          -1 206 -94 callgsubr
          hintmask 10111100
          -106 callgsubr
        </CharString>
        <CharString name="Odieresis">
          -26 callgsubr
          35 82 hstem
          15 58 63 86 105 86 63 59 vstem
          -104 callgsubr
          -53 123 rmoveto
          -102 callgsubr
          191 hmoveto
          -102 callgsubr
          endchar
        </CharString>
        <CharString name="Ograve">
          -26 callgsubr
          -48 217 7 callgsubr
          hintmask 11011000
          -104 callgsubr
          33 68 -92 callsubr
          hintmask 10111000
          -101 callgsubr
        </CharString>
        <CharString name="Ohungarumlaut">
          -26 callgsubr
          -48 217 7 callgsubr
          hintmask 11011000
          -104 callgsubr
          -81 68 -46 callgsubr
          hintmask 10111000
          -98 callsubr
        </CharString>
        <CharString name="Omacron">
          -26 callgsubr
          51 49 hstem
          43 callgsubr
          vstem
          -104 callgsubr
          86 99 rmoveto
          -91 callgsubr
        </CharString>
        <CharString name="Oslash">
          -26 callgsubr
          2 -20 7 callgsubr
          hintmask 10111000
          -45 callsubr
          hintmask 11011000
          -65 callsubr
          endchar
        </CharString>
        <CharString name="Oslashacute">
          -26 callgsubr
          -48 217 -167 -20 7 callgsubr
          hintmask 10011100
          -45 callsubr
          hintmask 11001100
          -65 callsubr
          -254 352 -84 callgsubr
          hintmask 10101100
          -106 callsubr
        </CharString>
        <CharString name="Otilde">
          -26 callgsubr
          25 32 54 30 hstem
          15 58 49 60 294 59 vstem
          -104 callgsubr
          -153 128 rmoveto
          -103 callgsubr
        </CharString>
        <CharString name="P">
          10 0 52 184 47 302 53 -6 callgsubr
          111 217 56 hintmask 11101100
          73 52 rmoveto
          -24 hlineto
          hintmask 11110100
          -17 -28 callgsubr
          -12 17 hvcurveto
          111 hlineto
          hintmask 11101100
          17 7 11 15 15 -7 11 -17 hvcurveto
          hintmask 11110100
          -30 184 93 hlineto
          147 87 93 113 117 -94 79 -126 hvcurveto
          -188 hlineto
          -17 -7 -12 -15 -71 callsubr
          hintmask 11101100
          24 hlineto
          hintmask 11110100
          57 -302 rmoveto
          297 vlineto
          11 41 2 38 vhcurveto
          33 hlineto
          83 76 -58 -93 -86 -63 -73 -99 hvcurveto
          endchar
        </CharString>
        <CharString name="Q">
          123 -129 102 17 48 52 98 -45 45 412 48 hstemhm
          15 58 404 58 -36 81 hintmask 11101101
          505 -129 rmoveto
          43 32 32 36 22 -14 12 -16 -25 -24 -29 -26 -2 hvcurveto
          -20 2 -11 35 -15 48 -16 51 rcurveline
          hintmask 11101110
          56 51 42 94 125 vvcurveto
          211 -119 113 -141 -141 -119 -113 -213 -210 119 -122 139 42 34 11 18 36 vhcurveto
          -76 25 37 -72 58 hhcurveto
          -229 729 rmoveto
          138 63 -142 -137 -84 -20 -77 -41 -51 hvcurveto
          49 -21 -45 30 -45 hhcurveto
          -56 -36 -38 -32 -18 12 -10 13 17 5 16 13 4 hvcurveto
          hintmask 11011110
          14 4 17 10 18 hhcurveto
          43 17 -57 -17 4 hvcurveto
          -18 -26 -31 -13 -37 hhcurveto
          -131 -69 147 140 127 68 148 135 hvcurveto
          endchar
        </CharString>
        <CharString name="R">
          11 callgsubr
          -1 callgsubr
          108 211 83 -70 54 hintmask 1001110010000000
          -33 callgsubr
          hintmask 1001110001000000
          -60 callsubr
          hintmask 1001101010000000
          -59 callsubr
          hintmask 1001110010000000
          -75 callgsubr
          108 hlineto
          hintmask 1001100110000000
          -76 callsubr
          hintmask 1001110010000000
          -14 callgsubr
          hintmask 0011110010000000
          -1 callsubr
          hintmask 0101110010000000
          16 callsubr
          hintmask 1001110001000000
          -61 callgsubr
          endchar
        </CharString>
        <CharString name="Racute">
          11 callgsubr
          -45 224 -47 callgsubr
          262 83 -70 54 hintmask 1001101010000000
          -33 callgsubr
          hintmask 1001101001000000
          -60 callsubr
          hintmask 1001100110000000
          -59 callsubr
          hintmask 1001101010000000
          -75 callgsubr
          108 35 callsubr
          -14 callgsubr
          hintmask 0011101010000000
          -1 callsubr
          hintmask 0101101010000000
          16 callsubr
          hintmask 1001011001000000
          -61 callgsubr
          -327 265 -84 callgsubr
          -106 callsubr
        </CharString>
        <CharString name="Rcaron">
          11 callgsubr
          -45 216 -1 callgsubr
          108 211 83 -70 54 hintmask 1001101001000000
          -33 callgsubr
          hintmask 1001101000100000
          -60 callsubr
          hintmask 1001100101000000
          -59 callsubr
          hintmask 1001101001000000
          -75 callgsubr
          108 hlineto
          hintmask 1001100011000000
          -76 callsubr
          hintmask 1001101001000000
          -14 callgsubr
          hintmask 0011101001000000
          -1 callsubr
          hintmask 0101101001000000
          16 callsubr
          hintmask 1001011000100000
          -61 callgsubr
          -117 366 -62 callgsubr
          -105 callsubr
          endchar
        </CharString>
        <CharString name="Rcommaaccent">
          28 -20 callsubr
          41 0 96 -85 -21 62 114 0 49 378 45 -1 callgsubr
          108 13 101 97 83 -70 54 hintmask 1100101100110000
          -33 callgsubr
          hintmask 1100101100101000
          -60 callsubr
          hintmask 1100101010110000
          -59 callsubr
          hintmask 1100101100110000
          -75 callgsubr
          108 hlineto
          hintmask 1100101001110000
          -76 callsubr
          hintmask 1001101100110000
          -14 callgsubr
          -1 callsubr
          hintmask 1010011100110000
          16 callsubr
          hintmask 1100011100101000
          -61 callgsubr
          -165 -537 -99 callsubr
          -48 callsubr
          vhcurveto
          endchar
        </CharString>
        <CharString name="S">
          20 callsubr
          4 callgsubr
          hintmask 10010111
          -89 callsubr
          hintmask 10100111
          -96 callsubr
          hintmask 01101011
          17 callgsubr
          endchar
        </CharString>
        <CharString name="Sacute">
          20 callsubr
          -40 208 4 callgsubr
          hintmask 1001001110000000
          -89 callsubr
          hintmask 1010001110000000
          -96 callsubr
          hintmask 0100110110000000
          17 callgsubr
          145 525 -84 callgsubr
          -106 callsubr
        </CharString>
        <CharString name="Scaron">
          20 callsubr
          -40 200 4 callgsubr
          hintmask 1001001110000000
          -89 callsubr
          hintmask 1010001110000000
          -96 callsubr
          hintmask 0100110110000000
          17 callgsubr
          318 626 -62 callgsubr
          -105 callsubr
          endchar
        </CharString>
        <CharString name="Scedilla">
          -59 -200 30 691 128 -40 40 hstemhm
          10 99 -56 56 50 41 callsubr
          -68 98 -70 40 34 59 hintmask 1101001001000000
          177 -27 callgsubr
          hintmask 1101000011000000
          -60 callgsubr
          17 -9 15 -15 1 vhcurveto
          hintmask 1010110001000000
          -22 -6 -20 -13 -27 27 -23 36 45 33 36 43 52 -40 26 -37 1 hvcurveto
          32 vlineto
          91 10 79 64 112 vvcurveto
          109 -77 50 -62 42 vhcurveto
          -51 34 rlineto
          -44 29 -50 38 47 vvcurveto
          41 37 43 51 18 14 -5 -12 6 vhcurveto
          hintmask 1100100101000000
          -2 -6 -1 -6 -5 vvcurveto
          -96 callsubr
          24 -16 20 -21 vhcurveto
          hintmask 1101001001000000
          -26 -31 -29 -48 -72 73 -71 94 -10 hvcurveto
          endchar
        </CharString>
        <CharString name="Scircumflex">
          -59 -11 44 488 128 -40 40 0 27 130 -20 4 callgsubr
          hintmask 1010101110000000
          -89 callsubr
          hintmask 1100101110000000
          -96 callsubr
          24 -16 20 -21 vhcurveto
          hintmask 1001110110000000
          -26 -31 -29 -48 hvcurveto
          189 663 -94 callgsubr
          -106 callgsubr
        </CharString>
        <CharString name="Scommaaccent">
          -59 -20 callsubr
          30 0 44 -44 231 389 40 hstemhm
          10 99 -56 56 51 101 -29 98 4 59 hintmask 1010101011000000
          -89 callsubr
          -96 callsubr
          hintmask 1001110101000000
          17 callgsubr
          196 -277 -99 callsubr
          34 45 50 45 vhcurveto
          hintmask 1100110101000000
          -81 callsubr
          vhcurveto
          endchar
        </CharString>
        <CharString name="T">
          69 callgsubr
          6 -20 hstemhm
          146 106 -57 57 -57 107 hintmask 10101001
          39 callgsubr
          hintmask 11001100
          -8 callsubr
          hintmask 11001001
          -76 callsubr
          hintmask 10101100
          -26 538 -9 callsubr
          hintmask 11001100
          -39 callsubr
          hintmask 10010100
          3 callsubr
          hintmask 11001100
          -77 callsubr
          hintmask 10101010
          16 26 rlineto
          endchar
        </CharString>
        <CharString name="Tbar">
          6 0 52 379 49 64 94 -48 48 -48 85 6 -20 hstemhm
          115 137 -106 106 -57 57 -57 107 -107 139 hintmask 1110010000100000
          311 431 67 callsubr
          hintmask 1101011000000000
          -59 110 -9 callsubr
          hintmask 1110011000000000
          -39 callsubr
          hintmask 1100101000000000
          3 callsubr
          hintmask 1110011000000000
          -77 callsubr
          hintmask 1101010010000000
          16 26 rlineto
          135 -110 -58 hlineto
          hintmask 1110011000000000
          -7 callsubr
          -14 7 -10 callgsubr
          hintmask 1110010010000000
          58 -379 -25 hlineto
          hintmask 1110010100000000
          -8 callsubr
          hintmask 1110010001000000
          -76 callsubr
          hintmask 1110011000000000
          -26 379 hlineto
          endchar
        </CharString>
        <CharString name="Tcaron">
          69 callgsubr
          -85 219 hstemhm
          146 106 -57 57 -57 107 hintmask 10100001
          39 callgsubr
          hintmask 11000100
          -8 callsubr
          hintmask 11000001
          -76 callsubr
          hintmask 10100100
          -26 538 -9 callsubr
          hintmask 11000100
          -39 callsubr
          hintmask 10010100
          3 callsubr
          hintmask 11000100
          -77 callsubr
          hintmask 10001010
          16 26 rlineto
          296 179 -62 callgsubr
          -105 callsubr
          endchar
        </CharString>
        <CharString name="Tcommaaccent">
          6 -20 callsubr
          41 0 52 538 48 -48 85 6 -20 hstemhm
          146 106 -69 101 -89 57 -57 107 hintmask 1010100001000000
          39 callgsubr
          hintmask 1100101000000000
          -8 callsubr
          hintmask 1010100001000000
          -76 callsubr
          hintmask 1010101000000000
          -26 538 -9 callsubr
          -39 callsubr
          3 callsubr
          hintmask 1101010010000000
          -77 callsubr
          16 26 rlineto
          169 -724 -99 callsubr
          vhcurveto
          hintmask 1100100100000000
          -53 callgsubr
        </CharString>
        <CharString name="Thorn">
          -9 0 52 92 49 283 47 63 52 hstemhm
          25 106 -57 115 199 55 hintmask 11110110
          74 52 rmoveto
          -26 hlineto
          hintmask 11111010
          -17 callgsubr
          117 hlineto
          hintmask 11110110
          16 8 12 15 14 13 callsubr
          -35 92 103 hlineto
          119 91 74 114 hvcurveto
          5 vlineto
          111 -1 -89 75 -120 hhcurveto
          -103 97 hlineto
          15 -4 3 -14 vhcurveto
          -64 hlineto
          hintmask 11111010
          -16 -7 -12 -15 -14 7 -37 callgsubr
          hintmask 11110110
          26 hlineto
          314 -252 rmoveto
          -91 -72 -50 -81 vhcurveto
          -29 hlineto
          hintmask 11111010
          -23 -52 0 14 hvcurveto
          254 vlineto
          15 39 0 36 vhcurveto
          29 hlineto
          81 72 -51 -91 hvcurveto
          endchar
        </CharString>
        <CharString name="U">
          -20 callgsubr
          -36 callsubr
          hintmask 11100100
          -78 callsubr
          hintmask 11100010
          -86 callgsubr
          hintmask 11001100
          -64 callgsubr
          hintmask 11100100
          -55 callgsubr
          hintmask 11010100
          -87 callgsubr
          hintmask 11100001
          -56 callgsubr
          endchar
        </CharString>
        <CharString name="Uacute">
          -20 callgsubr
          179 -20 42 callsubr
          279 96 -51 51 -51 96 hintmask 11110100
          -78 callsubr
          hintmask 11110010
          -86 callgsubr
          -64 callgsubr
          -55 callgsubr
          hintmask 11101100
          -87 callgsubr
          hintmask 11110001
          -56 callgsubr
          -281 30 -84 callgsubr
          -106 callsubr
        </CharString>
        <CharString name="Ubreve">
          -20 callgsubr
          34 46 -46 144 -36 callsubr
          hintmask 1110100100000000
          -78 callsubr
          hintmask 1110100010000000
          -86 callgsubr
          hintmask 1110001100000000
          -64 callgsubr
          hintmask 1110100100000000
          -55 callgsubr
          hintmask 1110010100000000
          -87 callgsubr
          hintmask 1101100001000000
          -56 callgsubr
          -238 34 rmoveto
          -93 callgsubr
          hintmask 1110100100000000
          -93 callsubr
          hintmask 1101100100000000
          -81 callgsubr
        </CharString>
        <CharString name="Ucircumflex">
          -20 callgsubr
          0 38 130 -20 -36 callsubr
          hintmask 1101100100000000
          -78 callsubr
          hintmask 1101100010000000
          -86 callgsubr
          hintmask 1101001100000000
          -64 callgsubr
          hintmask 1101100100000000
          -55 callgsubr
          hintmask 1101010100000000
          -87 callgsubr
          hintmask 1011100001000000
          -56 callgsubr
          -240 168 -94 callgsubr
          -106 callgsubr
        </CharString>
        <CharString name="Udieresis">
          -20 callgsubr
          45 82 -16 callsubr
          -26 86 105 86 -18 96 -51 51 -51 96 hintmask 1111001010000000
          -78 callsubr
          hintmask 1111001101000000
          -86 callgsubr
          hintmask 1110010101000000
          -64 callgsubr
          hintmask 1111001101000000
          -55 callgsubr
          hintmask 1110101010000000
          -87 callgsubr
          hintmask 1111001100100000
          -56 callgsubr
          -291 85 rmoveto
          -102 callgsubr
          191 hmoveto
          -102 callgsubr
          endchar
        </CharString>
        <CharString name="Ugrave">
          -20 callgsubr
          179 -20 -16 callsubr
          278 51 -51 96 hintmask 11110001
          -78 callsubr
          -86 callgsubr
          hintmask 11100101
          -64 callgsubr
          hintmask 11110001
          -55 callgsubr
          hintmask 11101010
          -87 callgsubr
          hintmask 11110001
          -56 callgsubr
          -186 30 -92 callsubr
          -101 callgsubr
        </CharString>
        <CharString name="Uhungarumlaut">
          -20 callgsubr
          -53 232 -36 callsubr
          hintmask 1101001000000000
          -78 callsubr
          hintmask 1101000100000000
          -86 callgsubr
          hintmask 1100011000000000
          -64 callgsubr
          hintmask 1101001000000000
          -55 callgsubr
          hintmask 1100101000000000
          -87 callgsubr
          hintmask 1101000010000000
          -56 callgsubr
          -313 30 -46 callgsubr
          hintmask 1011001000000000
          -98 callsubr
        </CharString>
        <CharString name="Umacron">
          -20 callgsubr
          61 49 -36 callsubr
          hintmask 1111001000000000
          -78 callsubr
          hintmask 1111000100000000
          -86 callgsubr
          hintmask 1110011000000000
          -64 callgsubr
          hintmask 1111001000000000
          -55 callgsubr
          hintmask 1110101000000000
          -87 callgsubr
          hintmask 1111000010000000
          -56 callgsubr
          -152 61 rmoveto
          -91 callgsubr
        </CharString>
        <CharString name="Uogonek">
          101 -175 34 -34 85 81 49 545 53 -16 callsubr
          46 43 -43 138 49 96 -51 51 -51 96 hintmask 1011100101000000
          -78 callsubr
          hintmask 1011100100100000
          -86 callgsubr
          hintmask 1011001101000000
          -64 callgsubr
          hintmask 1011100101000000
          -55 callgsubr
          hintmask 0111010011000000
          22 -378 hlineto
          -128 93 -81 111 -7 vhcurveto
          -28 -20 -26 -31 -39 -76 callgsubr
          hintmask 1011100101000000
          -35 callgsubr
          39 38 32 34 22 hvcurveto
          101 19 67 87 116 vvcurveto
          368 22 vlineto
          hintmask 1011100100010000
          -56 callgsubr
          endchar
        </CharString>
        <CharString name="Uring">
          -20 callgsubr
          30 30 106 30 -16 callsubr
          27 45 81 45 35 96 -51 51 -51 96 hintmask 1111100111000000
          -78 callsubr
          hintmask 1111100110100000
          -86 callgsubr
          hintmask 1111001111000000
          -64 callgsubr
          hintmask 1111100111000000
          -55 callgsubr
          hintmask 1111010111000000
          -87 callgsubr
          hintmask 1111100110010000
          -56 callgsubr
          -324 112 rmoveto
          -82 callgsubr
        </CharString>
        <CharString name="Utilde">
          -20 callgsubr
          35 32 54 30 -16 callsubr
          -41 60 214 32 13 51 -51 96 hintmask 1111100111000000
          -78 callsubr
          -86 callgsubr
          hintmask 1111001011000000
          -64 callgsubr
          hintmask 1111100111000000
          -55 callgsubr
          hintmask 1111010111000000
          -87 callgsubr
          hintmask 1111100110100000
          -56 callgsubr
          -392 90 rmoveto
          -103 callgsubr
        </CharString>
        <CharString name="V">
          64 9 -21 579 89 -71 53 hstemhm
          10 156 194 156 hintmask 10111000
          33 638 rmoveto
          -14 -9 -12 -16 -14 9 -11 14 hvcurveto
          27 hlineto
          202 -574 rlineto
          -19 7 15 -4 11 hhcurveto
          11 14 5 19 7 hvcurveto
          170 478 rlineto
          hintmask 11011000
          8 21 11 32 24 vvcurveto
          47 -39 42 -49 -42 -26 -18 -35 -17 19 -19 26 17 20 8 13 11 vhcurveto
          12 -3 3 -13 -13 vvcurveto
          -12 -9 -22 -7 -21 vhcurveto
          -152 -437 rlineto
          hintmask 10111000
          -181 518 rlineto
          23 hlineto
          14 10 11 14 16 -10 12 -14 hvcurveto
          endchar
        </CharString>
        <CharString name="W">
          -2 callgsubr
          0 callgsubr
          hintmask 10111100
          -88 callgsubr
          hintmask 11011100
          -85 callsubr
          hintmask 10111100
          -96 callgsubr
          endchar
        </CharString>
        <CharString name="Wacute">
          -2 callgsubr
          179 -20 0 callgsubr
          hintmask 10111110
          -88 callgsubr
          hintmask 11011110
          -85 callsubr
          hintmask 10111110
          -96 callgsubr
          319 83 -84 callgsubr
          -106 callsubr
        </CharString>
        <CharString name="Wcircumflex">
          -2 callgsubr
          0 38 130 -20 0 callgsubr
          hintmask 10101111
          -88 callgsubr
          hintmask 11001111
          -85 callsubr
          hintmask 10101111
          -96 callgsubr
          357 221 -94 callgsubr
          hintmask 10011111
          -106 callgsubr
        </CharString>
        <CharString name="Wdieresis">
          -2 callgsubr
          45 82 hstemhm
          10 148 75 149 -126 86 105 86 33 154 hintmask 1011110110000000
          -88 callgsubr
          hintmask 1101110110000000
          -85 callsubr
          hintmask 1011110110000000
          -96 callgsubr
          hintmask 1101101110000000
          308 138 rmoveto
          -102 callgsubr
          191 hmoveto
          -102 callgsubr
          endchar
        </CharString>
        <CharString name="Wgrave">
          -2 callgsubr
          -53 232 0 callgsubr
          hintmask 10101110
          -88 callgsubr
          hintmask 11001110
          -85 callsubr
          hintmask 10101110
          -96 callgsubr
          383 83 -92 callsubr
          hintmask 10011110
          -101 callgsubr
        </CharString>
        <CharString name="X">
          32 0 52 534 52 hstemhm
          10 156 -119 162 83 154 -121 159 hintmask 11100100
          100 586 rmoveto
          117 -228 -156 -306 rlineto
          -27 hlineto
          -16 -8 -11 -15 32 callgsubr
          14 10 12 14 15 -10 11 -14 hvcurveto
          -25 hlineto
          127 250 126 -250 rlineto
          -21 hlineto
          -16 -8 -11 -15 -38 callgsubr
          112 hlineto
          15 -19 callsubr
          15 -11 callsubr
          -27 hlineto
          -157 307 117 227 rlineto
          29 hlineto
          hintmask 11011000
          14 9 11 15 13 -9 13 -14 hvcurveto
          -107 hlineto
          -14 -10 -13 -13 -15 10 -11 14 hvcurveto
          24 hlineto
          -89 -173 -87 173 rlineto
          21 hlineto
          14 10 11 15 13 -10 13 -14 hvcurveto
          -115 hlineto
          -14 -9 -13 -13 -15 9 -11 14 hvcurveto
          endchar
        </CharString>
        <CharString name="Y">
          40 callsubr
          46 callsubr
          hintmask 11101010
          -100 callgsubr
          hintmask 11110010
          -21 callgsubr
          hintmask 11100110
          -3 callsubr
          endchar
        </CharString>
        <CharString name="Yacute">
          40 callsubr
          179 -20 hstemhm
          10 166 29 106 -58 58 84 152 hintmask 11110110
          -100 callgsubr
          hintmask 11111010
          -21 callgsubr
          -3 callsubr
          -81 615 -84 callgsubr
          -106 callsubr
        </CharString>
        <CharString name="Ycircumflex">
          40 callsubr
          0 38 130 -20 46 callsubr
          hintmask 1101101010000000
          -100 callgsubr
          hintmask 1101110010000000
          -21 callgsubr
          hintmask 1101100110000000
          -3 callsubr
          hintmask 1011110010000000
          -58 753 -94 callgsubr
          -106 callgsubr
        </CharString>
        <CharString name="Ydieresis">
          40 callsubr
          45 82 hstemhm
          10 166 -36 86 -21 106 -58 58 -58 106 -28 86 -22 152 hintmask 1111001001000000
          -100 callgsubr
          hintmask 1111010010000000
          -21 callgsubr
          hintmask 1111000101000000
          -3 callsubr
          hintmask 1111010010000000
          hintmask 1110101010000000
          -109 670 rmoveto
          -102 callgsubr
          191 hmoveto
          -102 callgsubr
          endchar
        </CharString>
        <CharString name="Ygrave">
          40 callsubr
          179 -20 hstemhm
          10 166 77 58 -58 106 36 152 hintmask 11111010
          -100 callgsubr
          -21 callgsubr
          hintmask 11110110
          -3 callsubr
          hintmask 11111010
          -24 615 -92 callsubr
          -101 callgsubr
        </CharString>
        <CharString name="Z">
          15 callsubr
          hstemhm
          40 88 266 96 hintmask 1001101000110000
          434 141 rmoveto
          hintmask 1010100101110000
          -97 callsubr
          hintmask 1010101000110000
          -51 callgsubr
          hintmask 0101010110110000
          -95 callgsubr
          hintmask 1001101000110000
          -23 callsubr
          endchar
        </CharString>
        <CharString name="Zacute">
          15 callsubr
          189 -20 hstemhm
          40 88 266 96 hintmask 1001101000111000
          434 141 rmoveto
          hintmask 1010100101111000
          -97 callsubr
          hintmask 1010101000111000
          -51 callgsubr
          hintmask 0101010110111000
          -95 callgsubr
          hintmask 1001101000111000
          -23 callsubr
          -187 527 -84 callgsubr
          -106 callsubr
        </CharString>
        <CharString name="Zcaron">
          -44 callgsubr
          199 -161 -20 hstemhm
          40 88 266 96 hintmask 1001101000110000
          434 141 rmoveto
          hintmask 1010100101110000
          -97 callsubr
          hintmask 1010101000110000
          -51 callgsubr
          hintmask 0101010110110000
          -95 callgsubr
          hintmask 1001100110110000
          -23 callsubr
          -35 628 -62 callgsubr
          -105 callsubr
          endchar
        </CharString>
        <CharString name="Zdotaccent">
          15 callsubr
          76 89 hstemhm
          40 88 98 93 75 96 hintmask 1001101000111100
          434 141 rmoveto
          hintmask 1010100101111100
          -97 callsubr
          hintmask 1010101000111100
          -51 callgsubr
          hintmask 0101010110111100
          -95 callgsubr
          hintmask 1001101000111100
          -23 callsubr
          -115 607 -87 callsubr
        </CharString>
        <CharString name="a">
          -38 callsubr
          -7 callgsubr
          55 hintmask 11101100
          -92 callgsubr
          hintmask 11110100
          -105 callgsubr
          endchar
        </CharString>
        <CharString name="aacute">
          -38 callsubr
          -40 207 -7 callgsubr
          55 hintmask 11100110
          -92 callgsubr
          hintmask 11101010
          -105 callgsubr
          -49 476 -84 callgsubr
          hintmask 11011010
          -106 callsubr
        </CharString>
        <CharString name="abreve">
          -38 callsubr
          22 46 -46 144 1 callsubr
          -65 65 191 55 hintmask 1111001010000000
          -92 callgsubr
          hintmask 1110110010000000
          -105 callgsubr
          480 vmoveto
          -93 callgsubr
          hintmask 1111010010000000
          -93 callsubr
          hintmask 1110100110000000
          -81 callgsubr
        </CharString>
        <CharString name="acircumflex">
          -28 -10 44 255 47 0 116 -115 155 0 26 130 -20 -7 callgsubr
          55 hintmask 1101010110000000
          -92 callgsubr
          hintmask 1010111010000000
          17 8 23 17 42 hhcurveto
          97 30 -84 -81 hvcurveto
          35 -36 -51 14 -38 hhcurveto
          -99 -75 -80 -99 -94 68 -73 103 73 50 37 41 21 hvcurveto
          -42 16 31 -36 32 hhcurveto
          14 11 9 14 15 -13 8 -4 2 hvcurveto
          -35 25 -13 37 193 vvcurveto
          hintmask 1101011010000000
          -97 callgsubr
          -6 614 -94 callgsubr
          hintmask 1100111010000000
          -106 callgsubr
        </CharString>
        <CharString name="acute">
          -331 61 callsubr
          13 510 -84 callgsubr
          -106 callsubr
        </CharString>
        <CharString name="adieresis">
          -38 callsubr
          33 82 1 callsubr
          -79 96 105 86 -17 55 hintmask 1111010100000000
          -92 callgsubr
          hintmask 1111100010000000
          -105 callgsubr
          hintmask 1111001100000000
          -56 531 rmoveto
          -102 callgsubr
          191 hmoveto
          -102 callgsubr
          endchar
        </CharString>
        <CharString name="ae">
          46 callgsubr
          36 4 -90 callsubr
          endchar
        </CharString>
        <CharString name="aeacute">
          46 callgsubr
          207 -167 -90 callsubr
          -296 180 -84 callgsubr
          -106 callsubr
        </CharString>
        <CharString name="agrave">
          -38 callsubr
          -40 207 -7 callgsubr
          55 hintmask 11100110
          -92 callgsubr
          hintmask 11101010
          -105 callgsubr
          42 476 -92 callsubr
          hintmask 11011010
          -101 callgsubr
        </CharString>
        <CharString name="amacron">
          -38 callsubr
          49 49 -7 callgsubr
          55 hintmask 11110110
          -92 callgsubr
          hintmask 11111010
          -105 callgsubr
          81 507 rmoveto
          -91 callgsubr
        </CharString>
        <CharString name="ampersand">
          134 -11 43 414 44 hstemhm
          25 48 -48 182 -52 213 -45 45 153 50 hintmask 11010110
          152 -11 rmoveto
          45 48 14 27 40 hvcurveto
          -21 31 35 -20 51 hhcurveto
          125 44 115 101 hvcurveto
          4 vlineto
          116 -73 88 -44 20 vhcurveto
          3 -7 -8 3 -8 hhcurveto
          -13 -10 -9 -14 -15 10 -7 6 -3 hvcurveto
          44 -26 53 -44 -116 vvcurveto
          -92 -27 -81 -92 -30 -25 9 15 -25 vhcurveto
          62 55 47 71 24 53 rrcurveto
          3 6 2 6 8 vvcurveto
          12 -5 12 -16 -11 -5 -6 -11 -6 vhcurveto
          -54 -98 -20 -33 -52 -43 -43 40 -36 68 -5 64 rrcurveto
          hintmask 11101010
          72 42 89 41 71 vvcurveto
          42 -30 34 -49 -86 -48 -106 -96 vhcurveto
          -7 vlineto
          -42 -27 -88 -54 -97 vvcurveto
          -77 54 -37 73 vhcurveto
          9 241 rmoveto
          11 -64 34 -65 44 -42 rrcurveto
          -17 -29 -39 -13 -31 hhcurveto
          -52 -26 35 42 60 55 39 33 25 hvcurveto
          125 216 rmoveto
          hintmask 11100110
          20 17 -12 -19 -32 -51 -40 -68 -38 hvcurveto
          53 7 21 88 54 hhcurveto
          endchar
        </CharString>
        <CharString name="aogonek">
          -28 -170 34 -34 85 75 44 255 47 1 155 -40 40 -7 callgsubr
          35 -35 55 -55 130 hintmask 1011100110000000
          -92 callgsubr
          hintmask 0111011000100000
          17 8 23 17 42 hhcurveto
          97 30 -84 -81 hvcurveto
          35 -36 -51 14 -38 hhcurveto
          -99 -75 -80 -99 -94 68 -73 103 73 50 37 41 21 hvcurveto
          10 -26 15 -24 18 -14 rrcurveto
          -32 -18 -35 -34 -46 -76 callgsubr
          hintmask 1011101010000000
          -35 callgsubr
          34 28 28 30 21 hvcurveto
          2 hlineto
          14 11 9 14 15 -13 8 -4 2 hvcurveto
          hintmask 1011101001000000
          -35 25 -13 37 193 vvcurveto
          -97 callgsubr
          endchar
        </CharString>
        <CharString name="approxequal">
          -65 85 36 62 36 41 36 62 36 hstem
          15 66 233 65 vstem
          15 322 rmoveto
          -33 20 -22 22 17 7 11 13 14 -7 13 -12 7 vhcurveto
          21 2 22 59 callgsubr
          35 -36 66 hhcurveto
          33 60 17 57 1 hvcurveto
          36 -20 17 -22 -15 -8 -11 -14 -12 6 -16 11 -6 vhcurveto
          -21 -1 -22 -11 -18 hhcurveto
          -16 -18 16 17 -17 hvcurveto
          31 -29 -32 34 -68 hhcurveto
          -34 -61 -16 -56 hvcurveto
          3 -175 rmoveto
          -33 20 -22 22 16 7 11 14 13 -7 14 -11 6 vhcurveto
          21 1 23 59 callgsubr
          34 -36 67 hhcurveto
          33 60 17 57 1 hvcurveto
          37 -20 16 -22 -15 -8 -11 -13 -13 6 -15 11 -7 vhcurveto
          -21 -1 -23 -11 -18 hhcurveto
          -15 -18 16 17 -17 hvcurveto
          31 -30 -31 34 -69 hhcurveto
          -33 -61 -16 -56 hvcurveto
          endchar
        </CharString>
        <CharString name="aring">
          -38 callsubr
          18 30 106 30 1 callsubr
          -19 45 81 45 39 55 hintmask 1111101011000000
          -92 callgsubr
          hintmask 1111110111000000
          -105 callgsubr
          -92 558 rmoveto
          -82 callgsubr
        </CharString>
        <CharString name="asciicircum">
          -158 526 -21 153 -20 hstem
          152 658 rmoveto
          -131 -107 rlineto
          -7 -6 -4 -8 -5 vvcurveto
          -13 11 -14 14 7 6 2 6 8 vhcurveto
          96 79 96 -79 rlineto
          -6 8 6 -2 8 hhcurveto
          13 11 14 12 6 -2 7 -9 7 hvcurveto
          endchar
        </CharString>
        <CharString name="asciitilde">
          -28 167 40 69 40 hstem
          15 73 259 72 vstem
          15 236 rmoveto
          -37 22 -24 25 18 8 12 15 15 -8 15 -13 7 vhcurveto
          24 2 25 13 20 hhcurveto
          17 20 -17 -20 20 hvcurveto
          -32 32 38 -40 74 hhcurveto
          37 66 19 63 1 hvcurveto
          41 -22 18 -24 -17 -9 -12 -15 -14 7 -17 12 -7 vhcurveto
          -24 -1 -25 -12 -20 hhcurveto
          -17 -20 18 19 -19 hvcurveto
          34 -33 -35 38 -76 hhcurveto
          -37 -68 -18 -62 hvcurveto
          endchar
        </CharString>
        <CharString name="asterisk">
          -165 375 186 -71 148 hstemhm
          48 200 -135 70 hintmask 10100000
          131 525 rmoveto
          -5 -4 -51 30 rlineto
          6 -9 -14 4 -9 hhcurveto
          -19 -14 -16 -18 -21 21 -14 24 -1 hvcurveto
          61 -2 2 -6 -51 -41 rlineto
          -12 -9 -7 -15 -14 vvcurveto
          -18 13 -11 17 16 18 10 19 7 vhcurveto
          26 59 rlineto
          7 hlineto
          25 -57 rlineto
          -18 7 17 -13 18 hhcurveto
          17 12 12 17 13 -7 16 -12 10 hvcurveto
          -50 40 2 6 62 2 rlineto
          24 1 20 16 19 vvcurveto
          18 -13 16 -20 -11 -13 -4 -6 -9 vhcurveto
          -50 -30 -6 4 16 59 rlineto
          hintmask 01010000
          1 4 1 4 4 vvcurveto
          23 -15 19 -20 -20 -15 -19 -23 -4 1 -4 1 -4 vhcurveto
          endchar
        </CharString>
        <CharString name="at">
          221 -125 39 -39 124 50 58 -46 46 328 46 118 45 hstemhm
          25 59 93 55 170 104 22 50 hintmask 1001111111000000
          329 599 rmoveto
          122 73 -87 -103 4 hvcurveto
          46 -43 -60 26 -55 hhcurveto
          -105 -88 -94 -122 -113 76 -91 117 81 54 48 54 31 hvcurveto
          hintmask 0110111111000000
          -56 21 36 -58 34 hhcurveto
          20 11 17 15 10 -6 4 -11 6 hvcurveto
          -1 -1 0 -2 2 hvcurveto
          -54 35 -8 45 -1 241 rrcurveto
          138 -1 -112 86 -136 hhcurveto
          -188 -116 -177 -209 -237 156 -146 166 71 88 28 56 22 -12 18 -28 -33 -31 -27 -27 -5 2 -7 3 -6 hvcurveto
          hintmask 1010111111000000
          -11 -22 -29 -2 -11 hhcurveto
          -141 -120 156 195 142 67 192 178 hvcurveto
          49 -164 rmoveto
          83 61 -62 -95 1 hvcurveto
          -1 -11 rlineto
          -88 -67 -72 -78 -84 -61 69 95 92 60 72 86 vhcurveto
          endchar
        </CharString>
        <CharString name="atilde">
          -38 callsubr
          23 32 54 30 22 callsubr
          67 -67 79 191 55 hintmask 1111100110000000
          -92 callgsubr
          hintmask 1111110010000000
          -105 callgsubr
          -145 536 rmoveto
          22 callgsubr
          vhcurveto
          hintmask 1111101010000000
          -55 callsubr
          hvcurveto
          15 2 14 10 12 hhcurveto
          21 14 -14 -18 16 hvcurveto
          -25 23 26 -29 56 hhcurveto
          33 44 20 46 30 -22 14 -16 -15 -8 -10 -14 -10 6 -12 9 -6 hvcurveto
          -15 -2 -13 -11 -12 hhcurveto
          -14 -14 13 16 -15 hvcurveto
          24 -25 -32 31 -56 hhcurveto
          -33 -44 -20 -41 hvcurveto
          endchar
        </CharString>
        <CharString name="b">
          -10 -7 45 399 45 103 52 hstemhm
          10 100 -52 52 -52 105 214 55 hintmask 11100110
          252 482 rmoveto
          -64 -48 -35 -42 -26 hvcurveto
          180 26 vlineto
          15 8 14 13 13 -8 12 -15 hvcurveto
          -108 hlineto
          hintmask 11110010
          -15 -7 -12 -13 -13 7 -14 15 hvcurveto
          hintmask 11101010
          26 -343 hlineto
          -160 72 -89 113 122 67 104 140 138 -66 107 -114 vhcurveto
          -6 -444 rmoveto
          -72 -64 59 136 119 50 85 86 101 30 -116 -85 -85 -31 -113 -100 hvcurveto
          endchar
        </CharString>
        <CharString name="backslash">
          -104 11 -21 660 -20 hstem
          324 -10 rmoveto
          17 12 13 14 4 -1 4 -2 5 hvcurveto
          -292 605 rlineto
          9 -4 -10 6 -11 hhcurveto
          -15 -13 -12 -14 -4 1 -5 2 -4 hvcurveto
          291 -606 rlineto
          -8 5 12 -7 8 hhcurveto
          endchar
        </CharString>
        <CharString name="bar">
          51 callgsubr
          -124 rmoveto
          14 13 10 14 hvcurveto
          826 vlineto
          14 -13 10 -14 -14 -13 -10 -14 vhcurveto
          -826 vlineto
          -14 13 -10 14 vhcurveto
          endchar
        </CharString>
        <CharString name="braceleft">
          47 callsubr
          102 66 -66 246 hintmask 01101000
          308 -34 rmoveto
          hintmask 10011000
          -24 -21 -19 -22 -1 hvcurveto
          -67 2 -27 77 189 vvcurveto
          61 -41 56 -49 6 vhcurveto
          49 8 41 53 61 vvcurveto
          191 26 76 68 2 vhcurveto
          hintmask 01100100
          -23 2 20 -19 24 hhcurveto
          19 21 10 27 26 -23 21 -48 -108 -67 -156 -195 -36 -37 -40 -34 -5 -1 -5 -2 -3 1 -3 5 34 37 -41 -34 -191 64 -160 111 47 24 21 26 25 -22 11 -18 hvcurveto
          endchar
        </CharString>
        <CharString name="braceright">
          47 callsubr
          0 246 -66 66 hintmask 10101000
          40 -34 rmoveto
          -18 -22 -11 -25 -26 24 -21 47 111 64 160 191 34 37 41 34 5 1 3 3 2 -1 5 -5 -34 -37 40 36 195 -67 156 -108 -48 -23 -21 -26 -27 21 -10 19 hvcurveto
          hintmask 10010100
          24 20 19 23 2 hvcurveto
          68 -2 26 -76 -191 vvcurveto
          -61 41 -53 49 -8 vhcurveto
          -49 -6 -41 -56 -61 vvcurveto
          -189 -27 -77 -67 -2 vhcurveto
          hintmask 01101000
          22 -1 -21 19 -24 hhcurveto
          endchar
        </CharString>
        <CharString name="bracketleft">
          -260 -127 50 777 50 hstemhm
          25 54 -54 172 hintmask 11100000
          79 -77 rmoveto
          777 95 vlineto
          hintmask 11010000
          14 9 10 14 14 -9 12 -14 hvcurveto
          -149 -877 150 hlineto
          60 callgsubr
        </CharString>
        <CharString name="bracketright">
          -260 -127 50 777 50 hstemhm
          5 172 -54 54 hintmask 11100000
          27 -77 rmoveto
          -14 -8 -10 -14 -50 callsubr
          14 hvcurveto
          150 877 -149 hlineto
          -14 -9 -12 -14 -14 9 -10 14 hvcurveto
          hintmask 11010000
          95 -777 hlineto
          endchar
        </CharString>
        <CharString name="breve">
          -187 514 42 callgsubr
          hintmask 01000000
          138 514 rmoveto
          -93 callgsubr
          hintmask 10000000
          -93 callsubr
          hintmask 01000000
          -81 callgsubr
        </CharString>
        <CharString name="brokenbar">
          51 callgsubr
          391 rmoveto
          8 callsubr
          -515 vmoveto
          8 callsubr
          endchar
        </CharString>
        <CharString name="bullet">
          -182 243 136 hstem
          70 140 vstem
          139 379 rmoveto
          -38 -31 -27 -42 -40 31 -27 38 40 31 27 40 42 -31 27 -40 hvcurveto
          endchar
        </CharString>
        <CharString name="c">
          -4 callsubr
          hstemhm
          20 56 hintmask 10110000
          -75 callsubr
          hintmask 11010000
          -77 callgsubr
          endchar
        </CharString>
        <CharString name="c_h">
          268 0 46 302 121 -45 45 -30 46 100 67 callgsubr
          198 56 hintmask 1010110110000000
          -15 callsubr
          hintmask 1100110110000000
          -42 callsubr
          209 hlineto
          hintmask 1001111010000000
          79 47 99 75 62 14 -62 -37 vhcurveto
          -288 -24 vlineto
          -19 -7 -14 -12 -13 7 -13 19 hvcurveto
          109 hlineto
          13 10 13 13 12 -10 14 -13 hvcurveto
          -29 284 hlineto
          71 -33 78 -93 -76 -32 -51 -40 -20 vhcurveto
          223 27 callgsubr
        </CharString>
        <CharString name="c_k">
          276 0 46 302 121 -45 45 116 67 callgsubr
          110 162 -98 160 hintmask 1011101100000000
          -15 callsubr
          hintmask 1101101010000000
          -42 callsubr
          -62 callsubr
          hintmask 1101110100000000
          -41 callgsubr
          308 27 callgsubr
        </CharString>
        <CharString name="cacute">
          -4 callsubr
          -45 214 hstemhm
          20 56 hintmask 10101000
          -75 callsubr
          hintmask 11001000
          -77 callgsubr
          -194 373 -84 callgsubr
          hintmask 10011000
          -106 callsubr
        </CharString>
        <CharString name="caron">
          -200 542 -21 130 -20 hstem
          253 611 -62 callgsubr
          -105 callsubr
          endchar
        </CharString>
        <CharString name="ccaron">
          -4 callsubr
          -45 206 hstemhm
          20 56 hintmask 10101000
          -75 callsubr
          hintmask 11001000
          -77 callgsubr
          -15 474 -62 callgsubr
          hintmask 10011000
          -105 callsubr
          endchar
        </CharString>
        <CharString name="ccedilla">
          -82 30 callgsubr
          -158 236 334 120 -45 45 hstemhm
          20 56 99 41 callsubr
          -40 40 hintmask 1000101010000000
          193 -27 callgsubr
          hintmask 1000101001000000
          -60 callgsubr
          hintmask 0100101100000000
          -40 callsubr
          hintmask 0010101100000000
          54 callsubr
          33 vlineto
          94 9 47 77 33 vvcurveto
          22 -22 5 -10 -17 -9 -13 -11 -5 vhcurveto
          hintmask 0001011100000000
          -28 -13 -26 -49 -58 hhcurveto
          -81 -63 86 122 120 61 81 72 8 11 -3 -4 9 hvcurveto
          hintmask 1000101010000000
          -35 1 20 -33 28 hhcurveto
          22 13 18 24 49 -56 29 -57 -109 -79 -105 -143 -131 66 -104 107 -15 hvcurveto
          endchar
        </CharString>
        <CharString name="ccircumflex">
          -4 callsubr
          0 28 56 callgsubr
          20 56 hintmask 10101100
          -75 callsubr
          hintmask 11001100
          -77 callgsubr
          -144 511 -94 callgsubr
          hintmask 10011100
          -106 callgsubr
        </CharString>
        <CharString name="cdotaccent">
          -4 callsubr
          56 89 hstemhm
          20 56 87 93 hintmask 10111100
          -75 callsubr
          hintmask 11011100
          -77 callgsubr
          -92 453 -87 callsubr
        </CharString>
        <CharString name="cedilla">
          -321 30 callgsubr
          44 -20 hstemhm
          0 41 callsubr
          -40 40 hintmask 10010100
          18 -27 callgsubr
          hintmask 10010010
          -60 callgsubr
          hintmask 01011000
          -40 callsubr
          hintmask 00110100
          54 callsubr
          44 -46 vlineto
          endchar
        </CharString>
        <CharString name="cent">
          -70 -82 -21 93 45 -45 145 226 121 76 -20 hstemhm
          15 57 122 43 -43 174 -174 193 hintmask 1011111000000000
          215 -103 rmoveto
          11 11 8 11 hvcurveto
          74 vlineto
          hintmask 1011110010000000
          104 6 46 79 34 vvcurveto
          22 -18 4 -10 -16 -10 -10 -13 -5 vhcurveto
          hintmask 1101111000000000
          -11 -28 -22 -45 -58 -4 rrcurveto
          408 vlineto
          11 28 -2 -6 8 hvcurveto
          -1 -5 0 -5 -6 vvcurveto
          -32 25 -26 24 vhcurveto
          hintmask 1101110100000000
          25 11 16 23 hvcurveto
          hintmask 1101111000000000
          56 -71 26 -60 vhcurveto
          57 vlineto
          11 -11 8 -11 -11 -10 -8 -11 vhcurveto
          -56 vlineto
          -103 -17 -76 -100 -125 vvcurveto
          -132 76 -103 103 -16 vhcurveto
          -74 vlineto
          -11 10 -8 11 vhcurveto
          -143 345 rmoveto
          99 56 81 66 18 vhcurveto
          -403 vlineto
          -64 13 -58 93 99 vvcurveto
          endchar
        </CharString>
        <CharString name="circumflex">
          -200 539 -21 130 -20 hstem
          130 648 -94 callgsubr
          -106 callgsubr
        </CharString>
        <CharString name="colon">
          -322 -6 96 301 96 hstem
          15 100 vstem
          64 25 callsubr
          -397 vmoveto
          -74 callsubr
          endchar
        </CharString>
        <CharString name="comma">
          -320 -75 167 -98 98 hstemhm
          10 107 hintmask 01100000
          117 32 15 callgsubr
          hintmask 10100000
          59 callsubr
        </CharString>
        <CharString name="commaaccent">
          -361 -20 callsubr
          -20 hstem
          0 101 vstem
          46 -134 -99 callsubr
          -48 callsubr
          vhcurveto
          endchar
        </CharString>
        <CharString name="copyright">
          195 -11 40 63 41 305 116 -40 40 60 39 hstemhm
          20 51 76 50 390 50 hintmask 11011111
          463 227 rmoveto
          -17 -6 -13 -9 -3 hvcurveto
          -26 -10 -28 -46 -60 hhcurveto
          -80 -62 84 111 110 61 76 70 8 14 -1 -6 7 hvcurveto
          -1 -5 0 -5 -5 vvcurveto
          hintmask 11101111
          -26 19 -28 29 20 16 14 25 49 -59 28 -55 -103 -76 -97 -134 -130 72 -101 118 104 50 78 33 20 -19 4 -9 vhcurveto
          -128 -198 rmoveto
          -156 -108 119 177 170 106 119 -43 callsubr
        </CharString>
        <CharString name="d">
          16 63 callgsubr
          102 52 53 callsubr
          hintmask 10111100
          29 callsubr
          -16 9 -12 15 hvcurveto
          47 -179 -41 callsubr
          hintmask 01111001
          -14 5 -6 14 vhcurveto
          84 36 callgsubr
          hintmask 10111100
          -233 28 callsubr
          hvcurveto
          hintmask 10111010
          28 callgsubr
          endchar
        </CharString>
        <CharString name="dagger">
          -220 -103 -21 550 48 callgsubr
          hintmask 11110000
          148 426 rmoveto
          59 hlineto
          hintmask 11100100
          -67 callsubr
          hintmask 11110000
          -59 247 hlineto
          14 -13 10 -14 vhcurveto
          hintmask 11101000
          -14 -13 -10 -14 hvcurveto
          -247 -60 vlineto
          hintmask 11110000
          -70 callgsubr
          60 -526 69 callsubr
          endchar
        </CharString>
        <CharString name="daggerdbl">
          -220 -103 -21 262 53 235 48 callgsubr
          hintmask 11110010
          207 138 rmoveto
          -67 callsubr
          hintmask 11111000
          -59 235 59 hlineto
          hintmask 11110010
          -67 callsubr
          hintmask 11111000
          -59 247 hlineto
          14 -13 10 -14 vhcurveto
          hintmask 11110100
          -14 -13 -10 -14 hvcurveto
          -247 -60 vlineto
          hintmask 11111000
          -70 callgsubr
          hintmask 11110100
          60 -235 -60 hlineto
          hintmask 11111000
          -70 callgsubr
          hintmask 11110100
          60 -238 69 callsubr
          238 vlineto
          endchar
        </CharString>
        <CharString name="dcaron">
          57 63 callgsubr
          10 144 -138 -20 106 52 4 -20 53 callsubr
          -36 92 hintmask 1011000110010000
          29 callsubr
          hvcurveto
          hintmask 1010010110010000
          -16 9 -12 15 vhcurveto
          47 -179 -41 callsubr
          hintmask 0111000100100000
          -14 5 -6 14 vhcurveto
          84 36 callgsubr
          hintmask 1011000110010000
          -233 28 callsubr
          hvcurveto
          hintmask 1000110101010000
          28 callgsubr
          261 511 rmoveto
          -6 0 -6 -1 -2 vhcurveto
          -20 -6 -16 -20 -6 55 callsubr
          hintmask 1011000110010000
          -3 5 -1 2 32 41 47 43 vhcurveto
          hintmask 1010001110010000
          25 -16 33 -36 -22 -18 -20 -23 -24 22 -15 21 -3 vhcurveto
          endchar
        </CharString>
        <CharString name="dcroat">
          14 63 callgsubr
          16 48 38 52 hstemhm
          20 55 196 124 -52 52 -52 118 hintmask 1011111000000000
          395 52 rmoveto
          448 43 vlineto
          hintmask 1011110010000000
          15 8 11 13 13 -11 callsubr
          hintmask 1011111000000000
          -43 64 hlineto
          20 -7 6 -19 vhcurveto
          -74 hlineto
          -15 -9 -8 -16 -16 9 -12 15 hvcurveto
          44 -38 -44 66 callsubr
          44 -93 -41 callsubr
          hintmask 0111111000000000
          -14 5 -6 14 vhcurveto
          80 36 callgsubr
          hintmask 1011110100000000
          -229 28 callsubr
          28 callgsubr
          endchar
        </CharString>
        <CharString name="degree">
          -171 432 38 240 37 hstem
          15 53 154 54 vstem
          276 589 rmoveto
          84 -39 74 -92 -90 -40 -77 -81 -84 40 -73 90 93 38 72 85 vhcurveto
          -208 hmoveto
          79 26 42 51 51 26 -49 -72 -72 -24 -47 -53 -50 -27 48 71 vhcurveto
          endchar
        </CharString>
        <CharString name="dieresis">
          -185 525 82 hstem
          0 86 105 86 vstem
          86 565 rmoveto
          -102 callgsubr
          191 hmoveto
          -102 callgsubr
          endchar
        </CharString>
        <CharString name="divide">
          -210 87 82 43 53 56 82 hstem
          81 86 vstem
          212 212 rmoveto
          -67 callsubr
          -173 hlineto
          -70 callgsubr
          84 191 rmoveto
          33 callgsubr
          -234 vmoveto
          33 callgsubr
          endchar
        </CharString>
        <CharString name="dollar">
          -58 -66 -21 84 222 303 126 71 -20 hstemhm
          15 90 -55 55 77 47 39 92 -22 51 hintmask 1111101010000000
          206 -87 rmoveto
          12 11 8 13 hvcurveto
          64 vlineto
          85 10 75 58 106 vvcurveto
          104 -72 57 -88 55 vhcurveto
          220 vlineto
          16 -2 18 -5 9 -9 rrcurveto
          hintmask 1111011100000000
          -3 -5 -1 -7 -5 vvcurveto
          -26 25 -27 31 22 14 15 22 47 -65 40 -66 2 vhcurveto
          50 vlineto
          13 -11 8 -12 -13 -11 -8 -13 vhcurveto
          -51 vlineto
          -76 -8 -56 -58 -75 vvcurveto
          -73 54 -57 78 -46 vhcurveto
          -293 vlineto
          -45 4 -48 16 -12 60 rrcurveto
          19 12 9 26 20 vvcurveto
          25 -15 19 -20 vhcurveto
          hintmask 1111101010000000
          -25 -30 -29 -49 -76 72 -62 95 -6 hvcurveto
          -63 vlineto
          -13 11 -8 13 vhcurveto
          132 248 rmoveto
          -63 -43 -51 -66 -10 vhcurveto
          265 vlineto
          57 -32 52 -39 -70 vvcurveto
          -236 360 rmoveto
          43 36 35 44 9 vhcurveto
          -191 vlineto
          -28 17 -52 34 53 vvcurveto
          endchar
        </CharString>
        <CharString name="dotaccent">
          -369 546 89 hstem
          0 93 vstem
          93 590 -87 callsubr
        </CharString>
        <CharString name="dotlessi">
          7 callsubr
          hstemhm
          30 -12 callsubr
          hintmask 11001000
          -57 callgsubr
          hintmask 11010000
          -14 -11 -14 -12 -14 11 -12 14 hvcurveto
          106 hlineto
          17 -19 callsubr
          12 -8 14 -17 hvcurveto
          hintmask 11100000
          -88 callsubr
          endchar
        </CharString>
        <CharString name="e">
          -78 -10 -29 callgsubr
          hstemhm
          20 56 vstemhm
          -98 callgsubr
          hintmask 11110000
          -100 callsubr
          endchar
        </CharString>
        <CharString name="eacute">
          -78 -10 45 -45 -29 callgsubr
          -44 213 hstemhm
          20 56 hintmask 01110100
          -98 callgsubr
          -100 callsubr
          -61 520 -84 callgsubr
          hintmask 10101100
          -106 callsubr
        </CharString>
        <CharString name="ebreve">
          -78 -10 45 -45 -29 callgsubr
          24 42 callgsubr
          20 56 hintmask 01111010
          -98 callgsubr
          hintmask 01110110
          -100 callsubr
          -8 524 rmoveto
          -93 callgsubr
          hintmask 10111010
          -93 callsubr
          hintmask 10110110
          -81 callgsubr
        </CharString>
        <CharString name="ecaron">
          -78 -10 45 -45 -29 callgsubr
          -44 205 hstemhm
          20 56 hintmask 01110100
          -98 callgsubr
          -100 callsubr
          119 621 -62 callgsubr
          hintmask 10101100
          -105 callsubr
          endchar
        </CharString>
        <CharString name="ecircumflex">
          -78 -10 45 102 145 0 50 0 114 44 28 56 callgsubr
          20 56 hintmask 11011110
          -98 callgsubr
          -32 -16 -25 -46 -59 hhcurveto
          -82 -63 87 123 15 0 9 2 13 hvcurveto
          280 hlineto
          8 callgsubr
          hvcurveto
          hintmask 10101110
          59 -49 121 -124 -115 -76 -103 -144 -147 79 -106 122 vhcurveto
          -10 658 -94 callgsubr
          -106 callgsubr
        </CharString>
        <CharString name="edieresis">
          -78 -10 45 -45 -29 callgsubr
          35 82 hstemhm
          20 56 -9 86 105 86 hintmask 01111101
          -98 callgsubr
          -100 callsubr
          hintmask 10111011
          -68 575 rmoveto
          -102 callgsubr
          191 hmoveto
          -102 callgsubr
          endchar
        </CharString>
        <CharString name="edotaccent">
          -78 -10 -29 callgsubr
          56 89 hstemhm
          20 56 87 93 vstemhm
          -98 callgsubr
          hintmask 11111100
          -100 callsubr
          35 600 -87 callsubr
        </CharString>
        <CharString name="egrave">
          -78 -10 45 -45 -29 callgsubr
          -44 213 hstemhm
          20 56 hintmask 01110100
          -98 callgsubr
          -100 callsubr
          38 520 -92 callsubr
          hintmask 10101100
          -101 callgsubr
        </CharString>
        <CharString name="eight">
          -86 -10 40 476 85 -85 143 hstemhm
          20 46 1 46 43 67 34 42 5 52 hintmask 11011111
          195 422 rmoveto
          -35 26 -47 35 38 vvcurveto
          24 20 15 23 vhcurveto
          -29 14 -25 22 20 11 20 17 28 -31 20 -38 -53 -34 -40 -49 -50 36 -45 35 -31 vhcurveto
          -46 -36 -72 -61 -108 vvcurveto
          -118 85 -63 84 90 77 73 114 81 -38 62 -86 72 vhcurveto
          45 46 22 47 46 vvcurveto
          hintmask 10111111
          76 -62 42 -58 -18 -7 -4 -11 -13 10 -2 8 -1 vhcurveto
          36 -5 49 -9 -69 vvcurveto
          -38 -15 -29 -47 -46 vhcurveto
          -8 -392 rmoveto
          -66 -55 65 74 76 57 62 51 36 hvcurveto
          56 -37 74 -67 -81 vvcurveto
          -70 -55 -58 -62 vhcurveto
          endchar
        </CharString>
        <CharString name="ellipsis">
          -23 -9 94 hstem
          15 98 61 99 53 98 vstem
          63 85 rmoveto
          34 callgsubr
          159 hmoveto
          -26 -22 -19 -29 -27 22 -19 26 29 22 19 27 29 -22 19 -29 hvcurveto
          152 hmoveto
          34 callgsubr
          endchar
        </CharString>
        <CharString name="emacron">
          -78 -10 -29 callgsubr
          51 49 hstemhm
          20 56 vstemhm
          -98 callgsubr
          hintmask 11111000
          -100 callsubr
          74 551 rmoveto
          -91 callgsubr
        </CharString>
        <CharString name="emdash">
          -21 213 53 hstem
          411 213 rmoveto
          -67 callsubr
          -382 hlineto
          -70 callgsubr
          endchar
        </CharString>
        <CharString name="endash">
          -107 213 53 hstem
          310 213 rmoveto
          -67 callsubr
          -266 hlineto
          -70 callgsubr
          endchar
        </CharString>
        <CharString name="eng">
          57 -127 98 29 21 callsubr
          -7 -20 hstemhm
          25 120 -56 56 99 197 -56 56 hintmask 1110010010000000
          385 334 rmoveto
          -286 12 callgsubr
          hintmask 1110010100000000
          -5 callsubr
          204 vlineto
          76 -29 82 -111 -64 -59 -44 -57 -34 vhcurveto
          75 vlineto
          hintmask 1100110100000000
          -44 callsubr
          hvcurveto
          hintmask 1110001100000000
          -82 callsubr
          -29 203 hlineto
          hintmask 1101010010000000
          111 84 74 71 75 10 -66 -40 vhcurveto
          endchar
        </CharString>
        <CharString name="eogonek">
          -78 -175 34 423 50 114 44 hstemhm
          20 56 66 43 -43 138 hintmask 11110100
          383 110 rmoveto
          21 -18 6 -12 -17 -10 -14 -10 -5 vhcurveto
          -32 -16 -25 -46 -59 hhcurveto
          -82 -63 87 123 15 0 9 2 13 hvcurveto
          280 hlineto
          34 callsubr
          -115 -76 -103 -144 -138 69 -101 108 -12 hvcurveto
          -28 -20 -27 -31 -40 -76 callgsubr
          -1 -2 -2 -1 -5 hhcurveto
          hintmask 11111000
          -22 -13 19 24 38 36 31 34 22 hvcurveto
          87 15 41 71 31 vvcurveto
          -294 222 rmoveto
          48 13 39 66 69 hhcurveto
          71 40 -70 -44 10 callgsubr
        </CharString>
        <CharString name="equal">
          -210 161 53 56 53 hstem
          15 222 vstem
          212 270 rmoveto
          -67 callsubr
          -173 hlineto
          -70 callgsubr
          173 -109 rmoveto
          -67 callsubr
          -173 hlineto
          -70 callgsubr
          endchar
        </CharString>
        <CharString name="eth">
          -53 -7 45 390 45 15 155 -40 40 hstemhm
          15 55 -24 79 212 52 hintmask 11010110
          375 590 rmoveto
          9 3 4 6 8 vvcurveto
          11 -8 13 -12 -2 -3 -1 -1 -3 vhcurveto
          -60 -26 rlineto
          26 -30 -37 14 -43 hhcurveto
          -83 -61 -50 -55 hvcurveto
          hintmask 11100110
          -24 12 -26 26 24 17 27 24 8 -6 15 -3 7 vhcurveto
          hintmask 11011010
          17 8 23 17 42 hhcurveto
          24 21 -8 -12 18 hvcurveto
          -64 -27 rlineto
          -8 -3 -4 -7 -7 vvcurveto
          -11 8 -13 11 2 3 1 1 3 vhcurveto
          82 35 rlineto
          37 -46 15 -62 -48 vvcurveto
          42 -26 -52 35 -64 hhcurveto
          -114 -66 -103 -138 -140 67 -99 122 113 72 84 160 hvcurveto
          18 vlineto
          209 -18 51 -41 56 vhcurveto
          -129 -533 rmoveto
          -100 -31 108 85 85 30 112 101 86 50 -81 -119 -136 -64 -54 -72 hvcurveto
          endchar
        </CharString>
        <CharString name="exclam">
          -300 -7 92 564 -20 hstemhm
          25 97 -80 60 hintmask 11010000
          72 133 rmoveto
          12 6 6 12 1 hvcurveto
          23 457 rlineto
          5 vlineto
          25 -20 11 -22 -24 -18 -16 -20 vhcurveto
          -5 vlineto
          24 -457 rlineto
          -12 1 9 -6 8 hhcurveto
          -48 vmoveto
          hintmask 11100000
          -25 -22 -19 -28 -26 22 -19 25 27 23 19 26 28 -23 19 -27 hvcurveto
          endchar
        </CharString>
        <CharString name="exclamdbl">
          -88 -4 96 558 -20 hstemhm
          50 100 -84 66 92 100 -84 66 hintmask 11010100
          99 133 -10 callsubr
          hintmask 11100100
          -74 callsubr
          174 41 -10 callsubr
          hintmask 11011000
          -74 callsubr
          endchar
        </CharString>
        <CharString name="exclamdown">
          -265 14 -21 564 92 hstemhm
          50 97 -80 60 hintmask 11010000
          97 509 rmoveto
          -8 -9 -6 -12 -1 hvcurveto
          -24 -457 rlineto
          -5 vlineto
          -20 18 -16 24 22 20 11 25 vhcurveto
          5 vlineto
          -23 457 rlineto
          12 -1 -6 6 -12 hhcurveto
          48 vmoveto
          hintmask 11100000
          27 23 19 28 26 -23 19 -27 -25 -22 -19 -26 -28 22 -19 25 hvcurveto
          endchar
        </CharString>
        <CharString name="f">
          -183 13 callgsubr
          47 58 98 hstemhm
          25 110 -110 165 -111 56 -56 200 hintmask 11110000
          194 632 rmoveto
          -50 -58 -51 -105 -4 hvcurveto
          -36 hlineto
          -14 -7 -11 -13 -11 7 -12 14 hvcurveto
          hintmask 11100100
          33 -377 -28 hlineto
          hintmask 11101000
          24 callsubr
          hintmask 11110000
          -32 377 48 hlineto
          13 9 12 11 13 -9 11 -13 hvcurveto
          -51 hlineto
          2 56 23 56 32 3 rrcurveto
          -23 3 20 -34 34 hhcurveto
          hintmask 11100010
          60 callsubr
        </CharString>
        <CharString name="five">
          -45 -11 34 -34 231 213 43 78 37 -37 128 hstemhm
          20 92 -70 49 136 100 -4 69 hintmask 1011001010000000
          42 400 rmoveto
          -16 11 -11 15 9 12 4 15 17 vhcurveto
          9 8 rlineto
          15 17 23 18 41 hhcurveto
          94 33 -95 -103 -107 -36 -105 -93 -50 -45 30 65 -13 hvcurveto
          hintmask 0111010010000000
          17 11 9 25 18 vvcurveto
          27 -21 21 -22 -23 -26 -21 -46 -72 67 -92 110 123 72 117 134 148 -87 88 -111 vhcurveto
          hintmask 1010101100000000
          -43 -29 -13 -27 -31 hvcurveto
          138 vlineto
          -10 22 32 -10 39 hhcurveto
          79 64 40 50 30 -23 8 -17 -29 -31 -25 -23 -7 3 -6 5 -5 hvcurveto
          hintmask 1011001100000000
          -15 -6 -8 -10 -33 hhcurveto
          -57 -38 31 7 -9 hvcurveto
          4 -5 -7 1 -6 hhcurveto
          -22 -2 -17 -13 hvcurveto
          endchar
        </CharString>
        <CharString name="florin">
          59 -121 37 -37 96 451 53 64 94 hstemhm
          hintmask 10110000
          399 426 rmoveto
          16 9 12 15 13 -9 12 -15 1 hvcurveto
          -54 hlineto
          11 64 31 47 28 9 rrcurveto
          -22 1 19 -34 36 hhcurveto
          26 18 17 25 26 -25 26 -58 -73 -52 -65 -93 -25 hvcurveto
          -59 hlineto
          -70 callgsubr
          47 hlineto
          -62 -302 rlineto
          -104 -21 -37 -104 -46 hhcurveto
          hintmask 01110000
          20 -2 -15 39 -39 hhcurveto
          -26 -18 -17 -28 -29 31 -22 41 129 40 134 145 31 hvcurveto
          57 268 rlineto
          endchar
        </CharString>
        <CharString name="four">
          -39 0 50 86 50 478 -20 hstemhm
          211 111 -52 52 -52 112 -112 148 hintmask 11101000
          322 185 rmoveto
          447 vlineto
          22 -15 10 -15 -14 -13 -10 -9 -5 vhcurveto
          -251 -476 rlineto
          -2 -4 -2 -4 -5 vvcurveto
          -17 13 -3 17 vhcurveto
          235 -86 -37 hlineto
          hintmask 11110000
          -15 -7 -10 -15 -14 7 -10 callgsubr
          126 hlineto
          hintmask 11100100
          15 8 11 14 15 -8 10 -15 hvcurveto
          hintmask 11110000
          -37 86 74 hlineto
          hintmask 11100010
          14 8 11 14 12 -8 12 -14 hvcurveto
          hintmask 11110000
          -330 1 rmoveto
          hintmask 11101000
          204 389 rlineto
          -389 vlineto
          endchar
        </CharString>
        <CharString name="fraction">
          -207 2 -21 675 -20 hstem
          11 9 rmoveto
          -1 -3 0 -2 -2 vvcurveto
          -12 11 -9 14 12 11 8 8 2 vhcurveto
          184 630 48 callsubr
          -9 10 -17 -8 -9 -7 -9 -3 vhcurveto
          endchar
        </CharString>
        <CharString name="franc">
          15 0 50 94 47 240 45 117 45 hstemhm
          25 108 -54 54 -54 111 -111 148 hintmask 11111000
          133 50 rmoveto
          94 71 vlineto
          hintmask 11110001
          15 8 10 14 12 -11 callsubr
          hintmask 11111000
          -71 240 224 hlineto
          12 -16 rlineto
          -7 5 9 -4 6 hhcurveto
          13 6 12 8 5 -2 4 -3 5 hvcurveto
          -43 72 rlineto
          8 -5 -10 3 -8 hhcurveto
          -12 -11 -11 -13 -4 1 -6 4 -5 hvcurveto
          4 -6 rlineto
          -190 117 227 hlineto
          72 -61 rlineto
          -4 5 6 -4 7 hhcurveto
          10 7 9 8 4 -1 4 -6 7 hvcurveto
          -65 74 rlineto
          6 -7 -6 2 -13 hhcurveto
          -323 hlineto
          -14 -28 callgsubr
          -10 14 hvcurveto
          hintmask 11110100
          33 -397 -29 hlineto
          -15 -7 -11 -12 -14 7 -10 15 hvcurveto
          29 -94 -24 hlineto
          -7 callsubr
          -14 7 -12 15 hvcurveto
          113 hlineto
          hintmask 11110010
          15 7 12 14 13 -7 3 callgsubr
          endchar
        </CharString>
        <CharString name="g">
          -31 callsubr
          21 callgsubr
          hintmask 1011101101000000
          4 callsubr
          hintmask 1101101011000000
          -74 callgsubr
          hintmask 1101011101000000
          41 callgsubr
          hintmask 1101011100100000
          -48 callgsubr
          hintmask 1011101101000000
          -86 callsubr
          hvcurveto
          hintmask 1101101011000000
          32 -20 45 -76 vhcurveto
          -64 callsubr
          endchar
        </CharString>
        <CharString name="gbreve">
          -31 callsubr
          -73 46 -46 144 21 callgsubr
          hintmask 1011101011010000
          4 callsubr
          hintmask 1101101010110000
          -74 callgsubr
          hintmask 1101010011010000
          41 callgsubr
          hintmask 1101010011001000
          -48 callgsubr
          hintmask 1011101011010000
          -86 callsubr
          hvcurveto
          hintmask 1101100110110000
          32 -20 45 -76 vhcurveto
          -64 callsubr
          -141 52 rmoveto
          -93 callgsubr
          hintmask 1101101011010000
          -93 callsubr
          hintmask 1101100111010000
          -81 callgsubr
        </CharString>
        <CharString name="gcircumflex">
          -31 callsubr
          71 -20 21 callgsubr
          hintmask 1011101110100000
          4 callsubr
          hintmask 1101101101100000
          -74 callgsubr
          hintmask 1101011110100000
          41 callgsubr
          hintmask 1101011110010000
          -48 callgsubr
          hintmask 1011101110100000
          -86 callsubr
          hvcurveto
          hintmask 1101101101100000
          32 -20 45 -76 vhcurveto
          -64 callsubr
          -160 196 -94 callgsubr
          -106 callgsubr
        </CharString>
        <CharString name="gcommaaccent">
          20 -113 41 72 52 60 43 293 42 -2 100 -67 144 hstemhm
          15 52 92 66 -47 89 80 49 2 52 -52 84 hintmask 1110101101100000
          395 540 rmoveto
          41 callgsubr
          hintmask 1110101101010000
          -48 callgsubr
          hintmask 1111011101100000
          -86 callsubr
          32 -20 45 -76 hvcurveto
          -64 callsubr
          -111 -308 rmoveto
          -78 1 -91 57 92 vvcurveto
          85 76 58 83 85 87 -61 -90 -77 -64 -65 -98 vhcurveto
          -11 449 rmoveto
          17 vlineto
          20 6 15 19 7 hhcurveto
          2 0 1 1 2 -4 1 -4 hvcurveto
          hintmask 1111011011100000
          -31 -38 -45 -42 -25 16 -32 33 21 19 20 22 hvcurveto
          hintmask 1111011101100000
          23 -21 16 -21 2 vhcurveto
          72 -676 rmoveto
          -41 -28 28 44 -3 hvcurveto
          3 24 29 1 12 hhcurveto
          43 14 -13 -21 -22 -14 -20 -36 hvcurveto
          endchar
        </CharString>
        <CharString name="gdotaccent">
          -31 callsubr
          -42 89 hstemhm
          15 52 92 237 -202 93 60 49 2 52 -52 84 hintmask 1011101110010000
          4 callsubr
          hintmask 1101101101110000
          -74 callgsubr
          hintmask 1101010110010000
          41 callgsubr
          hintmask 1101010110001000
          -48 callgsubr
          hintmask 1011101110010000
          -86 callsubr
          hvcurveto
          hintmask 1101101101110000
          32 -20 45 -76 vhcurveto
          -64 callsubr
          -60 127 -87 callsubr
        </CharString>
        <CharString name="germandbls">
          1 0 21 -21 52 -52 127 -117 -21 301 73 84 44 53 101 -42 42 hstemhm
          74 56 81 87 14 49 40 52 hintmask 0100111011110000
          74 52 rmoveto
          -23 hlineto
          -16 -10 -15 -12 -13 10 -12 16 hvcurveto
          105 hlineto
          17 7 12 13 12 -7 15 -17 hvcurveto
          -26 268 hlineto
          51 70 76 56 32 24 -25 -27 -14 -6 -18 -7 -9 vhcurveto
          6 -13 -17 3 -12 hhcurveto
          -28 -18 -15 -19 -20 20 -18 28 -1 hvcurveto
          17 25 7 13 13 hvcurveto
          47 -23 40 -66 -79 vvcurveto
          hintmask 1000111011110000
          -37 -9 -84 -61 -16 -17 6 12 -8 vhcurveto
          4 8 4 12 10 vvcurveto
          hintmask 0010111011110000
          22 -21 36 -29 -22 -14 -19 -28 vhcurveto
          hintmask 0001110111110000
          -58 59 -33 56 89 37 85 76 83 -44 75 -70 28 vhcurveto
          11 12 11 31 25 vvcurveto
          59 -60 28 -46 -52 -48 -35 -36 -25 vhcurveto
          12 vlineto
          127 71 42 65 2 vhcurveto
          hintmask 0100111011110000
          -27 2 43 -32 26 hhcurveto
          14 21 9 24 42 -59 26 -54 -102 -83 -93 -141 hvcurveto
          endchar
        </CharString>
        <CharString name="grave">
          -331 61 callsubr
          118 510 -92 callsubr
          -101 callgsubr
        </CharString>
        <CharString name="greater">
          -272 146 -21 230 -20 hstem
          57 348 rmoveto
          5 -5 -5 2 -6 hhcurveto
          -7 -7 -4 -5 -5 hvcurveto
          -5 -5 -2 -6 -6 vvcurveto
          -6 2 -6 5 -4 vhcurveto
          73 -73 -73 -73 rlineto
          -5 -5 -2 -6 -5 vvcurveto
          -6 3 -6 5 -5 vhcurveto
          -5 5 7 -4 7 hhcurveto
          5 5 2 5 5 hvcurveto
          108 108 rlineto
          endchar
        </CharString>
        <CharString name="greaterequal">
          -239 36 45 380 -20 hstem
          188 36 rmoveto
          13 7 10 13 12 -7 10 -13 hvcurveto
          -162 hlineto
          -13 -8 -10 -12 -13 8 -10 13 hvcurveto
          49 414 -63 callsubr
          endchar
        </CharString>
        <CharString name="guillemotleft">
          -97 92 56 callsubr
          25 239 -63 callgsubr
          92 -157 rmoveto
          103 122 rlineto
          6 8 2 6 8 vvcurveto
          hintmask 01100000
          15 -12 8 -12 -8 -9 -4 -6 -5 vhcurveto
          -131 -157 131 -157 rlineto
          -7 6 9 -3 5 hhcurveto
          13 14 11 14 7 -3 5 -6 8 hvcurveto
          endchar
        </CharString>
        <CharString name="guillemotright">
          -97 93 56 callsubr
          209 397 -63 callsubr
          -326 -122 rmoveto
          -6 -8 -3 -5 -7 vvcurveto
          hintmask 01100000
          -14 14 -11 13 5 9 3 7 6 vhcurveto
          131 157 -131 157 rlineto
          6 -5 -9 4 -8 hhcurveto
          -12 -12 -8 -15 -8 2 -6 6 -8 hvcurveto
          103 -122 rlineto
          endchar
        </CharString>
        <CharString name="guilsinglleft">
          -255 92 -21 336 -20 hstem
          25 239 -63 callgsubr
          endchar
        </CharString>
        <CharString name="guilsinglright">
          -265 93 -21 336 -20 hstem
          51 397 -63 callsubr
          endchar
        </CharString>
        <CharString name="h">
          27 0 52 387 47 100 52 hstemhm
          31 111 -56 56 219 56 hintmask 11101100
          86 586 rmoveto
          -534 -31 vlineto
          hintmask 11110100
          -80 callsubr
          224 vlineto
          -4 callgsubr
          endchar
        </CharString>
        <CharString name="hbar">
          27 0 52 387 47 17 46 37 52 hstemhm
          25 117 -56 56 -56 149 126 56 hintmask 11110011
          213 503 rmoveto
          14 8 10 13 13 -8 10 -14 hvcurveto
          hintmask 11111001
          -71 67 hlineto
          -4 callgsubr
          hintmask 11110101
          39 -37 -36 68 callsubr
          36 -451 -31 hlineto
          -80 callsubr
          111 vlineto
          endchar
        </CharString>
        <CharString name="hcircumflex">
          27 0 52 387 47 100 52 12 -20 hstemhm
          31 111 -56 56 219 56 hintmask 11100110
          86 586 rmoveto
          -534 -31 vlineto
          hintmask 11101010
          -80 callsubr
          224 vlineto
          -4 callgsubr
          hintmask 11100110
          hintmask 11011010
          246 64 -94 callgsubr
          -106 callgsubr
        </CharString>
        <CharString name="hungarumlaut">
          -245 61 callsubr
          15 510 -46 callgsubr
          -98 callsubr
        </CharString>
        <CharString name="hyphen">
          -210 215 53 hstem
          212 215 rmoveto
          -67 callsubr
          -173 hlineto
          -70 callgsubr
          endchar
        </CharString>
        <CharString name="i">
          7 callsubr
          66 89 hstemhm
          30 106 -106 156 -137 87 -56 56 hintmask 11100010
          -94 callsubr
          hintmask 11100010
          88 161 rmoveto
          26 -20 19 -27 vhcurveto
          hintmask 11100100
          -26 -20 -19 -26 -24 20 -20 26 27 20 20 24 hvcurveto
          endchar
        </CharString>
        <CharString name="iacute">
          7 callsubr
          179 -20 hstemhm
          30 -12 callsubr
          hintmask 11100100
          -94 callsubr
          hintmask 11100100
          -16 81 -84 callgsubr
          -106 callsubr
        </CharString>
        <CharString name="ibreve">
          7 callsubr
          55 callgsubr
          30 -12 callsubr
          hintmask 11100010
          -57 callgsubr
          hintmask 11100100
          -14 -11 -14 -12 -14 11 -12 14 hvcurveto
          106 hlineto
          17 -19 callsubr
          12 -8 14 -17 hvcurveto
          hintmask 11101000
          -88 callsubr
          hintmask 11010010
          37 85 rmoveto
          -93 callgsubr
          hintmask 11101000
          -93 callsubr
          hintmask 11011000
          -81 callgsubr
        </CharString>
        <CharString name="icircumflex">
          7 callsubr
          168 -20 hstemhm
          30 -12 callsubr
          hintmask 11100100
          -94 callsubr
          hintmask 11100100
          36 219 -94 callgsubr
          -106 callgsubr
        </CharString>
        <CharString name="idieresis">
          7 callsubr
          48 82 hstemhm
          -44 86 -12 -12 callsubr
          11 86 hintmask 11110011
          -57 callgsubr
          hintmask 11100100
          -14 -11 -14 -12 -14 11 -12 14 hvcurveto
          106 hlineto
          17 -19 callsubr
          12 -8 14 -17 hvcurveto
          hintmask 11101001
          -88 callsubr
          hintmask 11110011
          -12 139 rmoveto
          -102 callgsubr
          191 hmoveto
          -102 callgsubr
          endchar
        </CharString>
        <CharString name="igrave">
          7 callsubr
          179 -20 hstemhm
          30 -12 callsubr
          hintmask 11100100
          -94 callsubr
          hintmask 11100100
          85 81 -92 callsubr
          -101 callgsubr
        </CharString>
        <CharString name="imacron">
          7 callsubr
          62 48 hstemhm
          30 -12 callsubr
          hintmask 11100100
          -94 callsubr
          hintmask 11100100
          130 113 rmoveto
          15 8 11 13 13 -11 callsubr
          -170 66 callsubr
          endchar
        </CharString>
        <CharString name="iogonek">
          -169 34 -34 85 84 9 callsubr
          51 66 89 hstemhm
          34 43 -43 138 -138 152 -137 87 -56 56 hintmask 0111110001000000
          -57 callgsubr
          -14 -11 -14 -12 -14 11 -12 14 hvcurveto
          38 hlineto
          -29 -19 -30 -32 -42 vvcurveto
          -40 30 -36 46 vhcurveto
          hintmask 0111101000000000
          36 26 24 27 15 -8 19 -20 -18 -9 -14 -17 -8 2 -6 2 -4 hvcurveto
          hintmask 1011110001000000
          -35 callgsubr
          39 37 31 34 22 hvcurveto
          13 hlineto
          hintmask 1011100100000000
          17 -19 callsubr
          12 -8 14 -17 hvcurveto
          hintmask 1011100010000000
          -88 callsubr
          hintmask 1011110001000000
          88 161 rmoveto
          26 -20 19 -27 vhcurveto
          hintmask 1011100010000000
          -26 -20 -19 -26 -24 20 -20 26 27 20 20 24 hvcurveto
          endchar
        </CharString>
        <CharString name="itilde">
          7 callsubr
          50 callsubr
          -46 60 16 106 -106 156 -156 230 -180 56 hintmask 1111100010000000
          -57 callgsubr
          hintmask 1111101000000000
          -14 -11 -14 -12 -14 11 -12 14 hvcurveto
          106 hlineto
          17 -19 callsubr
          12 -8 14 -17 hvcurveto
          hintmask 1111110000000000
          -88 callsubr
          hintmask 1111100010000000
          -100 141 -50 callgsubr
          hintmask 1111100100000000
          33 44 20 46 30 -22 14 -16 -15 -8 -10 -14 -10 6 -12 9 -6 hvcurveto
          -15 -2 -13 -11 -12 hhcurveto
          -14 -14 13 16 -15 hvcurveto
          24 -25 -32 31 -56 hhcurveto
          -33 -44 -20 -41 hvcurveto
          endchar
        </CharString>
        <CharString name="j">
          -188 6 callgsubr
          66 89 hstemhm
          0 197 -110 110 -80 93 -69 56 -56 105 hintmask 11100010
          141 429 rmoveto
          -381 12 callgsubr
          hintmask 11110000
          -5 callsubr
          303 vlineto
          25 1 rlineto
          hintmask 11100001
          53 callgsubr
          hintmask 11101000
          -17 -6 -12 -15 -13 6 -11 17 hvcurveto
          hintmask 11100010
          hintmask 11100100
          100 161 -87 callsubr
        </CharString>
        <CharString name="jcircumflex">
          -188 6 callgsubr
          -13 callsubr
          0 197 -110 159 -105 56 hintmask 11010010
          141 429 rmoveto
          -381 12 callgsubr
          hintmask 11011000
          -5 callsubr
          303 vlineto
          25 1 rlineto
          hintmask 11010100
          53 callgsubr
          -17 -6 -12 -15 -13 6 -11 17 hvcurveto
          hintmask 10110010
          50 219 -94 callgsubr
          -106 callgsubr
        </CharString>
        <CharString name="k">
          5 13 callgsubr
          50 107 52 hstemhm
          25 103 -56 98 68 162 -98 160 hintmask 11101100
          72 586 rmoveto
          -534 -26 vlineto
          hintmask 11110100
          -14 -28 callgsubr
          -12 14 hvcurveto
          102 hlineto
          hintmask 11101100
          14 -19 callsubr
          15 -8 11 -14 hvcurveto
          hintmask 11110010
          -20 -62 callsubr
          hintmask 11110100
          -41 callgsubr
          277 26 vlineto
          16 7 12 15 15 -7 19 callgsubr
          -103 hlineto
          -17 -6 -10 -15 -15 6 -12 17 hvcurveto
          endchar
        </CharString>
        <CharString name="kcommaaccent">
          5 -20 callsubr
          41 13 callgsubr
          50 107 52 hstemhm
          25 103 -56 56 -56 98 13 101 -46 162 -98 160 hintmask 1011100110100000
          72 586 rmoveto
          -534 -26 vlineto
          hintmask 1101110010100000
          -14 -28 callgsubr
          -12 14 hvcurveto
          102 hlineto
          hintmask 1011100110100000
          14 -19 callsubr
          15 -8 11 -14 hvcurveto
          hintmask 1011110010100000
          -20 -62 callsubr
          hintmask 1101110001000000
          -41 callgsubr
          277 26 vlineto
          16 7 12 15 15 -7 19 callgsubr
          -103 hlineto
          -17 -6 -10 -15 -15 6 -12 17 hvcurveto
          hintmask 1101101010100000
          178 -720 -99 callsubr
          -48 callsubr
          vhcurveto
          endchar
        </CharString>
        <CharString name="l">
          -242 58 callgsubr
          -106 56 hintmask 11001000
          5 callsubr
          hintmask 11010000
          58 callsubr
          17 -19 callsubr
          12 -8 14 -17 hvcurveto
          hintmask 11100000
          -24 callsubr
          endchar
        </CharString>
        <CharString name="lacute">
          -242 0 52 533 52 183 -52 callsubr
          -11 86 -84 callgsubr
          -106 callsubr
        </CharString>
        <CharString name="lcaron">
          -253 0 52 533 52 182 -52 callsubr
          167 194 -62 callgsubr
          -105 callsubr
          endchar
        </CharString>
        <CharString name="lcommaaccent">
          -242 -20 callsubr
          41 58 callgsubr
          -133 101 -74 56 hintmask 10110001
          5 callsubr
          hintmask 11010100
          58 callsubr
          17 -19 callsubr
          hvcurveto
          hintmask 10111000
          12 -8 14 -17 vhcurveto
          -24 callsubr
          hintmask 11010001
          51 -719 -99 callsubr
          vhcurveto
          hintmask 11010010
          -53 callgsubr
        </CharString>
        <CharString name="ldot">
          -221 0 52 179 78 276 52 49 callgsubr
          18 81 hintmask 11100110
          5 callsubr
          hintmask 11101000
          58 callsubr
          17 -19 callsubr
          12 -8 14 -17 hvcurveto
          hintmask 11110010
          -24 callsubr
          hintmask 11100110
          146 -276 rmoveto
          -22 -18 -16 -24 -23 18 -15 22 23 18 15 23 24 -18 16 -23 hvcurveto
          endchar
        </CharString>
        <CharString name="less">
          -272 146 -21 230 -20 hstem
          25 240 rmoveto
          108 -108 rlineto
          -5 5 5 -2 5 hhcurveto
          7 7 4 5 5 hvcurveto
          5 5 3 6 6 vvcurveto
          5 -2 6 -5 5 vhcurveto
          -73 73 73 73 rlineto
          5 4 2 6 6 vvcurveto
          6 -2 6 -5 5 vhcurveto
          5 -5 -7 4 -7 hhcurveto
          -6 -5 -2 -5 -5 hvcurveto
          endchar
        </CharString>
        <CharString name="lessequal">
          -239 36 45 380 -20 hstem
          197 36 rmoveto
          13 8 10 13 12 -8 10 -13 hvcurveto
          -162 hlineto
          -13 -7 -10 -12 -13 7 -10 13 hvcurveto
          -18 257 -63 callgsubr
          endchar
        </CharString>
        <CharString name="lira">
          -11 0 50 93 46 75 46 162 181 -39 39 hstemhm
          25 173 -157 76 28 53 48 85 hintmask 1111010010000000
          47 50 rmoveto
          -7 callsubr
          -14 7 -12 15 hvcurveto
          290 hlineto
          11 9 4 7 5 hvcurveto
          73 114 rlineto
          4 6 2 5 4 vvcurveto
          12 -11 5 -6 -7 -5 -4 -4 -4 vhcurveto
          -105 -99 rlineto
          -136 hlineto
          16 26 15 35 32 vvcurveto
          65 hlineto
          14 8 10 13 13 -8 10 -14 hvcurveto
          -68 hlineto
          -1 25 -5 25 -8 25 rrcurveto
          77 hlineto
          14 8 10 13 12 -8 11 -14 hvcurveto
          -87 hlineto
          hintmask 1110101110000000
          -24 67 -30 26 callsubr
          hintmask 1111001110000000
          66 callgsubr
          51 -80 -82 -74 -63 -93 -77 31 -58 28 -52 vhcurveto
          -52 hlineto
          -14 -7 -11 -12 -13 7 -10 14 hvcurveto
          69 hlineto
          14 -26 7 -25 4 -24 rrcurveto
          -85 68 callsubr
          86 hlineto
          1 -7 1 -6 -7 vvcurveto
          -26 -15 -28 -10 -19 vhcurveto
          endchar
        </CharString>
        <CharString name="longs">
          -183 0 52 482 98 hstemhm
          25 165 -112 57 -57 201 hintmask 11010000
          194 632 rmoveto
          -50 -66 -67 -119 hvcurveto
          -394 -27 vlineto
          hintmask 11100000
          24 callsubr
          hintmask 11010000
          -32 394 hlineto
          67 22 75 32 3 vhcurveto
          -23 3 20 -34 34 hhcurveto
          hintmask 11001000
          60 callsubr
        </CharString>
        <CharString name="longs_t">
          7 0 38 -38 52 -52 81 -67 -21 433 54 108 45 hstemhm
          23 99 -53 53 -53 106 33 127 -54 54 -54 129 -129 165 hintmask 0010111001000000
          418 81 rmoveto
          -23 -2 -15 -13 -1 hvcurveto
          hintmask 1000111001000000
          -9 -8 -6 -12 -28 -9 32 13 vhcurveto
          343 48 vlineto
          hintmask 1000111000010000
          18 9 13 14 14 -9 13 -18 hvcurveto
          hintmask 0100110101000000
          -48 101 hlineto
          13 -29 39 -50 vhcurveto
          -7 hlineto
          -108 -72 -90 -123 hvcurveto
          -368 -18 vlineto
          hintmask 1000111001000000
          -16 -12 -10 -15 -14 12 -13 16 hvcurveto
          95 hlineto
          hintmask 0100110011000000
          17 12 13 14 15 -12 10 -17 hvcurveto
          hintmask 0100111001000000
          -24 368 hlineto
          111 43 57 67 22 31 -6 -24 vhcurveto
          -36 vlineto
          -21 -1 -21 -22 vhcurveto
          -25 hlineto
          -18 -11 -13 -14 -14 12 -13 17 hvcurveto
          hintmask 0001111000100000
          44 -347 hlineto
          -43 27 -43 60 vhcurveto
          hintmask 0010111000001000
          44 34 24 36 21 -12 7 -16 hvcurveto
          endchar
        </CharString>
        <CharString name="lslash">
          -242 0 52 533 52 hstemhm
          28 114 -114 164 -106 56 hintmask 11100000
          202 310 rmoveto
          3 4 2 5 4 vvcurveto
          13 -13 10 -11 -6 -6 -3 -5 -5 vhcurveto
          -24 -30 rlineto
          301 vlineto
          -57 callsubr
          hintmask 11001000
          32 -347 hlineto
          -61 -76 rlineto
          -3 -4 -2 -4 -4 vvcurveto
          -13 15 -10 11 5 5 2 5 4 vhcurveto
          26 32 rlineto
          -114 -25 vlineto
          58 callsubr
          hintmask 11010000
          17 -19 callsubr
          12 -8 14 -17 hvcurveto
          hintmask 11100000
          -25 183 hlineto
          endchar
        </CharString>
        <CharString name="m">
          235 0 52 387 47 -6 -20 hstemhm
          25 114 -56 56 188 55 188 56 hintmask 11010110
          626 52 rmoveto
          278 vlineto
          72 -22 84 -93 -64 -41 -39 -55 -33 vhcurveto
          45 -12 -29 49 -66 hhcurveto
          -63 -40 -44 -44 -22 hvcurveto
          -2 65 hlineto
          hintmask 10110110
          14 -3 3 -14 vhcurveto
          -74 hlineto
          -8 -15 -6 -20 -16 10 -10 13 hvcurveto
          hintmask 11001110
          35 -376 -26 hlineto
          -17 -9 -14 -12 -13 9 -13 17 hvcurveto
          102 hlineto
          13 11 13 13 12 -11 14 -13 hvcurveto
          -20 208 hlineto
          72 40 107 80 60 8 -60 -56 vhcurveto
          -271 -20 vlineto
          -19 -7 -14 -12 -13 7 -13 19 hvcurveto
          95 hlineto
          17 8 13 13 12 -8 14 -17 hvcurveto
          -20 206 hlineto
          64 36 117 87 57 8 -51 -72 vhcurveto
          -264 -17 vlineto
          -15 -8 -14 -12 -13 8 -13 15 hvcurveto
          96 hlineto
          15 8 13 13 12 -8 14 -15 hvcurveto
          endchar
        </CharString>
        <CharString name="macron">
          -243 541 49 hstem
          196 541 rmoveto
          -91 callgsubr
        </CharString>
        <CharString name="minus">
          -140 283 53 hstem
          247 283 rmoveto
          -67 callsubr
          -173 hlineto
          -70 callgsubr
          endchar
        </CharString>
        <CharString name="multiply">
          -208 126 221 hstem
          16 217 vstem
          24 175 rmoveto
          -6 -6 -2 -6 -7 vvcurveto
          -15 14 -15 15 7 7 3 5 5 vhcurveto
          65 65 60 -59 rlineto
          -5 5 6 -2 6 hhcurveto
          15 12 12 15 6 -2 6 -5 5 hvcurveto
          -59 60 63 63 rlineto
          5 5 2 6 6 vvcurveto
          16 -14 14 -16 -6 -7 -2 -5 -5 vhcurveto
          -63 -63 -63 63 rlineto
          5 -5 -6 2 -6 hhcurveto
          -14 -13 -15 -13 -6 2 -5 5 -5 hvcurveto
          63 -63 rlineto
          endchar
        </CharString>
        <CharString name="n">
          30 callsubr
          -7 -20 hstemhm
          25 120 240 56 hintmask 10101100
          -99 callgsubr
          hintmask 10011100
          -44 callsubr
          hvcurveto
          hintmask 11001100
          -82 callsubr
          endchar
        </CharString>
        <CharString name="nacute">
          30 callsubr
          -47 219 -179 -20 hstemhm
          25 120 240 56 hintmask 10100110
          -99 callgsubr
          hintmask 10001110
          -44 callsubr
          hvcurveto
          hintmask 11000110
          -82 callsubr
          33 458 -84 callgsubr
          hintmask 10010110
          -106 callsubr
        </CharString>
        <CharString name="napostrophe">
          30 callsubr
          -47 209 -169 -20 hstemhm
          25 120 74 88 78 56 hintmask 10100111
          -99 callgsubr
          hintmask 10001111
          -44 callsubr
          hvcurveto
          hintmask 11000111
          -82 callsubr
          85 516 rmoveto
          1 -3 0 -2 -3 vvcurveto
          -19 -21 -17 -7 -7 vhcurveto
          -1 -11 callgsubr
          vvcurveto
          -4 6 0 2 30 39 44 39 vhcurveto
          hintmask 10010111
          23 -12 33 -36 -21 -19 -21 -22 -22 19 -15 21 -1 vhcurveto
          endchar
        </CharString>
        <CharString name="ncaron">
          30 callsubr
          -47 211 -171 -20 hstemhm
          25 120 240 56 hintmask 10100110
          -99 callgsubr
          hintmask 10001110
          -44 callsubr
          hvcurveto
          hintmask 11000110
          -82 callsubr
          207 559 -62 callgsubr
          hintmask 10010110
          -105 callsubr
          endchar
        </CharString>
        <CharString name="ncommaaccent">
          57 -20 callsubr
          41 0 52 388 47 -7 -20 hstemhm
          25 120 64 101 75 56 hintmask 10110111
          -99 callgsubr
          hintmask 11001111
          -44 callsubr
          -13 8 -12 15 hvcurveto
          hintmask 10110111
          41 -376 -32 hlineto
          -16 -8 -14 -12 -13 8 -13 44 callgsubr
          15 10 13 14 11 -10 14 -15 hvcurveto
          81 -186 -99 callsubr
          34 45 50 45 vhcurveto
          hintmask 11010111
          -81 callsubr
          vhcurveto
          endchar
        </CharString>
        <CharString name="nine">
          -24 -10 43 -43 93 112 32 -32 156 260 37 hstemhm
          20 64 128 85 47 69 hintmask 10011111
          213 648 rmoveto
          -143 -50 -147 -101 -103 51 -102 104 64 58 38 61 33 -17 24 -23 -27 -18 -34 -22 -11 0 -16 10 -10 hvcurveto
          hintmask 10101111
          -20 -22 -11 -25 -83 -8 115 53 120 33 96 97 91 39 -85 -181 -156 -31 -156 -110 vhcurveto
          hintmask 01101111
          26 -24 24 -28 -21 -26 -12 -28 -29 29 -24 54 129 97 145 210 185 -71 118 -129 vhcurveto
          endchar
        </CharString>
        <CharString name="notequal">
          -169 64 -21 114 53 56 53 107 -20 hstem
          65 43 rmoveto
          7 11 7 6 4 hvcurveto
          47 101 rlineto
          119 hlineto
          -67 callsubr
          -94 hlineto
          27 56 rlineto
          67 hlineto
          -67 callsubr
          -42 hlineto
          34 72 rlineto
          2 4 1 4 3 vvcurveto
          14 -13 10 -13 -10 -9 -6 -7 -4 vhcurveto
          -44 -94 rlineto
          -116 hlineto
          -70 callgsubr
          91 hlineto
          -27 -56 rlineto
          -64 hlineto
          -70 callgsubr
          39 hlineto
          -36 -78 rlineto
          -2 -5 -1 -3 -3 vvcurveto
          -14 10 -11 16 vhcurveto
          endchar
        </CharString>
        <CharString name="ntilde">
          30 callsubr
          -7 -20 55 32 54 30 hstemhm
          25 120 -39 60 219 56 hintmask 1010111010000000
          -99 callgsubr
          hintmask 1001111010000000
          -44 callsubr
          hvcurveto
          hintmask 1100111010000000
          -82 callsubr
          hintmask 1100110110000000
          -68 518 rmoveto
          -103 callgsubr
        </CharString>
        <CharString name="numbersign">
          114 5 -21 218 53 108 54 241 -20 hstem
          151 202 rmoveto
          -57 -190 rlineto
          -1 -2 0 -3 -2 vvcurveto
          -12 8 -9 15 12 13 8 9 3 vhcurveto
          59 201 rlineto
          111 hlineto
          -56 -190 rlineto
          -1 -2 0 -3 -2 vvcurveto
          -12 7 -9 15 13 14 8 9 2 vhcurveto
          58 201 rlineto
          123 hlineto
          17 10 12 15 14 -10 12 -17 hvcurveto
          -107 hlineto
          32 108 rlineto
          126 hlineto
          17 9 12 15 15 -9 12 -17 hvcurveto
          -111 hlineto
          63 212 48 callsubr
          -10 10 -18 vhcurveto
          -9 -1 -9 -5 -3 -9 -67 -226 rcurveline
          -110 hlineto
          62 213 48 callsubr
          -10 9 -18 vhcurveto
          -9 -1 -9 -5 -3 -9 -66 -226 rcurveline
          -130 hlineto
          -17 -9 -12 -15 -15 9 -12 17 hvcurveto
          114 hlineto
          -31 -108 rlineto
          -133 hlineto
          -17 -8 -12 14 callgsubr
          -12 17 hvcurveto
          216 161 rmoveto
          110 hlineto
          -31 -108 rlineto
          -111 hlineto
          endchar
        </CharString>
        <CharString name="o">
          -12 callgsubr
          hstem
          43 callsubr
          vstem
          -103 callsubr
          endchar
        </CharString>
        <CharString name="oacute">
          -12 callgsubr
          -47 218 6 callsubr
          hintmask 11011000
          -103 callsubr
          -52 469 -84 callgsubr
          hintmask 10111000
          -106 callsubr
        </CharString>
        <CharString name="obreve">
          -12 callgsubr
          26 46 -46 144 6 callsubr
          hintmask 11011100
          -103 callsubr
          1 473 rmoveto
          -93 callgsubr
          hintmask 11101100
          -93 callsubr
          hintmask 11011100
          -81 callgsubr
        </CharString>
        <CharString name="ocircumflex">
          -12 callgsubr
          0 30 130 -20 6 callsubr
          hintmask 11011100
          -103 callsubr
          -1 607 -94 callgsubr
          hintmask 10111100
          -106 callgsubr
        </CharString>
        <CharString name="odieresis">
          -12 callgsubr
          37 82 hstem
          15 56 33 86 105 86 33 56 vstem
          -103 callsubr
          -52 524 rmoveto
          -102 callgsubr
          191 hmoveto
          -102 callgsubr
          endchar
        </CharString>
        <CharString name="oe">
          234 -9 42 -42 144 -126 -21 292 50 116 42 1 -20 hstemhm
          15 56 272 48 hintmask 01010111
          207 489 rmoveto
          -119 -73 -108 -140 -124 70 -126 122 77 53 52 69 28 hvcurveto
          hintmask 00111011
          -73 28 55 -51 80 hhcurveto
          110 52 85 35 hvcurveto
          hintmask 01011011
          21 -18 6 -12 -17 -10 -14 -10 -5 vhcurveto
          hintmask 10011011
          -32 -16 -25 -46 -59 hhcurveto
          -82 -55 87 123 15 1 9 1 13 hvcurveto
          272 hlineto
          34 callsubr
          -76 -50 -49 -67 -26 hvcurveto
          hintmask 10010111
          67 -28 -52 50 -79 hhcurveto
          1 -454 rmoveto
          -81 -56 98 109 hvcurveto
          hintmask 10011011
          118 55 86 80 80 57 -92 -113 vhcurveto
          -9 vlineto
          -108 -3 -53 -89 -79 hhcurveto
          193 295 rmoveto
          48 13 34 66 69 hhcurveto
          71 40 -70 -44 10 callgsubr
        </CharString>
        <CharString name="ogonek">
          -324 -175 34 -34 85 91 -20 hstemhm
          0 43 -43 138 hintmask 01101000
          71 1 rmoveto
          -33 -18 -38 -35 -47 -76 callgsubr
          hintmask 10110000
          -35 callgsubr
          43 47 34 36 22 hvcurveto
          endchar
        </CharString>
        <CharString name="ograve">
          -12 callgsubr
          -47 218 6 callsubr
          hintmask 11011000
          -103 callsubr
          40 469 -92 callsubr
          hintmask 10111000
          -101 callgsubr
        </CharString>
        <CharString name="ohungarumlaut">
          -12 callgsubr
          -47 218 6 callsubr
          hintmask 11011000
          -103 callsubr
          -84 469 -46 callgsubr
          hintmask 10111000
          -98 callsubr
        </CharString>
        <CharString name="omacron">
          -12 callgsubr
          53 49 hstem
          43 callsubr
          vstem
          -103 callsubr
          87 500 rmoveto
          -91 callgsubr
        </CharString>
        <CharString name="one">
          -205 0 50 445 50 111 -20 hstemhm
          5 170 -107 159 -106 54 hintmask 11100100
          121 50 rmoveto
          -31 hlineto
          hintmask 11101000
          -15 -7 -12 -12 -14 7 -12 15 hvcurveto
          114 hlineto
          15 -19 callsubr
          12 -8 12 -15 hvcurveto
          hintmask 11110000
          -29 557 hlineto
          6 11 1 9 6 vvcurveto
          18 -16 5 -10 -11 -11 -4 -15 -5 vhcurveto
          -16 -53 -25 -35 -63 -4 rrcurveto
          -12 -1 -8 -11 -12 vvcurveto
          -16 6 -9 14 -1 vhcurveto
          13 hlineto
          hintmask 11100100
          30 34 9 25 19 hvcurveto
          endchar
        </CharString>
        <CharString name="oslash">
          23 -6 47 -30 -21 451 47 10 -20 6 callsubr
          hintmask 01101100
          52 callsubr
          hintmask 10011100
          -26 callsubr
          hintmask 01101100
          -9 callgsubr
          hintmask 10101100
          -42 callgsubr
          endchar
        </CharString>
        <CharString name="oslashacute">
          23 -6 47 -30 -21 451 47 -47 218 -161 -20 6 callsubr
          hintmask 01100110
          52 callsubr
          hintmask 10001110
          -26 callsubr
          hintmask 01100110
          -9 callgsubr
          hintmask 10010110
          -42 callgsubr
          130 268 -84 callgsubr
          -106 callsubr
        </CharString>
        <CharString name="otilde">
          -12 callgsubr
          27 32 54 30 hstem
          15 56 18 60 265 56 vstem
          -103 callsubr
          -153 529 rmoveto
          -103 callgsubr
        </CharString>
        <CharString name="p">
          16 -127 52 73 45 394 45 -2 -20 hstemhm
          28 107 -52 111 208 56 hintmask 11100110
          83 -75 rmoveto
          -31 hlineto
          hintmask 11101010
          -14 -10 -11 -14 -18 10 -9 14 64 callsubr
          hintmask 11100110
          15 10 9 18 14 -10 3 callgsubr
          -30 148 hlineto
          -42 24 55 -33 58 hhcurveto
          116 66 107 138 138 -66 101 -114 -59 -54 -34 -47 -27 hvcurveto
          61 vlineto
          hintmask 11010110
          36 callsubr
          37 hlineto
          hintmask 11101010
          190 9 rmoveto
          99 30 -110 -84 -84 -26 -116 -102 -89 -50 81 70 callsubr
        </CharString>
        <CharString name="parenleft">
          52 callgsubr
          25 60 144 87 hintmask 01101100
          25 329 rmoveto
          -233 103 -200 113 47 28 18 26 24 -23 11 -18 vhcurveto
          hintmask 10011100
          -25 -21 -18 -23 hvcurveto
          -97 -47 233 162 160 48 217 96 hvcurveto
          hintmask 10101100
          -24 21 -18 24 19 22 10 26 25 -25 21 -47 -112 -106 -185 -232 vhcurveto
          endchar
        </CharString>
        <CharString name="parenright">
          52 callgsubr
          6 86 144 60 hintmask 10101100
          296 329 rmoveto
          232 -106 185 -112 -47 -25 -21 -25 -26 22 -10 19 vhcurveto
          hintmask 10011100
          24 21 18 24 hvcurveto
          96 48 -217 -160 -162 -47 -233 -97 hvcurveto
          hintmask 01101100
          23 -21 18 -25 -18 -23 -11 -24 -26 28 -18 47 113 103 200 233 vhcurveto
          endchar
        </CharString>
        <CharString name="percent">
          103 70 callgsubr
          7 -20 hstemhm
          15 56 135 56 41 56 135 56 hintmask 1111011110000000
          262 492 rmoveto
          -78 callgsubr
          479 -352 rmoveto
          -78 callgsubr
          -221 -150 39 callsubr
          291 606 rlineto
          2 4 1 5 4 vvcurveto
          hintmask 1110111110000000
          14 -13 12 -15 -11 -10 -6 -9 -4 vhcurveto
          -292 -605 -8 callgsubr
          endchar
        </CharString>
        <CharString name="period">
          -327 -4 96 hstem
          10 100 vstem
          59 92 29 callgsubr
          endchar
        </CharString>
        <CharString name="periodcentered">
          -312 193 96 hstem
          25 100 vstem
          74 289 29 callgsubr
          endchar
        </CharString>
        <CharString name="perthousand">
          429 70 callgsubr
          6 -20 hstemhm
          20 56 135 56 41 56 135 56 59 56 135 56 hintmask 1111011111100000
          267 492 rmoveto
          -78 callgsubr
          68 -502 rmoveto
          10 11 6 10 5 hvcurveto
          290 603 rlineto
          2 4 1 5 4 vvcurveto
          hintmask 1110111111100000
          15 -13 12 -16 -11 -10 -6 -10 -5 vhcurveto
          -291 -602 rlineto
          -2 -5 -1 -4 -4 vvcurveto
          -15 12 -13 18 vhcurveto
          411 150 rmoveto
          -78 callgsubr
          497 hmoveto
          -78 callgsubr
          endchar
        </CharString>
        <CharString name="plus">
          -210 128 140 -53 53 -53 140 hstemhm
          15 139 -57 57 -57 140 hintmask 10010000
          97 155 65 callsubr
          hintmask 01010000
          60 58 vlineto
          hintmask 10000100
          -67 callsubr
          hintmask 10010000
          -58 61 hlineto
          hintmask 00101000
          15 -13 11 -15 -16 -13 -11 -15 vhcurveto
          hintmask 10001000
          -61 -58 vlineto
          hintmask 01010000
          -70 callgsubr
          hintmask 01001000
          58 hlineto
          endchar
        </CharString>
        <CharString name="plusminus">
          -190 99 53 37 140 -53 53 -53 140 hstemhm
          25 139 -57 57 -57 140 hintmask 11001000
          107 216 65 callsubr
          hintmask 10101000
          60 58 vlineto
          hintmask 11000010
          -67 callsubr
          hintmask 11001000
          -58 61 hlineto
          hintmask 10010100
          15 -13 11 -15 -16 -13 -11 -15 vhcurveto
          hintmask 11000100
          -61 -58 vlineto
          hintmask 10101000
          -70 callgsubr
          hintmask 10100100
          58 hlineto
          115 -177 rmoveto
          hintmask 11000010
          -67 callsubr
          -173 hlineto
          hintmask 11001000
          -70 callgsubr
          endchar
        </CharString>
        <CharString name="q">
          12 -127 52 71 47 398 45 4 -20 hstemhm
          20 55 268 52 hintmask 11011100
          200 -4 rmoveto
          63 49 37 45 27 hvcurveto
          -153 -27 vlineto
          -13 -9 -13 -12 -13 9 -14 13 hvcurveto
          109 hlineto
          16 7 14 13 12 -7 13 -16 hvcurveto
          -26 305 hlineto
          171 26 26 29 17 vhcurveto
          8 4 6 6 10 vvcurveto
          11 -7 15 -17 -37 -29 -43 -49 -16 vhcurveto
          hintmask 11101100
          49 -28 -47 39 -75 hhcurveto
          -122 -66 -104 -141 -143 67 -102 113 hvcurveto
          9 445 rmoveto
          90 44 -93 -111 -122 -53 -72 -81 -99 -35 108 88 85 32 117 102 hvcurveto
          endchar
        </CharString>
        <CharString name="question">
          -50 -4 96 334 229 -39 39 hstemhm
          10 90 25 100 -74 43 136 57 hintmask 11011010
          10 503 rmoveto
          -48 30 -29 25 20 15 19 25 20 -9 26 -19 12 vhcurveto
          hintmask 10110110
          67 11 63 21 49 hhcurveto
          93 42 -59 -64 hvcurveto
          -109 -179 -74 -150 vvcurveto
          -15 11 -8 11 11 10 8 15 46 47 50 29 27 vhcurveto
          20 19 rlineto
          55 53 42 55 72 vvcurveto
          114 -95 59 -100 -103 -79 -73 -79 vhcurveto
          164 -411 rmoveto
          hintmask 11011010
          -74 callsubr
          endchar
        </CharString>
        <CharString name="questiondown">
          -55 -8 39 -39 229 334 96 hstemhm
          15 57 105 100 -69 43 51 90 hintmask 01111010
          392 144 rmoveto
          48 -30 29 -25 -20 -15 -19 -25 -20 9 -26 19 -12 vhcurveto
          hintmask 10110110
          -67 -11 -63 -21 -49 hhcurveto
          -93 -42 59 64 hvcurveto
          109 179 74 150 vvcurveto
          15 -11 8 -11 -11 -10 -8 -15 -46 -47 -50 -29 -27 vhcurveto
          -20 -19 rlineto
          -55 -53 -42 -55 -72 vvcurveto
          -114 95 -59 100 103 79 73 79 vhcurveto
          -164 411 rmoveto
          hintmask 10111010
          27 22 19 30 28 -22 19 -27 -29 -22 -19 -28 -30 22 -19 29 hvcurveto
          endchar
        </CharString>
        <CharString name="quotedbl">
          -243 489 164 hstem
          20 67 45 67 vstem
          38 -24 callgsubr
          175 hmoveto
          1 7 1 8 6 vvcurveto
          24 -14 17 -20 -18 -15 -17 -24 -6 1 -8 1 -7 vhcurveto
          14 -85 rlineto
          -9 1 7 -8 7 hhcurveto
          8 7 8 9 3 hvcurveto
          endchar
        </CharString>
        <CharString name="quotedblbase">
          -231 -118 156 hstem
          15 -100 -47 callsubr
          111 -93 -47 callsubr
          endchar
        </CharString>
        <CharString name="quotedblleft">
          -183 483 170 -6 -20 hstemhm
          15 106 37 106 hintmask 01110000
          23 callsubr
          hintmask 10110000
          19 callsubr
          143 4 rmoveto
          7 1 6 1 3 vhcurveto
          hintmask 01110000
          23 6 19 23 7 hhcurveto
          2 0 1 1 hvcurveto
          hintmask 10110000
          3 -5 1 -3 -37 -47 -53 -50 -29 19 -38 41 25 21 24 26 27 -25 18 -25 3 vhcurveto
          endchar
        </CharString>
        <CharString name="quotedblright">
          -183 65 callgsubr
          37 106 hintmask 01110000
          208 551 rmoveto
          -7 0 -6 -1 -3 vhcurveto
          -23 -7 -18 -23 -8 55 callsubr
          hintmask 10110000
          -3 5 -1 4 37 46 53 50 29 -19 38 -40 -25 -22 -24 -26 -27 25 -18 25 -3 vhcurveto
          -143 -4 rmoveto
          -7 -1 -6 -1 -3 vhcurveto
          hintmask 01110000
          -23 -6 -19 -23 -7 55 callsubr
          hintmask 10110000
          10 callsubr
        </CharString>
        <CharString name="quoteleft">
          -326 483 170 -6 -20 hstemhm
          15 106 hintmask 01100000
          23 callsubr
          hintmask 10100000
          19 callsubr
          endchar
        </CharString>
        <CharString name="quoteright">
          -326 65 callgsubr
          hintmask 01100000
          65 551 rmoveto
          -7 -1 -6 -1 -3 vhcurveto
          -23 -6 -19 -23 -7 55 callsubr
          hintmask 10100000
          10 callsubr
        </CharString>
        <CharString name="quotesinglbase">
          -352 -97 -21 156 -20 hstem
          15 -100 -47 callsubr
          endchar
        </CharString>
        <CharString name="quotesingle">
          -365 510 -21 164 -20 hstem
          15 67 vstem
          33 -24 callgsubr
          endchar
        </CharString>
        <CharString name="r">
          35 callgsubr
          hstemhm
          25 103 -56 56 -56 100 hintmask 10110000
          -23 callgsubr
          hintmask 11010000
          -59 callgsubr
          hintmask 11001000
          -30 callgsubr
          hintmask 11000100
          18 callsubr
          hintmask 10110000
          -19 hlineto
          endchar
        </CharString>
        <CharString name="racute">
          35 callgsubr
          -45 224 hstemhm
          25 103 hintmask 10101000
          -23 callgsubr
          hintmask 11001000
          -59 callgsubr
          hintmask 10101000
          -30 callgsubr
          18 callsubr
          -19 hlineto
          -8 458 -84 callgsubr
          hintmask 10011000
          -106 callsubr
        </CharString>
        <CharString name="rcaron">
          35 callgsubr
          -45 216 hstemhm
          25 103 -56 56 -56 100 hintmask 10101000
          -23 callgsubr
          hintmask 11001000
          -59 callgsubr
          hintmask 11000100
          -30 callgsubr
          hintmask 11000010
          18 callsubr
          hintmask 10101000
          -19 hlineto
          166 559 -62 callgsubr
          hintmask 10011000
          -105 callsubr
          endchar
        </CharString>
        <CharString name="rcommaaccent">
          -117 -20 callsubr
          41 0 52 383 45 hstemhm
          25 103 -103 147 -119 101 -82 56 hintmask 11010100
          -23 callgsubr
          -59 callgsubr
          hintmask 10110001
          -30 callgsubr
          hintmask 10110100
          18 callsubr
          hintmask 10111000
          -19 hlineto
          -29 -186 -99 callsubr
          vhcurveto
          hintmask 11010010
          -53 callgsubr
        </CharString>
        <CharString name="registered">
          205 -9 40 77 49 -49 81 65 46 191 -20 23 43 79 39 hstemhm
          25 51 97 85 -44 44 -44 83 154 44 97 50 hintmask 1101111100111000
          214 491 rmoveto
          -334 -19 vlineto
          hintmask 1101111110011000
          -16 -6 -9 -16 -11 6 -9 16 hvcurveto
          79 hlineto
          hintmask 1101111100111000
          17 6 9 11 16 -6 9 -17 hvcurveto
          hintmask 1101111110011000
          -16 97 21 hlineto
          128 -62 -146 92 hhcurveto
          38 29 31 25 hvcurveto
          hintmask 1011111101011000
          14 -7 11 -14 -19 -24 -29 -24 -3 vhcurveto
          -43 20 42 97 -72 18 rrcurveto
          80 11 51 42 74 vvcurveto
          111 -89 28 -107 vhcurveto
          -104 hlineto
          -14 -7 -9 -15 -14 7 -8 14 hvcurveto
          63 3 rmoveto
          45 hlineto
          82 66 -27 -69 -79 -85 -19 -88 hvcurveto
          -20 hlineto
          82 -269 rmoveto
          -156 -108 117 177 170 106 121 -43 callsubr
        </CharString>
        <CharString name="ring">
          -291 510 30 106 30 hstem
          0 45 81 45 vstem
          592 vmoveto
          -82 callgsubr
        </CharString>
        <CharString name="s">
          12 callsubr
          17 callsubr
          hintmask 10011010
          -58 callgsubr
          hintmask 10100110
          -71 callgsubr
          hintmask 10101001
          -68 callgsubr
          hintmask 01101001
          -72 callsubr
          endchar
        </CharString>
        <CharString name="sacute">
          12 callsubr
          -38 209 -73 callsubr
          6 109 -84 callgsubr
          -106 callsubr
        </CharString>
        <CharString name="scaron">
          12 callsubr
          -38 201 -73 callsubr
          181 210 -62 callgsubr
          -105 callsubr
          endchar
        </CharString>
        <CharString name="scedilla">
          -144 30 callgsubr
          -158 232 329 127 -38 38 hstemhm
          15 85 -55 55 12 41 callsubr
          -70 70 -40 40 -1 51 hintmask 1000101001000000
          130 -27 callgsubr
          hintmask 1000101000010000
          -60 callgsubr
          hintmask 0100101010000000
          -40 callsubr
          hintmask 0010010100001000
          54 callsubr
          33 vlineto
          91 9 36 77 60 vvcurveto
          79 -59 43 -39 28 vhcurveto
          -33 25 rlineto
          -34 25 -38 31 33 vvcurveto
          20 13 29 39 7 21 -1 -6 8 vhcurveto
          hintmask 1000100100100000
          -3 -7 -2 -10 -7 vvcurveto
          -71 callgsubr
          hintmask 0001101000001000
          -68 callgsubr
          24 -14 17 -20 -28 -25 -33 -40 vhcurveto
          hintmask 1000101001000000
          -58 49 -43 66 -9 vhcurveto
          endchar
        </CharString>
        <CharString name="scircumflex">
          -144 -10 42 329 127 -38 38 0 30 130 -20 17 callsubr
          hintmask 1010110100000000
          -58 callgsubr
          hintmask 1100101100000000
          -71 callgsubr
          hintmask 1001110010000000
          -68 callgsubr
          -72 callsubr
          58 247 -94 callgsubr
          -106 callgsubr
        </CharString>
        <CharString name="scommaaccent">
          -144 -20 callsubr
          31 0 42 -42 185 275 38 hstemhm
          15 87 -57 57 6 101 -26 80 -11 51 hintmask 1100101010000000
          -58 callgsubr
          -71 callgsubr
          hintmask 1010110101000000
          -68 callgsubr
          hintmask 1001110101000000
          -72 callsubr
          54 -535 -99 callsubr
          34 45 50 45 vhcurveto
          hintmask 1100110101000000
          -81 callsubr
          vhcurveto
          endchar
        </CharString>
        <CharString name="section">
          -120 -11 31 -31 126 -126 233 194 229 -122 122 -31 31 hstemhm
          15 50 -5 56 -56 70 77 78 -56 56 -7 49 hintmask 1000010100010000
          327 300 rmoveto
          127 -211 45 88 vvcurveto
          23 14 31 36 15 24 -5 -6 7 vhcurveto
          hintmask 1000100011000000
          -3 -6 -2 -8 -8 vvcurveto
          -27 22 -31 26 19 11 18 21 52 -68 31 -50 -59 -48 -45 -52 -38 27 -41 23 -20 vhcurveto
          hintmask 1001001000100000
          -65 -18 -30 -43 -47 -134 214 -48 -86 vvcurveto
          -28 -26 -25 -35 -17 -18 6 7 -8 vhcurveto
          hintmask 0101000011000000
          3 6 2 8 8 vvcurveto
          26 -23 34 -27 -20 -11 -18 -22 -53 62 -33 55 59 60 37 62 43 -28 33 -32 24 vhcurveto
          hintmask 0011001000010000
          71 17 31 47 48 vvcurveto
          -262 48 rmoveto
          29 18 38 65 1 vhcurveto
          51 -38 79 -29 -61 vvcurveto
          -37 -30 -29 -64 vhcurveto
          -54 38 -65 29 59 vvcurveto
          endchar
        </CharString>
        <CharString name="semicolon">
          -315 -75 167 -98 98 299 96 hstemhm
          21 100 hintmask 01110000
          70 25 callsubr
          52 -455 15 callgsubr
          hintmask 10110000
          59 callsubr
        </CharString>
        <CharString name="seven">
          -95 -10 88 424 60 -18 48 2 45 7 -20 hstemhm
          0 84 34 58 86 93 hintmask 11010111
          90 639 rmoveto
          -57 -33 -50 -34 -27 22 -26 27 19 16 13 17 13 -10 17 -22 -5 -2 -1 -1 -3 hvcurveto
          19 4 17 15 22 hhcurveto
          hintmask 10101111
          38 24 -50 62 hhcurveto
          12 29 2 12 13 hvcurveto
          -68 -83 -77 -139 -138 vvcurveto
          -120 57 -88 97 54 29 27 27 23 -22 11 -19 -24 -28 -16 -26 vhcurveto
          -42 -44 74 99 142 91 135 62 81 hvcurveto
          10 13 23 20 17 vvcurveto
          10 -8 19 -25 -12 -6 -4 -9 -10 vhcurveto
          -21 -24 -32 -20 -34 hhcurveto
          hintmask 11010111
          -53 -13 47 -55 hhcurveto
          endchar
        </CharString>
        <CharString name="six">
          -24 -10 36 283 156 -32 32 90 93 -46 46 hstemhm
          25 69 47 84 127 66 hintmask 11010111
          227 -10 rmoveto
          140 51 157 104 101 -51 113 -107 -61 -58 -37 -65 -28 17 -26 22 27 18 32 24 20 -1 9 -8 8 hvcurveto
          hintmask 10101111
          20 22 11 25 83 6 -124 -55 -119 -30 -109 -97 -91 -40 106 186 151 32 133 109 vhcurveto
          hintmask 11010111
          -28 28 -19 21 25 25 13 24 40 -40 16 -41 -132 -96 -125 -210 -183 71 -140 131 vhcurveto
          endchar
        </CharString>
        <CharString name="slash">
          -104 11 -21 660 -20 hstem
          34 -10 39 callsubr
          291 606 rlineto
          2 4 1 5 4 vvcurveto
          14 -13 12 -15 -11 -10 -6 -9 -4 vhcurveto
          -292 -605 -8 callgsubr
          endchar
        </CharString>
        <CharString name="space">
          -212 endchar
        </CharString>
        <CharString name="sterling">
          -77 -8 35 -35 144 -115 -21 77 39 148 46 162 180 -38 38 hstemhm
          15 37 -7 75 38 45 46 85 -48 84 hintmask 1001101011100000
          261 264 rmoveto
          14 8 10 13 12 -8 11 -14 hvcurveto
          -86 hlineto
          -24 67 -31 26 callsubr
          hintmask 1001110011100000
          66 callgsubr
          50 -80 -82 -73 -60 -93 -77 33 -60 29 -52 vhcurveto
          -68 hlineto
          -14 -7 -11 -12 -13 7 -10 14 hvcurveto
          92 hlineto
          22 -38 5 -35 -36 vvcurveto
          -15 -3 -17 -7 -16 vhcurveto
          4 -11 -26 5 -12 hhcurveto
          hintmask 0011110101100000
          45 callgsubr
          hintmask 0100110101010000
          14 callsubr
          hintmask 1001110101100000
          68 callgsubr
          13 26 7 30 28 vvcurveto
          29 -5 29 -9 30 vhcurveto
          -112 -233 26 callgsubr
          endchar
        </CharString>
        <CharString name="t">
          -201 -10 38 callsubr
          hstemhm
          10 126 -57 57 -57 128 -128 177 hintmask 01101000
          38 callgsubr
          hintmask 10101000
          11 callsubr
          hintmask 10100010
          16 callgsubr
          hintmask 10101000
          -44 104 hlineto
          hintmask 10011000
          0 callsubr
          hintmask 10101000
          -30 callsubr
          hintmask 01100100
          43 -346 hlineto
          -52 37 -40 50 vhcurveto
          hintmask 01100001
          31 callgsubr
          hvcurveto
          endchar
        </CharString>
        <CharString name="tbar">
          -201 -10 46 -46 104 195 49 90 52 -52 168 hstemhm
          10 126 -52 52 -52 119 -5 58 hintmask 1011000100000000
          180 289 67 callsubr
          hintmask 1011010010000000
          -44 90 44 hlineto
          16 callgsubr
          -44 104 hlineto
          hintmask 1010101010000000
          0 callsubr
          hintmask 0111010010000000
          -30 callsubr
          43 -90 -42 hlineto
          -7 callsubr
          -14 7 -10 callgsubr
          42 -207 hlineto
          -52 37 -40 50 31 callgsubr
          -15 -13 -11 -18 vhcurveto
          hintmask 1011010010000000
          -21 -15 -8 -16 -24 -7 22 25 vhcurveto
          206 vlineto
          endchar
        </CharString>
        <CharString name="tcaron">
          -195 -10 38 callsubr
          209 -20 hstemhm
          79 57 -57 177 hintmask 01101100
          38 callgsubr
          hintmask 10101100
          11 callsubr
          16 callgsubr
          -44 104 hlineto
          hintmask 10011100
          0 callsubr
          hintmask 01101100
          -30 callsubr
          43 -346 hlineto
          -52 37 -40 50 vhcurveto
          hintmask 01101010
          31 callgsubr
          hvcurveto
          17 671 -62 callgsubr
          -105 callsubr
          endchar
        </CharString>
        <CharString name="tcommaaccent">
          -201 -20 callsubr
          31 0 38 callsubr
          hstemhm
          10 126 -57 57 -57 102 -102 128 -128 177 hintmask 1001011000000000
          38 callgsubr
          hintmask 1010011000000000
          11 callsubr
          hintmask 1100100001000000
          16 callgsubr
          hintmask 1100101000000000
          -44 104 hlineto
          hintmask 1100011000000000
          0 callsubr
          hintmask 1100101000000000
          -30 callsubr
          hintmask 1001010100000000
          43 -346 hlineto
          -52 37 -40 50 vhcurveto
          hintmask 1001010000100000
          31 callgsubr
          hvcurveto
          -100 -228 -99 callsubr
          vhcurveto
          hintmask 1100010010000000
          -53 callgsubr
        </CharString>
        <CharString name="thorn">
          16 -127 52 74 45 393 45 104 52 hstemhm
          28 110 -55 111 208 56 hintmask 11110110
          83 -75 rmoveto
          -31 hlineto
          hintmask 11111010
          -14 -10 -11 -14 -18 10 -9 14 64 callsubr
          hintmask 11110110
          15 10 9 18 14 -10 3 callgsubr
          -30 152 hlineto
          -45 22 55 -33 60 hhcurveto
          116 66 106 138 138 -66 101 -114 hvcurveto
          hintmask 11111010
          -63 -53 -33 -48 -24 hvcurveto
          219 vlineto
          36 callsubr
          hintmask 11110110
          37 hlineto
          190 -149 rmoveto
          99 30 -110 -84 -84 -26 -115 -102 -89 -50 80 70 callsubr
        </CharString>
        <CharString name="three">
          -42 -10 33 -33 231 163 66 45 154 -37 37 hstemhm
          20 90 -38 71 133 48 2 69 hintmask 1011010110000000
          20 154 rmoveto
          -73 67 -91 107 124 77 118 135 96 -49 79 -44 33 vhcurveto
          17 21 5 28 22 vvcurveto
          74 -58 53 -72 vhcurveto
          hintmask 1011001110000000
          -68 -54 -48 -56 -26 11 -24 24 25 11 26 19 13 -5 10 -5 6 hvcurveto
          hintmask 1010110110000000
          25 1 31 18 28 hhcurveto
          40 43 -37 -58 -44 -24 -32 -32 -8 hvcurveto
          8 -8 -19 9 -15 hhcurveto
          -20 -14 -16 -15 -19 23 -16 32 27 27 12 17 15 hvcurveto
          33 -23 25 -74 -74 vvcurveto
          -110 -37 -109 -97 -55 -41 35 61 -12 vhcurveto
          17 11 9 25 18 vvcurveto
          hintmask 0111010110000000
          27 -21 21 -21 -20 -28 -20 -47 vhcurveto
          endchar
        </CharString>
        <CharString name="tilde">
          -156 515 32 54 30 hstem
          0 60 vstem
          570 vmoveto
          -103 callgsubr
        </CharString>
        <CharString name="two">
          -87 -11 39 -39 144 -115 -21 77 39 356 184 -42 42 hstemhm
          10 37 6 85 121 70 -48 84 hintmask 1001101110000000
          72 28 26 callgsubr
          -19 506 rmoveto
          -31 18 -34 29 23 15 21 26 25 -15 23 -19 7 vhcurveto
          hintmask 0011011110000000
          18 9 26 22 30 hhcurveto
          41 49 -41 -75 -116 -65 -197 -51 -78 hvcurveto
          4 -11 -26 5 -12 hhcurveto
          45 callgsubr
          hintmask 0100101101000000
          14 callsubr
          68 callgsubr
          hintmask 1001101110000000
          63 95 88 206 113 vvcurveto
          93 -60 57 -82 -80 -54 -54 -65 vhcurveto
          endchar
        </CharString>
        <CharString name="u">
          -52 callgsubr
          hstemhm
          65 56 187 105 -56 102 -102 116 hintmask 10011001
          -104 callsubr
          hintmask 00111001
          -67 callgsubr
          hvcurveto
          hintmask 01011100
          -58 callsubr
          hintmask 10011010
          -61 callsubr
          hintmask 10011100
          -51 callsubr
          endchar
        </CharString>
        <CharString name="uacute">
          -80 callgsubr
          -128 82 -83 callgsubr
          hintmask 1000111000000000
          -6 callsubr
          -73 callgsubr
          -106 callsubr
        </CharString>
        <CharString name="ubreve">
          -52 callgsubr
          55 callgsubr
          65 56 -10 59 138 5 callgsubr
          hintmask 1001101000010000
          357 428 rmoveto
          -204 vlineto
          -111 -72 -73 -71 -68 -25 66 50 vhcurveto
          272 24 vlineto
          hintmask 1001100110000000
          16 9 14 12 13 -9 13 -16 hvcurveto
          -102 hlineto
          -15 -8 -13 -13 -12 8 -14 15 hvcurveto
          hintmask 0101101010000000
          22 -271 hlineto
          -74 36 -90 107 76 46 47 46 28 vhcurveto
          hintmask 0011101000010000
          -67 callgsubr
          hvcurveto
          hintmask 0101101010000000
          -58 callsubr
          hintmask 1001101000100000
          -61 callsubr
          hintmask 1001101010000000
          -51 callsubr
          hintmask 1001011001000000
          -85 86 rmoveto
          -93 callgsubr
          hintmask 1001101010000000
          -93 callsubr
          hintmask 1001010110000000
          -81 callgsubr
        </CharString>
        <CharString name="ucircumflex">
          36 -7 47 -19 -21 428 52 -13 callsubr
          65 56 187 61 callgsubr
          hintmask 1010110010000000
          -104 callsubr
          hintmask 0110110010000000
          -67 callgsubr
          14 -8 12 -15 hvcurveto
          hintmask 1010110100000000
          -37 376 22 hlineto
          hintmask 1010111000000000
          -61 callsubr
          -51 callsubr
          hintmask 1010110100000000
          -86 47 callgsubr
          hintmask 1001111000000000
          -106 callgsubr
        </CharString>
        <CharString name="udieresis">
          -52 callgsubr
          45 82 hstemhm
          65 56 -11 86 112 79 -79 61 callgsubr
          hintmask 1001110000100000
          -104 callsubr
          hintmask 0011110000100000
          -67 callgsubr
          hvcurveto
          hintmask 0101110001000000
          -58 callsubr
          hintmask 1001110010000000
          -61 callsubr
          -51 callsubr
          hintmask 1001101001000000
          -138 137 rmoveto
          -102 callgsubr
          hintmask 1001110100000000
          191 hmoveto
          -102 callgsubr
          endchar
        </CharString>
        <CharString name="ugrave">
          -52 callgsubr
          -52 231 hstemhm
          65 56 236 56 -56 102 -102 116 hintmask 1001010010000000
          -104 callsubr
          hintmask 0011010010000000
          -67 callgsubr
          hvcurveto
          hintmask 0101011000000000
          -58 callsubr
          hintmask 1001010100000000
          -61 callsubr
          -51 callsubr
          -55 37 callgsubr
          hintmask 1000110010000000
          -101 callgsubr
        </CharString>
        <CharString name="uhungarumlaut">
          -80 callgsubr
          -166 82 -46 callgsubr
          hintmask 1000111000000000
          -98 callsubr
        </CharString>
</ttFont>
